%TF.GenerationSoftware,KiCad,Pcbnew,9.0.1*%
%TF.CreationDate,2025-08-01T20:54:44+02:00*%
%TF.ProjectId,monaco-gp-28,6d6f6e61-636f-42d6-9770-2d32382e6b69,rev?*%
%TF.SameCoordinates,Original*%
%TF.FileFunction,Soldermask,Bot*%
%TF.FilePolarity,Negative*%
%FSLAX46Y46*%
G04 Gerber Fmt 4.6, Leading zero omitted, Abs format (unit mm)*
G04 Created by KiCad (PCBNEW 9.0.1) date 2025-08-01 20:54:44*
%MOMM*%
%LPD*%
G01*
G04 APERTURE LIST*
%ADD10R,2.540000X12.000000*%
G04 APERTURE END LIST*
D10*
%TO.C,C1*%
X9210000Y-6860000D03*
X13170000Y-6860000D03*
X17130000Y-6860000D03*
X21090000Y-6860000D03*
X25050000Y-6860000D03*
X29010000Y-6860000D03*
X32970000Y-6860000D03*
X36930000Y-6860000D03*
X40890000Y-6860000D03*
X44850000Y-6860000D03*
X48810000Y-6860000D03*
X52770000Y-6860000D03*
X56730000Y-6860000D03*
X60690000Y-6860000D03*
X64650000Y-6860000D03*
X68610000Y-6860000D03*
X72570000Y-6860000D03*
X76530000Y-6860000D03*
X80490000Y-6860000D03*
X84450000Y-6860000D03*
X88410000Y-6860000D03*
X92370000Y-6860000D03*
X96330000Y-6860000D03*
X100290000Y-6860000D03*
X104250000Y-6860000D03*
X108210000Y-6860000D03*
X112170000Y-6860000D03*
X116130000Y-6860000D03*
%TD*%
%TO.C,F1*%
X9213000Y-68660000D03*
X13173000Y-68660000D03*
X17133000Y-68660000D03*
X21093000Y-68660000D03*
X25053000Y-68660000D03*
X29013000Y-68660000D03*
X32973000Y-68660000D03*
X36933000Y-68660000D03*
X40893000Y-68660000D03*
X44853000Y-68660000D03*
X48813000Y-68660000D03*
X52773000Y-68660000D03*
X56733000Y-68660000D03*
X60693000Y-68660000D03*
X64653000Y-68660000D03*
X68613000Y-68660000D03*
X72573000Y-68660000D03*
X76533000Y-68660000D03*
X80493000Y-68660000D03*
X84453000Y-68660000D03*
X88413000Y-68660000D03*
X92373000Y-68660000D03*
X96333000Y-68660000D03*
X100293000Y-68660000D03*
X104253000Y-68660000D03*
X108213000Y-68660000D03*
X112173000Y-68660000D03*
X116133000Y-68660000D03*
%TD*%
M02*
