%TF.GenerationSoftware,KiCad,Pcbnew,9.0.1*%
%TF.CreationDate,2025-07-28T23:24:02+02:00*%
%TF.ProjectId,monaco-gp-22,6d6f6e61-636f-42d6-9770-2d32322e6b69,rev?*%
%TF.SameCoordinates,Original*%
%TF.FileFunction,Copper,L2,Bot*%
%TF.FilePolarity,Positive*%
%FSLAX46Y46*%
G04 Gerber Fmt 4.6, Leading zero omitted, Abs format (unit mm)*
G04 Created by KiCad (PCBNEW 9.0.1) date 2025-07-28 23:24:02*
%MOMM*%
%LPD*%
G01*
G04 APERTURE LIST*
%TA.AperFunction,ConnectorPad*%
%ADD10R,2.540000X12.000000*%
%TD*%
%TA.AperFunction,ViaPad*%
%ADD11C,1.200000*%
%TD*%
%TA.AperFunction,Conductor*%
%ADD12C,1.200000*%
%TD*%
G04 APERTURE END LIST*
D10*
%TO.P,E1,1,Pin_1*%
%TO.N,/X1*%
X9210000Y-68690000D03*
%TO.P,E1,2,Pin_2*%
%TO.N,/X2*%
X13170000Y-68690000D03*
%TO.P,E1,3,Pin_3*%
%TO.N,/X3*%
X17130000Y-68690000D03*
%TO.P,E1,4,Pin_4*%
%TO.N,/X4*%
X21090000Y-68690000D03*
%TO.P,E1,5,Pin_5*%
%TO.N,unconnected-(E1-Pin_5-Pad5)*%
X25050000Y-68690000D03*
%TO.P,E1,6,Pin_6*%
%TO.N,/X6*%
X29010000Y-68690000D03*
%TO.P,E1,7,Pin_7*%
%TO.N,/X7*%
X32970000Y-68690000D03*
%TO.P,E1,8,Pin_8*%
%TO.N,/X8*%
X36930000Y-68690000D03*
%TO.P,E1,9,Pin_9*%
%TO.N,/X9*%
X40890000Y-68690000D03*
%TO.P,E1,10,Pin_10*%
%TO.N,/X10*%
X44850000Y-68690000D03*
%TO.P,E1,11,Pin_11*%
%TO.N,unconnected-(E1-Pin_11-Pad11)*%
X48810000Y-68690000D03*
%TO.P,E1,12,Pin_12*%
%TO.N,/X12*%
X52770000Y-68690000D03*
%TO.P,E1,13,Pin_13*%
%TO.N,unconnected-(E1-Pin_13-Pad13)*%
X56730000Y-68690000D03*
%TO.P,E1,14,Pin_14*%
%TO.N,/X14*%
X60690000Y-68690000D03*
%TO.P,E1,15,Pin_15*%
%TO.N,/X15*%
X64650000Y-68690000D03*
%TO.P,E1,16,Pin_16*%
%TO.N,/X16*%
X68610000Y-68690000D03*
%TO.P,E1,17,Pin_17*%
%TO.N,/X17*%
X72570000Y-68690000D03*
%TO.P,E1,18,Pin_18*%
%TO.N,/X18*%
X76530000Y-68690000D03*
%TO.P,E1,19,Pin_19*%
%TO.N,/X19*%
X80490000Y-68690000D03*
%TO.P,E1,20,Pin_20*%
%TO.N,/X20*%
X84450000Y-68690000D03*
%TO.P,E1,21,Pin_21*%
%TO.N,/X21*%
X88410000Y-68690000D03*
%TO.P,E1,22,Pin_22*%
%TO.N,/X22*%
X92370000Y-68690000D03*
%TD*%
%TO.P,B1,23,Pin_23*%
%TO.N,/X23*%
X9213000Y-6677000D03*
%TO.P,B1,24,Pin_24*%
%TO.N,/X24*%
X13173000Y-6677000D03*
%TO.P,B1,25,Pin_25*%
%TO.N,/X25*%
X17133000Y-6677000D03*
%TO.P,B1,26,Pin_26*%
%TO.N,/X26*%
X21093000Y-6677000D03*
%TO.P,B1,27,Pin_27*%
%TO.N,unconnected-(B1-Pin_27-Pad27)*%
X25053000Y-6677000D03*
%TO.P,B1,28,Pin_28*%
%TO.N,/X28*%
X29013000Y-6677000D03*
%TO.P,B1,29,Pin_29*%
%TO.N,/X29*%
X32973000Y-6677000D03*
%TO.P,B1,30,Pin_30*%
%TO.N,/X30*%
X36933000Y-6677000D03*
%TO.P,B1,31,Pin_31*%
%TO.N,/X31*%
X40893000Y-6677000D03*
%TO.P,B1,32,Pin_32*%
%TO.N,unconnected-(B1-Pin_32-Pad32)*%
X44853000Y-6677000D03*
%TO.P,B1,33,Pin_33*%
%TO.N,/X33*%
X48813000Y-6677000D03*
%TO.P,B1,34,Pin_34*%
%TO.N,/X34*%
X52773000Y-6677000D03*
%TO.P,B1,35,Pin_35*%
%TO.N,unconnected-(B1-Pin_35-Pad35)*%
X56733000Y-6677000D03*
%TO.P,B1,36,Pin_36*%
%TO.N,/X36*%
X60693000Y-6677000D03*
%TO.P,B1,37,Pin_37*%
%TO.N,/X37*%
X64653000Y-6677000D03*
%TO.P,B1,38,Pin_38*%
%TO.N,/X21*%
X68613000Y-6677000D03*
%TO.P,B1,39,Pin_39*%
%TO.N,/X43*%
X72573000Y-6677000D03*
%TO.P,B1,40,Pin_40*%
%TO.N,/X38*%
X76533000Y-6677000D03*
%TO.P,B1,41,Pin_41*%
%TO.N,/X39*%
X80493000Y-6677000D03*
%TO.P,B1,42,Pin_42*%
%TO.N,/X40*%
X84453000Y-6677000D03*
%TO.P,B1,43,Pin_43*%
%TO.N,/X41*%
X88413000Y-6677000D03*
%TO.P,B1,44,Pin_44*%
%TO.N,/X42*%
X92373000Y-6677000D03*
%TD*%
D11*
%TO.N,/X22*%
X72573000Y-32860000D03*
%TO.N,/X37*%
X66630000Y-52860000D03*
%TO.N,/X12*%
X52770000Y-52860000D03*
%TO.N,/X23*%
X11190000Y-52860000D03*
%TO.N,/X18*%
X78510000Y-52860000D03*
%TO.N,/X36*%
X62670000Y-52860000D03*
%TO.N,/X31*%
X42870000Y-52860000D03*
%TO.N,/X42*%
X90390000Y-44860000D03*
%TO.N,/X1*%
X9213000Y-52860000D03*
%TO.N,/X41*%
X88410000Y-14860000D03*
%TO.N,/X39*%
X80490000Y-32860000D03*
%TO.N,/X9*%
X40890000Y-52860000D03*
%TO.N,/X19*%
X82470000Y-52860000D03*
%TO.N,/X43*%
X90390000Y-50860000D03*
%TO.N,/X44*%
X76530000Y-32860000D03*
X92360000Y-49870000D03*
%TO.N,/X3*%
X17130000Y-52860000D03*
%TO.N,/X28*%
X30990000Y-52860000D03*
%TO.N,/X24*%
X15150000Y-52860000D03*
%TO.N,/X34*%
X54750000Y-52860000D03*
%TO.N,/X14*%
X60690000Y-52860000D03*
%TO.N,/X38*%
X78510000Y-14860000D03*
%TO.N,/X20*%
X84450000Y-52860000D03*
%TO.N,/X40*%
X84450000Y-14860000D03*
%TO.N,/X30*%
X38910000Y-52860000D03*
%TO.N,/X10*%
X44850000Y-52860000D03*
%TO.N,/X4*%
X21090000Y-52860000D03*
%TO.N,/X6*%
X29010000Y-52860000D03*
%TO.N,/X33*%
X48810000Y-52860000D03*
%TO.N,/X17*%
X74550000Y-52860000D03*
%TO.N,/X25*%
X19110000Y-52860000D03*
%TO.N,/X29*%
X34950000Y-52860000D03*
%TO.N,/X2*%
X13170000Y-52860000D03*
%TO.N,/X15*%
X64650000Y-52860000D03*
%TO.N,/X8*%
X36930000Y-52860000D03*
%TO.N,/X16*%
X68610000Y-52860000D03*
%TO.N,/X7*%
X32970000Y-52860000D03*
%TO.N,/X26*%
X23070000Y-52860000D03*
%TD*%
D12*
%TO.N,/X22*%
X92370000Y-55455844D02*
X92370000Y-68690000D01*
X72573000Y-35658844D02*
X92370000Y-55455844D01*
X72573000Y-32860000D02*
X72573000Y-35658844D01*
%TO.N,/X21*%
X68613000Y-33963000D02*
X88408500Y-53758500D01*
X68613000Y-6677000D02*
X68613000Y-33963000D01*
X88408500Y-53758500D02*
X88408500Y-68688500D01*
X88408500Y-68688500D02*
X88410000Y-68690000D01*
%TO.N,/X37*%
X64653000Y-6677000D02*
X64653000Y-12883000D01*
X66630000Y-14860000D02*
X66630000Y-52860000D01*
X64653000Y-12883000D02*
X66630000Y-14860000D01*
%TO.N,/X12*%
X52770000Y-52860000D02*
X52770000Y-68690000D01*
%TO.N,/X23*%
X9213000Y-6677000D02*
X9213000Y-12883000D01*
X11190000Y-14860000D02*
X11190000Y-52860000D01*
X9213000Y-12883000D02*
X11190000Y-14860000D01*
%TO.N,/X18*%
X78510000Y-52860000D02*
X78510000Y-60690000D01*
X76530000Y-62670000D02*
X76530000Y-68690000D01*
X78510000Y-60690000D02*
X76530000Y-62670000D01*
%TO.N,/X36*%
X60690000Y-12880000D02*
X62670000Y-14860000D01*
X60693000Y-6857000D02*
X60690000Y-6860000D01*
X62670000Y-14860000D02*
X62670000Y-52860000D01*
X60693000Y-6677000D02*
X60693000Y-6857000D01*
X60690000Y-6860000D02*
X60690000Y-12880000D01*
%TO.N,/X31*%
X42868500Y-52858500D02*
X42870000Y-52860000D01*
X42868500Y-14848500D02*
X42868500Y-52858500D01*
X40891500Y-12871500D02*
X42868500Y-14848500D01*
X40891500Y-6665500D02*
X40891500Y-12871500D01*
%TO.N,/X42*%
X94350000Y-40900000D02*
X94350000Y-13860000D01*
X92373000Y-11883000D02*
X92373000Y-6677000D01*
X94350000Y-13860000D02*
X92373000Y-11883000D01*
X90390000Y-44860000D02*
X94350000Y-40900000D01*
%TO.N,/X1*%
X9213000Y-52860000D02*
X9210000Y-52863000D01*
X9210000Y-52863000D02*
X9210000Y-68690000D01*
%TO.N,/X41*%
X88413000Y-11877000D02*
X88413000Y-6677000D01*
X88410000Y-14860000D02*
X88410000Y-11880000D01*
X88410000Y-11880000D02*
X88413000Y-11877000D01*
%TO.N,/X39*%
X80493000Y-6677000D02*
X80493000Y-32857000D01*
X80493000Y-32857000D02*
X80490000Y-32860000D01*
%TO.N,/X9*%
X40890000Y-52860000D02*
X40890000Y-68690000D01*
%TO.N,/X19*%
X82470000Y-52860000D02*
X82470000Y-60690000D01*
X80490000Y-62670000D02*
X80490000Y-68690000D01*
X82470000Y-60690000D02*
X80490000Y-62670000D01*
%TO.N,/X43*%
X90390000Y-50780000D02*
X74550000Y-34940000D01*
X74550000Y-34940000D02*
X74550000Y-14860000D01*
X90390000Y-50860000D02*
X90390000Y-50780000D01*
X72573000Y-12883000D02*
X72573000Y-6677000D01*
X74550000Y-14860000D02*
X72573000Y-12883000D01*
%TO.N,/X44*%
X76530000Y-34040000D02*
X76530000Y-32860000D01*
X92360000Y-49870000D02*
X76530000Y-34040000D01*
%TO.N,/X3*%
X17130000Y-52860000D02*
X17130000Y-68690000D01*
%TO.N,/X28*%
X30988500Y-14848500D02*
X30988500Y-52858500D01*
X29011500Y-6665500D02*
X29011500Y-12871500D01*
X30988500Y-52858500D02*
X30990000Y-52860000D01*
X29011500Y-12871500D02*
X30988500Y-14848500D01*
%TO.N,/X24*%
X13171500Y-12871500D02*
X15148500Y-14848500D01*
X15148500Y-52858500D02*
X15150000Y-52860000D01*
X13171500Y-6665500D02*
X13171500Y-12871500D01*
X15148500Y-14848500D02*
X15148500Y-52858500D01*
%TO.N,/X34*%
X52773000Y-12883000D02*
X54750000Y-14860000D01*
X52771500Y-12871500D02*
X52771500Y-6665500D01*
X54750000Y-14860000D02*
X54750000Y-52860000D01*
X52773000Y-6677000D02*
X52773000Y-12883000D01*
%TO.N,/X14*%
X60690000Y-52860000D02*
X60690000Y-68690000D01*
%TO.N,/X38*%
X78510000Y-13860000D02*
X76533000Y-11883000D01*
X76533000Y-11883000D02*
X76533000Y-6677000D01*
X78510000Y-14860000D02*
X78510000Y-13860000D01*
%TO.N,/X20*%
X84450000Y-52860000D02*
X84450000Y-68690000D01*
%TO.N,/X40*%
X84450000Y-14860000D02*
X84450000Y-11880000D01*
X84453000Y-11877000D02*
X84453000Y-6677000D01*
X84450000Y-11880000D02*
X84453000Y-11877000D01*
%TO.N,/X30*%
X38908500Y-14848500D02*
X38908500Y-52858500D01*
X36931500Y-6665500D02*
X36931500Y-12871500D01*
X38908500Y-52858500D02*
X38910000Y-52860000D01*
X36931500Y-12871500D02*
X38908500Y-14848500D01*
%TO.N,/X10*%
X44850000Y-52860000D02*
X44850000Y-68690000D01*
%TO.N,/X4*%
X21090000Y-52860000D02*
X21090000Y-68690000D01*
%TO.N,/X6*%
X29010000Y-52860000D02*
X29010000Y-68690000D01*
%TO.N,/X33*%
X48813000Y-52857000D02*
X48810000Y-52860000D01*
X48813000Y-6677000D02*
X48813000Y-52857000D01*
%TO.N,/X17*%
X74550000Y-52860000D02*
X74550000Y-60690000D01*
X72570000Y-62670000D02*
X72570000Y-68690000D01*
X74550000Y-60690000D02*
X72570000Y-62670000D01*
%TO.N,/X25*%
X19108500Y-52858500D02*
X19110000Y-52860000D01*
X17131500Y-12871500D02*
X19108500Y-14848500D01*
X17131500Y-6665500D02*
X17131500Y-12871500D01*
X19108500Y-14848500D02*
X19108500Y-52858500D01*
%TO.N,/X29*%
X34948500Y-52858500D02*
X34950000Y-52860000D01*
X32971500Y-6665500D02*
X32971500Y-12871500D01*
X32971500Y-12871500D02*
X34948500Y-14848500D01*
X34948500Y-14848500D02*
X34948500Y-52858500D01*
%TO.N,/X2*%
X13170000Y-52860000D02*
X13170000Y-68690000D01*
%TO.N,/X15*%
X64650000Y-52860000D02*
X64650000Y-68690000D01*
%TO.N,/X8*%
X36930000Y-52860000D02*
X36930000Y-68690000D01*
%TO.N,/X16*%
X68610000Y-52860000D02*
X68610000Y-68690000D01*
%TO.N,/X7*%
X32970000Y-52860000D02*
X32970000Y-68690000D01*
%TO.N,/X26*%
X23068500Y-14848500D02*
X23068500Y-52858500D01*
X23068500Y-52858500D02*
X23070000Y-52860000D01*
X21091500Y-12871500D02*
X23068500Y-14848500D01*
X21091500Y-6665500D02*
X21091500Y-12871500D01*
%TD*%
M02*
