%TF.GenerationSoftware,KiCad,Pcbnew,9.0.1*%
%TF.CreationDate,2025-08-01T20:54:46+02:00*%
%TF.ProjectId,monaco-gp-28,6d6f6e61-636f-42d6-9770-2d32382e6b69,rev?*%
%TF.SameCoordinates,Original*%
%TF.FileFunction,Drillmap*%
%TF.FilePolarity,Positive*%
%FSLAX45Y45*%
G04 Gerber Fmt 4.5, Leading zero omitted, Abs format (unit mm)*
G04 Created by KiCad (PCBNEW 9.0.1) date 2025-08-01 20:54:46*
%MOMM*%
%LPD*%
G01*
G04 APERTURE LIST*
%ADD10C,0.500000*%
%ADD11C,0.200000*%
%ADD12C,0.100000*%
G04 APERTURE END LIST*
D10*
X597300Y-6183000D02*
X30300Y-6183000D01*
X11940000Y-1366000D02*
X12524300Y-1366000D01*
X597000Y-1369000D02*
X30000Y-1369000D01*
X11940300Y-6186000D02*
X12507300Y-6186000D01*
X30300Y-1369000D02*
X30300Y-6183000D01*
X12524300Y-1366000D02*
X12507300Y-6186000D01*
X597000Y-336000D02*
X597000Y-1369000D01*
X847000Y-86000D02*
X11690000Y-86000D01*
X11940000Y-336000D02*
X11940000Y-1366000D01*
X597000Y-336000D02*
G75*
G02*
X847000Y-86000I250000J0D01*
G01*
X11690000Y-86000D02*
G75*
G02*
X11940000Y-336000I0J-250000D01*
G01*
X597300Y-7216000D02*
X597300Y-6183000D01*
X847300Y-7466000D02*
X11690300Y-7466000D01*
X11940300Y-7216000D02*
X11940300Y-6186000D01*
X847300Y-7466000D02*
G75*
G02*
X597300Y-7216000I0J250000D01*
G01*
X11940300Y-7216000D02*
G75*
G02*
X11690300Y-7466000I-250000J0D01*
G01*
D11*
D12*
X891000Y-3456000D02*
X951000Y-3516000D01*
X951000Y-3456000D02*
X891000Y-3516000D01*
X1089000Y-3456000D02*
X1149000Y-3516000D01*
X1149000Y-3456000D02*
X1089000Y-3516000D01*
X1287000Y-3456000D02*
X1347000Y-3516000D01*
X1347000Y-3456000D02*
X1287000Y-3516000D01*
X1485000Y-3456000D02*
X1545000Y-3516000D01*
X1545000Y-3456000D02*
X1485000Y-3516000D01*
X1683000Y-3456000D02*
X1743000Y-3516000D01*
X1743000Y-3456000D02*
X1683000Y-3516000D01*
X1881000Y-3456000D02*
X1941000Y-3516000D01*
X1941000Y-3456000D02*
X1881000Y-3516000D01*
X2079000Y-3456000D02*
X2139000Y-3516000D01*
X2139000Y-3456000D02*
X2079000Y-3516000D01*
X2277000Y-3456000D02*
X2337000Y-3516000D01*
X2337000Y-3456000D02*
X2277000Y-3516000D01*
X2475000Y-3456000D02*
X2535000Y-3516000D01*
X2535000Y-3456000D02*
X2475000Y-3516000D01*
X2673000Y-3456000D02*
X2733000Y-3516000D01*
X2733000Y-3456000D02*
X2673000Y-3516000D01*
X2871000Y-3456000D02*
X2931000Y-3516000D01*
X2931000Y-3456000D02*
X2871000Y-3516000D01*
X3069000Y-3456000D02*
X3129000Y-3516000D01*
X3129000Y-3456000D02*
X3069000Y-3516000D01*
X3267000Y-3456000D02*
X3327000Y-3516000D01*
X3327000Y-3456000D02*
X3267000Y-3516000D01*
X3465000Y-3456000D02*
X3525000Y-3516000D01*
X3525000Y-3456000D02*
X3465000Y-3516000D01*
X3663000Y-3456000D02*
X3723000Y-3516000D01*
X3723000Y-3456000D02*
X3663000Y-3516000D01*
X3861000Y-3456000D02*
X3921000Y-3516000D01*
X3921000Y-3456000D02*
X3861000Y-3516000D01*
X4059000Y-3456000D02*
X4119000Y-3516000D01*
X4119000Y-3456000D02*
X4059000Y-3516000D01*
X4257000Y-3456000D02*
X4317000Y-3516000D01*
X4317000Y-3456000D02*
X4257000Y-3516000D01*
X4455000Y-3456000D02*
X4515000Y-3516000D01*
X4515000Y-3456000D02*
X4455000Y-3516000D01*
X4653000Y-3456000D02*
X4713000Y-3516000D01*
X4713000Y-3456000D02*
X4653000Y-3516000D01*
X4851000Y-3456000D02*
X4911000Y-3516000D01*
X4911000Y-3456000D02*
X4851000Y-3516000D01*
X5049000Y-3456000D02*
X5109000Y-3516000D01*
X5109000Y-3456000D02*
X5049000Y-3516000D01*
X5247000Y-3456000D02*
X5307000Y-3516000D01*
X5307000Y-3456000D02*
X5247000Y-3516000D01*
X5445000Y-3456000D02*
X5505000Y-3516000D01*
X5505000Y-3456000D02*
X5445000Y-3516000D01*
X5643000Y-3456000D02*
X5703000Y-3516000D01*
X5703000Y-3456000D02*
X5643000Y-3516000D01*
X6039000Y-3456000D02*
X6099000Y-3516000D01*
X6099000Y-3456000D02*
X6039000Y-3516000D01*
X6237000Y-3456000D02*
X6297000Y-3516000D01*
X6297000Y-3456000D02*
X6237000Y-3516000D01*
X6435000Y-3456000D02*
X6495000Y-3516000D01*
X6495000Y-3456000D02*
X6435000Y-3516000D01*
X6633000Y-3456000D02*
X6693000Y-3516000D01*
X6693000Y-3456000D02*
X6633000Y-3516000D01*
X6831000Y-3456000D02*
X6891000Y-3516000D01*
X6891000Y-3456000D02*
X6831000Y-3516000D01*
X7029000Y-3456000D02*
X7089000Y-3516000D01*
X7089000Y-3456000D02*
X7029000Y-3516000D01*
X7227000Y-3456000D02*
X7287000Y-3516000D01*
X7287000Y-3456000D02*
X7227000Y-3516000D01*
X7425000Y-3456000D02*
X7485000Y-3516000D01*
X7485000Y-3456000D02*
X7425000Y-3516000D01*
X7623000Y-3456000D02*
X7683000Y-3516000D01*
X7683000Y-3456000D02*
X7623000Y-3516000D01*
X7821000Y-3456000D02*
X7881000Y-3516000D01*
X7881000Y-3456000D02*
X7821000Y-3516000D01*
X8415000Y-1656000D02*
X8475000Y-1716000D01*
X8475000Y-1656000D02*
X8415000Y-1716000D01*
X8415000Y-1856000D02*
X8475000Y-1916000D01*
X8475000Y-1856000D02*
X8415000Y-1916000D01*
X8415000Y-5756000D02*
X8475000Y-5816000D01*
X8475000Y-5756000D02*
X8415000Y-5816000D01*
X8415000Y-5956000D02*
X8475000Y-6016000D01*
X8475000Y-5956000D02*
X8415000Y-6016000D01*
X8613000Y-1656000D02*
X8673000Y-1716000D01*
X8673000Y-1656000D02*
X8613000Y-1716000D01*
X8613000Y-1856000D02*
X8673000Y-1916000D01*
X8673000Y-1856000D02*
X8613000Y-1916000D01*
X8613000Y-5756000D02*
X8673000Y-5816000D01*
X8673000Y-5756000D02*
X8613000Y-5816000D01*
X8613000Y-5956000D02*
X8673000Y-6016000D01*
X8673000Y-5956000D02*
X8613000Y-6016000D01*
X8811000Y-1656000D02*
X8871000Y-1716000D01*
X8871000Y-1656000D02*
X8811000Y-1716000D01*
X8811000Y-1856000D02*
X8871000Y-1916000D01*
X8871000Y-1856000D02*
X8811000Y-1916000D01*
X8811000Y-5756000D02*
X8871000Y-5816000D01*
X8871000Y-5756000D02*
X8811000Y-5816000D01*
X8811000Y-5956000D02*
X8871000Y-6016000D01*
X8871000Y-5956000D02*
X8811000Y-6016000D01*
X9009000Y-1656000D02*
X9069000Y-1716000D01*
X9069000Y-1656000D02*
X9009000Y-1716000D01*
X9009000Y-1856000D02*
X9069000Y-1916000D01*
X9069000Y-1856000D02*
X9009000Y-1916000D01*
X9009000Y-5756000D02*
X9069000Y-5816000D01*
X9069000Y-5756000D02*
X9009000Y-5816000D01*
X9009000Y-5956000D02*
X9069000Y-6016000D01*
X9069000Y-5956000D02*
X9009000Y-6016000D01*
X9207000Y-1656000D02*
X9267000Y-1716000D01*
X9267000Y-1656000D02*
X9207000Y-1716000D01*
X9207000Y-1856000D02*
X9267000Y-1916000D01*
X9267000Y-1856000D02*
X9207000Y-1916000D01*
X9207000Y-5756000D02*
X9267000Y-5816000D01*
X9267000Y-5756000D02*
X9207000Y-5816000D01*
X9207000Y-5956000D02*
X9267000Y-6016000D01*
X9267000Y-5956000D02*
X9207000Y-6016000D01*
X9405000Y-1656000D02*
X9465000Y-1716000D01*
X9465000Y-1656000D02*
X9405000Y-1716000D01*
X9405000Y-1856000D02*
X9465000Y-1916000D01*
X9465000Y-1856000D02*
X9405000Y-1916000D01*
X9405000Y-5756000D02*
X9465000Y-5816000D01*
X9465000Y-5756000D02*
X9405000Y-5816000D01*
X9405000Y-5956000D02*
X9465000Y-6016000D01*
X9465000Y-5956000D02*
X9405000Y-6016000D01*
X9603000Y-1656000D02*
X9663000Y-1716000D01*
X9663000Y-1656000D02*
X9603000Y-1716000D01*
X9603000Y-1856000D02*
X9663000Y-1916000D01*
X9663000Y-1856000D02*
X9603000Y-1916000D01*
X9603000Y-5756000D02*
X9663000Y-5816000D01*
X9663000Y-5756000D02*
X9603000Y-5816000D01*
X9603000Y-5956000D02*
X9663000Y-6016000D01*
X9663000Y-5956000D02*
X9603000Y-6016000D01*
X10395000Y-1656000D02*
X10455000Y-1716000D01*
X10455000Y-1656000D02*
X10395000Y-1716000D01*
X10395000Y-1856000D02*
X10455000Y-1916000D01*
X10455000Y-1856000D02*
X10395000Y-1916000D01*
X10395000Y-5756000D02*
X10455000Y-5816000D01*
X10455000Y-5756000D02*
X10395000Y-5816000D01*
X10395000Y-5956000D02*
X10455000Y-6016000D01*
X10455000Y-5956000D02*
X10395000Y-6016000D01*
X10593000Y-1656000D02*
X10653000Y-1716000D01*
X10653000Y-1656000D02*
X10593000Y-1716000D01*
X10593000Y-1856000D02*
X10653000Y-1916000D01*
X10653000Y-1856000D02*
X10593000Y-1916000D01*
X10593000Y-5756000D02*
X10653000Y-5816000D01*
X10653000Y-5756000D02*
X10593000Y-5816000D01*
X10593000Y-5956000D02*
X10653000Y-6016000D01*
X10653000Y-5956000D02*
X10593000Y-6016000D01*
X10791000Y-1656000D02*
X10851000Y-1716000D01*
X10851000Y-1656000D02*
X10791000Y-1716000D01*
X10791000Y-1856000D02*
X10851000Y-1916000D01*
X10851000Y-1856000D02*
X10791000Y-1916000D01*
X10791000Y-5756000D02*
X10851000Y-5816000D01*
X10851000Y-5756000D02*
X10791000Y-5816000D01*
X10791000Y-5956000D02*
X10851000Y-6016000D01*
X10851000Y-5956000D02*
X10791000Y-6016000D01*
X10989000Y-1656000D02*
X11049000Y-1716000D01*
X11049000Y-1656000D02*
X10989000Y-1716000D01*
X10989000Y-1856000D02*
X11049000Y-1916000D01*
X11049000Y-1856000D02*
X10989000Y-1916000D01*
X10989000Y-5756000D02*
X11049000Y-5816000D01*
X11049000Y-5756000D02*
X10989000Y-5816000D01*
X10989000Y-5956000D02*
X11049000Y-6016000D01*
X11049000Y-5956000D02*
X10989000Y-6016000D01*
X11187000Y-1656000D02*
X11247000Y-1716000D01*
X11247000Y-1656000D02*
X11187000Y-1716000D01*
X11187000Y-1856000D02*
X11247000Y-1916000D01*
X11247000Y-1856000D02*
X11187000Y-1916000D01*
X11187000Y-5756000D02*
X11247000Y-5816000D01*
X11247000Y-5756000D02*
X11187000Y-5816000D01*
X11187000Y-5956000D02*
X11247000Y-6016000D01*
X11247000Y-5956000D02*
X11187000Y-6016000D01*
X11385000Y-1656000D02*
X11445000Y-1716000D01*
X11445000Y-1656000D02*
X11385000Y-1716000D01*
X11385000Y-1856000D02*
X11445000Y-1916000D01*
X11445000Y-1856000D02*
X11385000Y-1916000D01*
X11385000Y-5756000D02*
X11445000Y-5816000D01*
X11445000Y-5756000D02*
X11385000Y-5816000D01*
X11385000Y-5956000D02*
X11445000Y-6016000D01*
X11445000Y-5956000D02*
X11385000Y-6016000D01*
X11583000Y-1656000D02*
X11643000Y-1716000D01*
X11643000Y-1656000D02*
X11583000Y-1716000D01*
X11583000Y-1856000D02*
X11643000Y-1916000D01*
X11643000Y-1856000D02*
X11583000Y-1916000D01*
X11583000Y-5756000D02*
X11643000Y-5816000D01*
X11643000Y-5756000D02*
X11583000Y-5816000D01*
X11583000Y-5956000D02*
X11643000Y-6016000D01*
X11643000Y-5956000D02*
X11583000Y-6016000D01*
D10*
X750000Y-4660700D02*
G75*
G02*
X250000Y-4660700I-250000J0D01*
G01*
X250000Y-4660700D02*
G75*
G02*
X750000Y-4660700I250000J0D01*
G01*
X12254000Y-4660700D02*
G75*
G02*
X11754000Y-4660700I-250000J0D01*
G01*
X11754000Y-4660700D02*
G75*
G02*
X12254000Y-4660700I250000J0D01*
G01*
D11*
X265777Y-7802484D02*
X265777Y-7602484D01*
X265777Y-7602484D02*
X313396Y-7602484D01*
X313396Y-7602484D02*
X341967Y-7612008D01*
X341967Y-7612008D02*
X361015Y-7631055D01*
X361015Y-7631055D02*
X370539Y-7650103D01*
X370539Y-7650103D02*
X380062Y-7688198D01*
X380062Y-7688198D02*
X380062Y-7716769D01*
X380062Y-7716769D02*
X370539Y-7754865D01*
X370539Y-7754865D02*
X361015Y-7773912D01*
X361015Y-7773912D02*
X341967Y-7792960D01*
X341967Y-7792960D02*
X313396Y-7802484D01*
X313396Y-7802484D02*
X265777Y-7802484D01*
X465777Y-7802484D02*
X465777Y-7669150D01*
X465777Y-7707246D02*
X475301Y-7688198D01*
X475301Y-7688198D02*
X484824Y-7678674D01*
X484824Y-7678674D02*
X503872Y-7669150D01*
X503872Y-7669150D02*
X522920Y-7669150D01*
X589586Y-7802484D02*
X589586Y-7669150D01*
X589586Y-7602484D02*
X580063Y-7612008D01*
X580063Y-7612008D02*
X589586Y-7621531D01*
X589586Y-7621531D02*
X599110Y-7612008D01*
X599110Y-7612008D02*
X589586Y-7602484D01*
X589586Y-7602484D02*
X589586Y-7621531D01*
X713396Y-7802484D02*
X694348Y-7792960D01*
X694348Y-7792960D02*
X684824Y-7773912D01*
X684824Y-7773912D02*
X684824Y-7602484D01*
X818158Y-7802484D02*
X799110Y-7792960D01*
X799110Y-7792960D02*
X789586Y-7773912D01*
X789586Y-7773912D02*
X789586Y-7602484D01*
X1046729Y-7802484D02*
X1046729Y-7602484D01*
X1046729Y-7602484D02*
X1113396Y-7745341D01*
X1113396Y-7745341D02*
X1180063Y-7602484D01*
X1180063Y-7602484D02*
X1180063Y-7802484D01*
X1361015Y-7802484D02*
X1361015Y-7697722D01*
X1361015Y-7697722D02*
X1351491Y-7678674D01*
X1351491Y-7678674D02*
X1332444Y-7669150D01*
X1332444Y-7669150D02*
X1294348Y-7669150D01*
X1294348Y-7669150D02*
X1275301Y-7678674D01*
X1361015Y-7792960D02*
X1341967Y-7802484D01*
X1341967Y-7802484D02*
X1294348Y-7802484D01*
X1294348Y-7802484D02*
X1275301Y-7792960D01*
X1275301Y-7792960D02*
X1265777Y-7773912D01*
X1265777Y-7773912D02*
X1265777Y-7754865D01*
X1265777Y-7754865D02*
X1275301Y-7735817D01*
X1275301Y-7735817D02*
X1294348Y-7726293D01*
X1294348Y-7726293D02*
X1341967Y-7726293D01*
X1341967Y-7726293D02*
X1361015Y-7716769D01*
X1456253Y-7669150D02*
X1456253Y-7869150D01*
X1456253Y-7678674D02*
X1475301Y-7669150D01*
X1475301Y-7669150D02*
X1513396Y-7669150D01*
X1513396Y-7669150D02*
X1532443Y-7678674D01*
X1532443Y-7678674D02*
X1541967Y-7688198D01*
X1541967Y-7688198D02*
X1551491Y-7707246D01*
X1551491Y-7707246D02*
X1551491Y-7764388D01*
X1551491Y-7764388D02*
X1541967Y-7783436D01*
X1541967Y-7783436D02*
X1532443Y-7792960D01*
X1532443Y-7792960D02*
X1513396Y-7802484D01*
X1513396Y-7802484D02*
X1475301Y-7802484D01*
X1475301Y-7802484D02*
X1456253Y-7792960D01*
X1637205Y-7783436D02*
X1646729Y-7792960D01*
X1646729Y-7792960D02*
X1637205Y-7802484D01*
X1637205Y-7802484D02*
X1627682Y-7792960D01*
X1627682Y-7792960D02*
X1637205Y-7783436D01*
X1637205Y-7783436D02*
X1637205Y-7802484D01*
X1637205Y-7678674D02*
X1646729Y-7688198D01*
X1646729Y-7688198D02*
X1637205Y-7697722D01*
X1637205Y-7697722D02*
X1627682Y-7688198D01*
X1627682Y-7688198D02*
X1637205Y-7678674D01*
X1637205Y-7678674D02*
X1637205Y-7697722D01*
D12*
X-55000Y-8101000D02*
X5000Y-8161000D01*
X5000Y-8101000D02*
X-55000Y-8161000D01*
D11*
X303872Y-8022484D02*
X322920Y-8022484D01*
X322920Y-8022484D02*
X341967Y-8032008D01*
X341967Y-8032008D02*
X351491Y-8041531D01*
X351491Y-8041531D02*
X361015Y-8060579D01*
X361015Y-8060579D02*
X370539Y-8098674D01*
X370539Y-8098674D02*
X370539Y-8146293D01*
X370539Y-8146293D02*
X361015Y-8184388D01*
X361015Y-8184388D02*
X351491Y-8203436D01*
X351491Y-8203436D02*
X341967Y-8212960D01*
X341967Y-8212960D02*
X322920Y-8222484D01*
X322920Y-8222484D02*
X303872Y-8222484D01*
X303872Y-8222484D02*
X284824Y-8212960D01*
X284824Y-8212960D02*
X275301Y-8203436D01*
X275301Y-8203436D02*
X265777Y-8184388D01*
X265777Y-8184388D02*
X256253Y-8146293D01*
X256253Y-8146293D02*
X256253Y-8098674D01*
X256253Y-8098674D02*
X265777Y-8060579D01*
X265777Y-8060579D02*
X275301Y-8041531D01*
X275301Y-8041531D02*
X284824Y-8032008D01*
X284824Y-8032008D02*
X303872Y-8022484D01*
X456253Y-8203436D02*
X465777Y-8212960D01*
X465777Y-8212960D02*
X456253Y-8222484D01*
X456253Y-8222484D02*
X446729Y-8212960D01*
X446729Y-8212960D02*
X456253Y-8203436D01*
X456253Y-8203436D02*
X456253Y-8222484D01*
X637205Y-8022484D02*
X599110Y-8022484D01*
X599110Y-8022484D02*
X580063Y-8032008D01*
X580063Y-8032008D02*
X570539Y-8041531D01*
X570539Y-8041531D02*
X551491Y-8070103D01*
X551491Y-8070103D02*
X541967Y-8108198D01*
X541967Y-8108198D02*
X541967Y-8184388D01*
X541967Y-8184388D02*
X551491Y-8203436D01*
X551491Y-8203436D02*
X561015Y-8212960D01*
X561015Y-8212960D02*
X580063Y-8222484D01*
X580063Y-8222484D02*
X618158Y-8222484D01*
X618158Y-8222484D02*
X637205Y-8212960D01*
X637205Y-8212960D02*
X646729Y-8203436D01*
X646729Y-8203436D02*
X656253Y-8184388D01*
X656253Y-8184388D02*
X656253Y-8136769D01*
X656253Y-8136769D02*
X646729Y-8117722D01*
X646729Y-8117722D02*
X637205Y-8108198D01*
X637205Y-8108198D02*
X618158Y-8098674D01*
X618158Y-8098674D02*
X580063Y-8098674D01*
X580063Y-8098674D02*
X561015Y-8108198D01*
X561015Y-8108198D02*
X551491Y-8117722D01*
X551491Y-8117722D02*
X541967Y-8136769D01*
X780062Y-8022484D02*
X799110Y-8022484D01*
X799110Y-8022484D02*
X818158Y-8032008D01*
X818158Y-8032008D02*
X827682Y-8041531D01*
X827682Y-8041531D02*
X837205Y-8060579D01*
X837205Y-8060579D02*
X846729Y-8098674D01*
X846729Y-8098674D02*
X846729Y-8146293D01*
X846729Y-8146293D02*
X837205Y-8184388D01*
X837205Y-8184388D02*
X827682Y-8203436D01*
X827682Y-8203436D02*
X818158Y-8212960D01*
X818158Y-8212960D02*
X799110Y-8222484D01*
X799110Y-8222484D02*
X780062Y-8222484D01*
X780062Y-8222484D02*
X761015Y-8212960D01*
X761015Y-8212960D02*
X751491Y-8203436D01*
X751491Y-8203436D02*
X741967Y-8184388D01*
X741967Y-8184388D02*
X732443Y-8146293D01*
X732443Y-8146293D02*
X732443Y-8098674D01*
X732443Y-8098674D02*
X741967Y-8060579D01*
X741967Y-8060579D02*
X751491Y-8041531D01*
X751491Y-8041531D02*
X761015Y-8032008D01*
X761015Y-8032008D02*
X780062Y-8022484D01*
X970539Y-8022484D02*
X989586Y-8022484D01*
X989586Y-8022484D02*
X1008634Y-8032008D01*
X1008634Y-8032008D02*
X1018158Y-8041531D01*
X1018158Y-8041531D02*
X1027682Y-8060579D01*
X1027682Y-8060579D02*
X1037205Y-8098674D01*
X1037205Y-8098674D02*
X1037205Y-8146293D01*
X1037205Y-8146293D02*
X1027682Y-8184388D01*
X1027682Y-8184388D02*
X1018158Y-8203436D01*
X1018158Y-8203436D02*
X1008634Y-8212960D01*
X1008634Y-8212960D02*
X989586Y-8222484D01*
X989586Y-8222484D02*
X970539Y-8222484D01*
X970539Y-8222484D02*
X951491Y-8212960D01*
X951491Y-8212960D02*
X941967Y-8203436D01*
X941967Y-8203436D02*
X932443Y-8184388D01*
X932443Y-8184388D02*
X922920Y-8146293D01*
X922920Y-8146293D02*
X922920Y-8098674D01*
X922920Y-8098674D02*
X932443Y-8060579D01*
X932443Y-8060579D02*
X941967Y-8041531D01*
X941967Y-8041531D02*
X951491Y-8032008D01*
X951491Y-8032008D02*
X970539Y-8022484D01*
X1122920Y-8222484D02*
X1122920Y-8089150D01*
X1122920Y-8108198D02*
X1132444Y-8098674D01*
X1132444Y-8098674D02*
X1151491Y-8089150D01*
X1151491Y-8089150D02*
X1180063Y-8089150D01*
X1180063Y-8089150D02*
X1199110Y-8098674D01*
X1199110Y-8098674D02*
X1208634Y-8117722D01*
X1208634Y-8117722D02*
X1208634Y-8222484D01*
X1208634Y-8117722D02*
X1218158Y-8098674D01*
X1218158Y-8098674D02*
X1237205Y-8089150D01*
X1237205Y-8089150D02*
X1265777Y-8089150D01*
X1265777Y-8089150D02*
X1284825Y-8098674D01*
X1284825Y-8098674D02*
X1294348Y-8117722D01*
X1294348Y-8117722D02*
X1294348Y-8222484D01*
X1389586Y-8222484D02*
X1389586Y-8089150D01*
X1389586Y-8108198D02*
X1399110Y-8098674D01*
X1399110Y-8098674D02*
X1418158Y-8089150D01*
X1418158Y-8089150D02*
X1446729Y-8089150D01*
X1446729Y-8089150D02*
X1465777Y-8098674D01*
X1465777Y-8098674D02*
X1475301Y-8117722D01*
X1475301Y-8117722D02*
X1475301Y-8222484D01*
X1475301Y-8117722D02*
X1484824Y-8098674D01*
X1484824Y-8098674D02*
X1503872Y-8089150D01*
X1503872Y-8089150D02*
X1532443Y-8089150D01*
X1532443Y-8089150D02*
X1551491Y-8098674D01*
X1551491Y-8098674D02*
X1561015Y-8117722D01*
X1561015Y-8117722D02*
X1561015Y-8222484D01*
X1951491Y-8012960D02*
X1780063Y-8270103D01*
X2208634Y-8022484D02*
X2227682Y-8022484D01*
X2227682Y-8022484D02*
X2246729Y-8032008D01*
X2246729Y-8032008D02*
X2256253Y-8041531D01*
X2256253Y-8041531D02*
X2265777Y-8060579D01*
X2265777Y-8060579D02*
X2275301Y-8098674D01*
X2275301Y-8098674D02*
X2275301Y-8146293D01*
X2275301Y-8146293D02*
X2265777Y-8184388D01*
X2265777Y-8184388D02*
X2256253Y-8203436D01*
X2256253Y-8203436D02*
X2246729Y-8212960D01*
X2246729Y-8212960D02*
X2227682Y-8222484D01*
X2227682Y-8222484D02*
X2208634Y-8222484D01*
X2208634Y-8222484D02*
X2189587Y-8212960D01*
X2189587Y-8212960D02*
X2180063Y-8203436D01*
X2180063Y-8203436D02*
X2170539Y-8184388D01*
X2170539Y-8184388D02*
X2161015Y-8146293D01*
X2161015Y-8146293D02*
X2161015Y-8098674D01*
X2161015Y-8098674D02*
X2170539Y-8060579D01*
X2170539Y-8060579D02*
X2180063Y-8041531D01*
X2180063Y-8041531D02*
X2189587Y-8032008D01*
X2189587Y-8032008D02*
X2208634Y-8022484D01*
X2361015Y-8203436D02*
X2370539Y-8212960D01*
X2370539Y-8212960D02*
X2361015Y-8222484D01*
X2361015Y-8222484D02*
X2351491Y-8212960D01*
X2351491Y-8212960D02*
X2361015Y-8203436D01*
X2361015Y-8203436D02*
X2361015Y-8222484D01*
X2494348Y-8022484D02*
X2513396Y-8022484D01*
X2513396Y-8022484D02*
X2532444Y-8032008D01*
X2532444Y-8032008D02*
X2541968Y-8041531D01*
X2541968Y-8041531D02*
X2551491Y-8060579D01*
X2551491Y-8060579D02*
X2561015Y-8098674D01*
X2561015Y-8098674D02*
X2561015Y-8146293D01*
X2561015Y-8146293D02*
X2551491Y-8184388D01*
X2551491Y-8184388D02*
X2541968Y-8203436D01*
X2541968Y-8203436D02*
X2532444Y-8212960D01*
X2532444Y-8212960D02*
X2513396Y-8222484D01*
X2513396Y-8222484D02*
X2494348Y-8222484D01*
X2494348Y-8222484D02*
X2475301Y-8212960D01*
X2475301Y-8212960D02*
X2465777Y-8203436D01*
X2465777Y-8203436D02*
X2456253Y-8184388D01*
X2456253Y-8184388D02*
X2446729Y-8146293D01*
X2446729Y-8146293D02*
X2446729Y-8098674D01*
X2446729Y-8098674D02*
X2456253Y-8060579D01*
X2456253Y-8060579D02*
X2465777Y-8041531D01*
X2465777Y-8041531D02*
X2475301Y-8032008D01*
X2475301Y-8032008D02*
X2494348Y-8022484D01*
X2637206Y-8041531D02*
X2646729Y-8032008D01*
X2646729Y-8032008D02*
X2665777Y-8022484D01*
X2665777Y-8022484D02*
X2713396Y-8022484D01*
X2713396Y-8022484D02*
X2732444Y-8032008D01*
X2732444Y-8032008D02*
X2741968Y-8041531D01*
X2741968Y-8041531D02*
X2751491Y-8060579D01*
X2751491Y-8060579D02*
X2751491Y-8079627D01*
X2751491Y-8079627D02*
X2741968Y-8108198D01*
X2741968Y-8108198D02*
X2627682Y-8222484D01*
X2627682Y-8222484D02*
X2751491Y-8222484D01*
X2818158Y-8022484D02*
X2941967Y-8022484D01*
X2941967Y-8022484D02*
X2875301Y-8098674D01*
X2875301Y-8098674D02*
X2903872Y-8098674D01*
X2903872Y-8098674D02*
X2922920Y-8108198D01*
X2922920Y-8108198D02*
X2932444Y-8117722D01*
X2932444Y-8117722D02*
X2941967Y-8136769D01*
X2941967Y-8136769D02*
X2941967Y-8184388D01*
X2941967Y-8184388D02*
X2932444Y-8203436D01*
X2932444Y-8203436D02*
X2922920Y-8212960D01*
X2922920Y-8212960D02*
X2903872Y-8222484D01*
X2903872Y-8222484D02*
X2846729Y-8222484D01*
X2846729Y-8222484D02*
X2827682Y-8212960D01*
X2827682Y-8212960D02*
X2818158Y-8203436D01*
X3113396Y-8022484D02*
X3075301Y-8022484D01*
X3075301Y-8022484D02*
X3056253Y-8032008D01*
X3056253Y-8032008D02*
X3046729Y-8041531D01*
X3046729Y-8041531D02*
X3027682Y-8070103D01*
X3027682Y-8070103D02*
X3018158Y-8108198D01*
X3018158Y-8108198D02*
X3018158Y-8184388D01*
X3018158Y-8184388D02*
X3027682Y-8203436D01*
X3027682Y-8203436D02*
X3037206Y-8212960D01*
X3037206Y-8212960D02*
X3056253Y-8222484D01*
X3056253Y-8222484D02*
X3094348Y-8222484D01*
X3094348Y-8222484D02*
X3113396Y-8212960D01*
X3113396Y-8212960D02*
X3122920Y-8203436D01*
X3122920Y-8203436D02*
X3132444Y-8184388D01*
X3132444Y-8184388D02*
X3132444Y-8136769D01*
X3132444Y-8136769D02*
X3122920Y-8117722D01*
X3122920Y-8117722D02*
X3113396Y-8108198D01*
X3113396Y-8108198D02*
X3094348Y-8098674D01*
X3094348Y-8098674D02*
X3056253Y-8098674D01*
X3056253Y-8098674D02*
X3037206Y-8108198D01*
X3037206Y-8108198D02*
X3027682Y-8117722D01*
X3027682Y-8117722D02*
X3018158Y-8136769D01*
X3208634Y-8022484D02*
X3208634Y-8060579D01*
X3284825Y-8022484D02*
X3284825Y-8060579D01*
X3580063Y-8298674D02*
X3570539Y-8289150D01*
X3570539Y-8289150D02*
X3551491Y-8260579D01*
X3551491Y-8260579D02*
X3541968Y-8241531D01*
X3541968Y-8241531D02*
X3532444Y-8212960D01*
X3532444Y-8212960D02*
X3522920Y-8165341D01*
X3522920Y-8165341D02*
X3522920Y-8127246D01*
X3522920Y-8127246D02*
X3532444Y-8079627D01*
X3532444Y-8079627D02*
X3541968Y-8051055D01*
X3541968Y-8051055D02*
X3551491Y-8032008D01*
X3551491Y-8032008D02*
X3570539Y-8003436D01*
X3570539Y-8003436D02*
X3580063Y-7993912D01*
X3665777Y-8222484D02*
X3703872Y-8222484D01*
X3703872Y-8222484D02*
X3722920Y-8212960D01*
X3722920Y-8212960D02*
X3732444Y-8203436D01*
X3732444Y-8203436D02*
X3751491Y-8174865D01*
X3751491Y-8174865D02*
X3761015Y-8136769D01*
X3761015Y-8136769D02*
X3761015Y-8060579D01*
X3761015Y-8060579D02*
X3751491Y-8041531D01*
X3751491Y-8041531D02*
X3741968Y-8032008D01*
X3741968Y-8032008D02*
X3722920Y-8022484D01*
X3722920Y-8022484D02*
X3684825Y-8022484D01*
X3684825Y-8022484D02*
X3665777Y-8032008D01*
X3665777Y-8032008D02*
X3656253Y-8041531D01*
X3656253Y-8041531D02*
X3646729Y-8060579D01*
X3646729Y-8060579D02*
X3646729Y-8108198D01*
X3646729Y-8108198D02*
X3656253Y-8127246D01*
X3656253Y-8127246D02*
X3665777Y-8136769D01*
X3665777Y-8136769D02*
X3684825Y-8146293D01*
X3684825Y-8146293D02*
X3722920Y-8146293D01*
X3722920Y-8146293D02*
X3741968Y-8136769D01*
X3741968Y-8136769D02*
X3751491Y-8127246D01*
X3751491Y-8127246D02*
X3761015Y-8108198D01*
X3951491Y-8222484D02*
X3837206Y-8222484D01*
X3894348Y-8222484D02*
X3894348Y-8022484D01*
X3894348Y-8022484D02*
X3875301Y-8051055D01*
X3875301Y-8051055D02*
X3856253Y-8070103D01*
X3856253Y-8070103D02*
X3837206Y-8079627D01*
X4189587Y-8222484D02*
X4189587Y-8022484D01*
X4275301Y-8222484D02*
X4275301Y-8117722D01*
X4275301Y-8117722D02*
X4265777Y-8098674D01*
X4265777Y-8098674D02*
X4246730Y-8089150D01*
X4246730Y-8089150D02*
X4218158Y-8089150D01*
X4218158Y-8089150D02*
X4199111Y-8098674D01*
X4199111Y-8098674D02*
X4189587Y-8108198D01*
X4399111Y-8222484D02*
X4380063Y-8212960D01*
X4380063Y-8212960D02*
X4370539Y-8203436D01*
X4370539Y-8203436D02*
X4361015Y-8184388D01*
X4361015Y-8184388D02*
X4361015Y-8127246D01*
X4361015Y-8127246D02*
X4370539Y-8108198D01*
X4370539Y-8108198D02*
X4380063Y-8098674D01*
X4380063Y-8098674D02*
X4399111Y-8089150D01*
X4399111Y-8089150D02*
X4427682Y-8089150D01*
X4427682Y-8089150D02*
X4446730Y-8098674D01*
X4446730Y-8098674D02*
X4456253Y-8108198D01*
X4456253Y-8108198D02*
X4465777Y-8127246D01*
X4465777Y-8127246D02*
X4465777Y-8184388D01*
X4465777Y-8184388D02*
X4456253Y-8203436D01*
X4456253Y-8203436D02*
X4446730Y-8212960D01*
X4446730Y-8212960D02*
X4427682Y-8222484D01*
X4427682Y-8222484D02*
X4399111Y-8222484D01*
X4580063Y-8222484D02*
X4561015Y-8212960D01*
X4561015Y-8212960D02*
X4551492Y-8193912D01*
X4551492Y-8193912D02*
X4551492Y-8022484D01*
X4732444Y-8212960D02*
X4713396Y-8222484D01*
X4713396Y-8222484D02*
X4675301Y-8222484D01*
X4675301Y-8222484D02*
X4656253Y-8212960D01*
X4656253Y-8212960D02*
X4646730Y-8193912D01*
X4646730Y-8193912D02*
X4646730Y-8117722D01*
X4646730Y-8117722D02*
X4656253Y-8098674D01*
X4656253Y-8098674D02*
X4675301Y-8089150D01*
X4675301Y-8089150D02*
X4713396Y-8089150D01*
X4713396Y-8089150D02*
X4732444Y-8098674D01*
X4732444Y-8098674D02*
X4741968Y-8117722D01*
X4741968Y-8117722D02*
X4741968Y-8136769D01*
X4741968Y-8136769D02*
X4646730Y-8155817D01*
X4818158Y-8212960D02*
X4837206Y-8222484D01*
X4837206Y-8222484D02*
X4875301Y-8222484D01*
X4875301Y-8222484D02*
X4894349Y-8212960D01*
X4894349Y-8212960D02*
X4903873Y-8193912D01*
X4903873Y-8193912D02*
X4903873Y-8184388D01*
X4903873Y-8184388D02*
X4894349Y-8165341D01*
X4894349Y-8165341D02*
X4875301Y-8155817D01*
X4875301Y-8155817D02*
X4846730Y-8155817D01*
X4846730Y-8155817D02*
X4827682Y-8146293D01*
X4827682Y-8146293D02*
X4818158Y-8127246D01*
X4818158Y-8127246D02*
X4818158Y-8117722D01*
X4818158Y-8117722D02*
X4827682Y-8098674D01*
X4827682Y-8098674D02*
X4846730Y-8089150D01*
X4846730Y-8089150D02*
X4875301Y-8089150D01*
X4875301Y-8089150D02*
X4894349Y-8098674D01*
X4970539Y-8298674D02*
X4980063Y-8289150D01*
X4980063Y-8289150D02*
X4999111Y-8260579D01*
X4999111Y-8260579D02*
X5008634Y-8241531D01*
X5008634Y-8241531D02*
X5018158Y-8212960D01*
X5018158Y-8212960D02*
X5027682Y-8165341D01*
X5027682Y-8165341D02*
X5027682Y-8127246D01*
X5027682Y-8127246D02*
X5018158Y-8079627D01*
X5018158Y-8079627D02*
X5008634Y-8051055D01*
X5008634Y-8051055D02*
X4999111Y-8032008D01*
X4999111Y-8032008D02*
X4980063Y-8003436D01*
X4980063Y-8003436D02*
X4970539Y-7993912D01*
X5000Y-8395000D02*
G75*
G02*
X-195000Y-8395000I-100000J0D01*
G01*
X-195000Y-8395000D02*
G75*
G02*
X5000Y-8395000I100000J0D01*
G01*
X361015Y-8286484D02*
X265777Y-8286484D01*
X265777Y-8286484D02*
X256253Y-8381722D01*
X256253Y-8381722D02*
X265777Y-8372198D01*
X265777Y-8372198D02*
X284824Y-8362674D01*
X284824Y-8362674D02*
X332444Y-8362674D01*
X332444Y-8362674D02*
X351491Y-8372198D01*
X351491Y-8372198D02*
X361015Y-8381722D01*
X361015Y-8381722D02*
X370539Y-8400770D01*
X370539Y-8400770D02*
X370539Y-8448389D01*
X370539Y-8448389D02*
X361015Y-8467436D01*
X361015Y-8467436D02*
X351491Y-8476960D01*
X351491Y-8476960D02*
X332444Y-8486484D01*
X332444Y-8486484D02*
X284824Y-8486484D01*
X284824Y-8486484D02*
X265777Y-8476960D01*
X265777Y-8476960D02*
X256253Y-8467436D01*
X456253Y-8467436D02*
X465777Y-8476960D01*
X465777Y-8476960D02*
X456253Y-8486484D01*
X456253Y-8486484D02*
X446729Y-8476960D01*
X446729Y-8476960D02*
X456253Y-8467436D01*
X456253Y-8467436D02*
X456253Y-8486484D01*
X589586Y-8286484D02*
X608634Y-8286484D01*
X608634Y-8286484D02*
X627682Y-8296008D01*
X627682Y-8296008D02*
X637205Y-8305531D01*
X637205Y-8305531D02*
X646729Y-8324579D01*
X646729Y-8324579D02*
X656253Y-8362674D01*
X656253Y-8362674D02*
X656253Y-8410293D01*
X656253Y-8410293D02*
X646729Y-8448389D01*
X646729Y-8448389D02*
X637205Y-8467436D01*
X637205Y-8467436D02*
X627682Y-8476960D01*
X627682Y-8476960D02*
X608634Y-8486484D01*
X608634Y-8486484D02*
X589586Y-8486484D01*
X589586Y-8486484D02*
X570539Y-8476960D01*
X570539Y-8476960D02*
X561015Y-8467436D01*
X561015Y-8467436D02*
X551491Y-8448389D01*
X551491Y-8448389D02*
X541967Y-8410293D01*
X541967Y-8410293D02*
X541967Y-8362674D01*
X541967Y-8362674D02*
X551491Y-8324579D01*
X551491Y-8324579D02*
X561015Y-8305531D01*
X561015Y-8305531D02*
X570539Y-8296008D01*
X570539Y-8296008D02*
X589586Y-8286484D01*
X780062Y-8286484D02*
X799110Y-8286484D01*
X799110Y-8286484D02*
X818158Y-8296008D01*
X818158Y-8296008D02*
X827682Y-8305531D01*
X827682Y-8305531D02*
X837205Y-8324579D01*
X837205Y-8324579D02*
X846729Y-8362674D01*
X846729Y-8362674D02*
X846729Y-8410293D01*
X846729Y-8410293D02*
X837205Y-8448389D01*
X837205Y-8448389D02*
X827682Y-8467436D01*
X827682Y-8467436D02*
X818158Y-8476960D01*
X818158Y-8476960D02*
X799110Y-8486484D01*
X799110Y-8486484D02*
X780062Y-8486484D01*
X780062Y-8486484D02*
X761015Y-8476960D01*
X761015Y-8476960D02*
X751491Y-8467436D01*
X751491Y-8467436D02*
X741967Y-8448389D01*
X741967Y-8448389D02*
X732443Y-8410293D01*
X732443Y-8410293D02*
X732443Y-8362674D01*
X732443Y-8362674D02*
X741967Y-8324579D01*
X741967Y-8324579D02*
X751491Y-8305531D01*
X751491Y-8305531D02*
X761015Y-8296008D01*
X761015Y-8296008D02*
X780062Y-8286484D01*
X970539Y-8286484D02*
X989586Y-8286484D01*
X989586Y-8286484D02*
X1008634Y-8296008D01*
X1008634Y-8296008D02*
X1018158Y-8305531D01*
X1018158Y-8305531D02*
X1027682Y-8324579D01*
X1027682Y-8324579D02*
X1037205Y-8362674D01*
X1037205Y-8362674D02*
X1037205Y-8410293D01*
X1037205Y-8410293D02*
X1027682Y-8448389D01*
X1027682Y-8448389D02*
X1018158Y-8467436D01*
X1018158Y-8467436D02*
X1008634Y-8476960D01*
X1008634Y-8476960D02*
X989586Y-8486484D01*
X989586Y-8486484D02*
X970539Y-8486484D01*
X970539Y-8486484D02*
X951491Y-8476960D01*
X951491Y-8476960D02*
X941967Y-8467436D01*
X941967Y-8467436D02*
X932443Y-8448389D01*
X932443Y-8448389D02*
X922920Y-8410293D01*
X922920Y-8410293D02*
X922920Y-8362674D01*
X922920Y-8362674D02*
X932443Y-8324579D01*
X932443Y-8324579D02*
X941967Y-8305531D01*
X941967Y-8305531D02*
X951491Y-8296008D01*
X951491Y-8296008D02*
X970539Y-8286484D01*
X1122920Y-8486484D02*
X1122920Y-8353150D01*
X1122920Y-8372198D02*
X1132444Y-8362674D01*
X1132444Y-8362674D02*
X1151491Y-8353150D01*
X1151491Y-8353150D02*
X1180063Y-8353150D01*
X1180063Y-8353150D02*
X1199110Y-8362674D01*
X1199110Y-8362674D02*
X1208634Y-8381722D01*
X1208634Y-8381722D02*
X1208634Y-8486484D01*
X1208634Y-8381722D02*
X1218158Y-8362674D01*
X1218158Y-8362674D02*
X1237205Y-8353150D01*
X1237205Y-8353150D02*
X1265777Y-8353150D01*
X1265777Y-8353150D02*
X1284825Y-8362674D01*
X1284825Y-8362674D02*
X1294348Y-8381722D01*
X1294348Y-8381722D02*
X1294348Y-8486484D01*
X1389586Y-8486484D02*
X1389586Y-8353150D01*
X1389586Y-8372198D02*
X1399110Y-8362674D01*
X1399110Y-8362674D02*
X1418158Y-8353150D01*
X1418158Y-8353150D02*
X1446729Y-8353150D01*
X1446729Y-8353150D02*
X1465777Y-8362674D01*
X1465777Y-8362674D02*
X1475301Y-8381722D01*
X1475301Y-8381722D02*
X1475301Y-8486484D01*
X1475301Y-8381722D02*
X1484824Y-8362674D01*
X1484824Y-8362674D02*
X1503872Y-8353150D01*
X1503872Y-8353150D02*
X1532443Y-8353150D01*
X1532443Y-8353150D02*
X1551491Y-8362674D01*
X1551491Y-8362674D02*
X1561015Y-8381722D01*
X1561015Y-8381722D02*
X1561015Y-8486484D01*
X1951491Y-8276960D02*
X1780063Y-8534103D01*
X2208634Y-8286484D02*
X2227682Y-8286484D01*
X2227682Y-8286484D02*
X2246729Y-8296008D01*
X2246729Y-8296008D02*
X2256253Y-8305531D01*
X2256253Y-8305531D02*
X2265777Y-8324579D01*
X2265777Y-8324579D02*
X2275301Y-8362674D01*
X2275301Y-8362674D02*
X2275301Y-8410293D01*
X2275301Y-8410293D02*
X2265777Y-8448389D01*
X2265777Y-8448389D02*
X2256253Y-8467436D01*
X2256253Y-8467436D02*
X2246729Y-8476960D01*
X2246729Y-8476960D02*
X2227682Y-8486484D01*
X2227682Y-8486484D02*
X2208634Y-8486484D01*
X2208634Y-8486484D02*
X2189587Y-8476960D01*
X2189587Y-8476960D02*
X2180063Y-8467436D01*
X2180063Y-8467436D02*
X2170539Y-8448389D01*
X2170539Y-8448389D02*
X2161015Y-8410293D01*
X2161015Y-8410293D02*
X2161015Y-8362674D01*
X2161015Y-8362674D02*
X2170539Y-8324579D01*
X2170539Y-8324579D02*
X2180063Y-8305531D01*
X2180063Y-8305531D02*
X2189587Y-8296008D01*
X2189587Y-8296008D02*
X2208634Y-8286484D01*
X2361015Y-8467436D02*
X2370539Y-8476960D01*
X2370539Y-8476960D02*
X2361015Y-8486484D01*
X2361015Y-8486484D02*
X2351491Y-8476960D01*
X2351491Y-8476960D02*
X2361015Y-8467436D01*
X2361015Y-8467436D02*
X2361015Y-8486484D01*
X2561015Y-8486484D02*
X2446729Y-8486484D01*
X2503872Y-8486484D02*
X2503872Y-8286484D01*
X2503872Y-8286484D02*
X2484825Y-8315055D01*
X2484825Y-8315055D02*
X2465777Y-8334103D01*
X2465777Y-8334103D02*
X2446729Y-8343627D01*
X2656253Y-8486484D02*
X2694348Y-8486484D01*
X2694348Y-8486484D02*
X2713396Y-8476960D01*
X2713396Y-8476960D02*
X2722920Y-8467436D01*
X2722920Y-8467436D02*
X2741968Y-8438865D01*
X2741968Y-8438865D02*
X2751491Y-8400770D01*
X2751491Y-8400770D02*
X2751491Y-8324579D01*
X2751491Y-8324579D02*
X2741968Y-8305531D01*
X2741968Y-8305531D02*
X2732444Y-8296008D01*
X2732444Y-8296008D02*
X2713396Y-8286484D01*
X2713396Y-8286484D02*
X2675301Y-8286484D01*
X2675301Y-8286484D02*
X2656253Y-8296008D01*
X2656253Y-8296008D02*
X2646729Y-8305531D01*
X2646729Y-8305531D02*
X2637206Y-8324579D01*
X2637206Y-8324579D02*
X2637206Y-8372198D01*
X2637206Y-8372198D02*
X2646729Y-8391246D01*
X2646729Y-8391246D02*
X2656253Y-8400770D01*
X2656253Y-8400770D02*
X2675301Y-8410293D01*
X2675301Y-8410293D02*
X2713396Y-8410293D01*
X2713396Y-8410293D02*
X2732444Y-8400770D01*
X2732444Y-8400770D02*
X2741968Y-8391246D01*
X2741968Y-8391246D02*
X2751491Y-8372198D01*
X2922920Y-8286484D02*
X2884825Y-8286484D01*
X2884825Y-8286484D02*
X2865777Y-8296008D01*
X2865777Y-8296008D02*
X2856253Y-8305531D01*
X2856253Y-8305531D02*
X2837206Y-8334103D01*
X2837206Y-8334103D02*
X2827682Y-8372198D01*
X2827682Y-8372198D02*
X2827682Y-8448389D01*
X2827682Y-8448389D02*
X2837206Y-8467436D01*
X2837206Y-8467436D02*
X2846729Y-8476960D01*
X2846729Y-8476960D02*
X2865777Y-8486484D01*
X2865777Y-8486484D02*
X2903872Y-8486484D01*
X2903872Y-8486484D02*
X2922920Y-8476960D01*
X2922920Y-8476960D02*
X2932444Y-8467436D01*
X2932444Y-8467436D02*
X2941967Y-8448389D01*
X2941967Y-8448389D02*
X2941967Y-8400770D01*
X2941967Y-8400770D02*
X2932444Y-8381722D01*
X2932444Y-8381722D02*
X2922920Y-8372198D01*
X2922920Y-8372198D02*
X2903872Y-8362674D01*
X2903872Y-8362674D02*
X2865777Y-8362674D01*
X2865777Y-8362674D02*
X2846729Y-8372198D01*
X2846729Y-8372198D02*
X2837206Y-8381722D01*
X2837206Y-8381722D02*
X2827682Y-8400770D01*
X3037206Y-8486484D02*
X3075301Y-8486484D01*
X3075301Y-8486484D02*
X3094348Y-8476960D01*
X3094348Y-8476960D02*
X3103872Y-8467436D01*
X3103872Y-8467436D02*
X3122920Y-8438865D01*
X3122920Y-8438865D02*
X3132444Y-8400770D01*
X3132444Y-8400770D02*
X3132444Y-8324579D01*
X3132444Y-8324579D02*
X3122920Y-8305531D01*
X3122920Y-8305531D02*
X3113396Y-8296008D01*
X3113396Y-8296008D02*
X3094348Y-8286484D01*
X3094348Y-8286484D02*
X3056253Y-8286484D01*
X3056253Y-8286484D02*
X3037206Y-8296008D01*
X3037206Y-8296008D02*
X3027682Y-8305531D01*
X3027682Y-8305531D02*
X3018158Y-8324579D01*
X3018158Y-8324579D02*
X3018158Y-8372198D01*
X3018158Y-8372198D02*
X3027682Y-8391246D01*
X3027682Y-8391246D02*
X3037206Y-8400770D01*
X3037206Y-8400770D02*
X3056253Y-8410293D01*
X3056253Y-8410293D02*
X3094348Y-8410293D01*
X3094348Y-8410293D02*
X3113396Y-8400770D01*
X3113396Y-8400770D02*
X3122920Y-8391246D01*
X3122920Y-8391246D02*
X3132444Y-8372198D01*
X3208634Y-8286484D02*
X3208634Y-8324579D01*
X3284825Y-8286484D02*
X3284825Y-8324579D01*
X3580063Y-8562674D02*
X3570539Y-8553150D01*
X3570539Y-8553150D02*
X3551491Y-8524579D01*
X3551491Y-8524579D02*
X3541968Y-8505531D01*
X3541968Y-8505531D02*
X3532444Y-8476960D01*
X3532444Y-8476960D02*
X3522920Y-8429341D01*
X3522920Y-8429341D02*
X3522920Y-8391246D01*
X3522920Y-8391246D02*
X3532444Y-8343627D01*
X3532444Y-8343627D02*
X3541968Y-8315055D01*
X3541968Y-8315055D02*
X3551491Y-8296008D01*
X3551491Y-8296008D02*
X3570539Y-8267436D01*
X3570539Y-8267436D02*
X3580063Y-8257912D01*
X3646729Y-8305531D02*
X3656253Y-8296008D01*
X3656253Y-8296008D02*
X3675301Y-8286484D01*
X3675301Y-8286484D02*
X3722920Y-8286484D01*
X3722920Y-8286484D02*
X3741968Y-8296008D01*
X3741968Y-8296008D02*
X3751491Y-8305531D01*
X3751491Y-8305531D02*
X3761015Y-8324579D01*
X3761015Y-8324579D02*
X3761015Y-8343627D01*
X3761015Y-8343627D02*
X3751491Y-8372198D01*
X3751491Y-8372198D02*
X3637206Y-8486484D01*
X3637206Y-8486484D02*
X3761015Y-8486484D01*
X3999110Y-8486484D02*
X3999110Y-8286484D01*
X4084825Y-8486484D02*
X4084825Y-8381722D01*
X4084825Y-8381722D02*
X4075301Y-8362674D01*
X4075301Y-8362674D02*
X4056253Y-8353150D01*
X4056253Y-8353150D02*
X4027682Y-8353150D01*
X4027682Y-8353150D02*
X4008634Y-8362674D01*
X4008634Y-8362674D02*
X3999110Y-8372198D01*
X4208634Y-8486484D02*
X4189587Y-8476960D01*
X4189587Y-8476960D02*
X4180063Y-8467436D01*
X4180063Y-8467436D02*
X4170539Y-8448389D01*
X4170539Y-8448389D02*
X4170539Y-8391246D01*
X4170539Y-8391246D02*
X4180063Y-8372198D01*
X4180063Y-8372198D02*
X4189587Y-8362674D01*
X4189587Y-8362674D02*
X4208634Y-8353150D01*
X4208634Y-8353150D02*
X4237206Y-8353150D01*
X4237206Y-8353150D02*
X4256253Y-8362674D01*
X4256253Y-8362674D02*
X4265777Y-8372198D01*
X4265777Y-8372198D02*
X4275301Y-8391246D01*
X4275301Y-8391246D02*
X4275301Y-8448389D01*
X4275301Y-8448389D02*
X4265777Y-8467436D01*
X4265777Y-8467436D02*
X4256253Y-8476960D01*
X4256253Y-8476960D02*
X4237206Y-8486484D01*
X4237206Y-8486484D02*
X4208634Y-8486484D01*
X4389587Y-8486484D02*
X4370539Y-8476960D01*
X4370539Y-8476960D02*
X4361015Y-8457912D01*
X4361015Y-8457912D02*
X4361015Y-8286484D01*
X4541968Y-8476960D02*
X4522920Y-8486484D01*
X4522920Y-8486484D02*
X4484825Y-8486484D01*
X4484825Y-8486484D02*
X4465777Y-8476960D01*
X4465777Y-8476960D02*
X4456253Y-8457912D01*
X4456253Y-8457912D02*
X4456253Y-8381722D01*
X4456253Y-8381722D02*
X4465777Y-8362674D01*
X4465777Y-8362674D02*
X4484825Y-8353150D01*
X4484825Y-8353150D02*
X4522920Y-8353150D01*
X4522920Y-8353150D02*
X4541968Y-8362674D01*
X4541968Y-8362674D02*
X4551492Y-8381722D01*
X4551492Y-8381722D02*
X4551492Y-8400770D01*
X4551492Y-8400770D02*
X4456253Y-8419817D01*
X4627682Y-8476960D02*
X4646730Y-8486484D01*
X4646730Y-8486484D02*
X4684825Y-8486484D01*
X4684825Y-8486484D02*
X4703873Y-8476960D01*
X4703873Y-8476960D02*
X4713396Y-8457912D01*
X4713396Y-8457912D02*
X4713396Y-8448389D01*
X4713396Y-8448389D02*
X4703873Y-8429341D01*
X4703873Y-8429341D02*
X4684825Y-8419817D01*
X4684825Y-8419817D02*
X4656253Y-8419817D01*
X4656253Y-8419817D02*
X4637206Y-8410293D01*
X4637206Y-8410293D02*
X4627682Y-8391246D01*
X4627682Y-8391246D02*
X4627682Y-8381722D01*
X4627682Y-8381722D02*
X4637206Y-8362674D01*
X4637206Y-8362674D02*
X4656253Y-8353150D01*
X4656253Y-8353150D02*
X4684825Y-8353150D01*
X4684825Y-8353150D02*
X4703873Y-8362674D01*
X4780063Y-8562674D02*
X4789587Y-8553150D01*
X4789587Y-8553150D02*
X4808634Y-8524579D01*
X4808634Y-8524579D02*
X4818158Y-8505531D01*
X4818158Y-8505531D02*
X4827682Y-8476960D01*
X4827682Y-8476960D02*
X4837206Y-8429341D01*
X4837206Y-8429341D02*
X4837206Y-8391246D01*
X4837206Y-8391246D02*
X4827682Y-8343627D01*
X4827682Y-8343627D02*
X4818158Y-8315055D01*
X4818158Y-8315055D02*
X4808634Y-8296008D01*
X4808634Y-8296008D02*
X4789587Y-8267436D01*
X4789587Y-8267436D02*
X4780063Y-8257912D01*
M02*
