%TF.GenerationSoftware,KiCad,Pcbnew,9.0.1*%
%TF.CreationDate,2025-08-01T20:40:54+02:00*%
%TF.ProjectId,monaco-gp-22,6d6f6e61-636f-42d6-9770-2d32322e6b69,rev?*%
%TF.SameCoordinates,Original*%
%TF.FileFunction,Copper,L1,Top*%
%TF.FilePolarity,Positive*%
%FSLAX46Y46*%
G04 Gerber Fmt 4.6, Leading zero omitted, Abs format (unit mm)*
G04 Created by KiCad (PCBNEW 9.0.1) date 2025-08-01 20:40:54*
%MOMM*%
%LPD*%
G01*
G04 APERTURE LIST*
%TA.AperFunction,ConnectorPad*%
%ADD10R,2.540000X12.000000*%
%TD*%
%TA.AperFunction,ViaPad*%
%ADD11C,1.200000*%
%TD*%
%TA.AperFunction,ViaPad*%
%ADD12C,6.000000*%
%TD*%
%TA.AperFunction,Conductor*%
%ADD13C,1.200000*%
%TD*%
G04 APERTURE END LIST*
D10*
%TO.P,E1,23,Pin_23*%
%TO.N,/X23*%
X9210000Y-68690000D03*
%TO.P,E1,24,Pin_24*%
%TO.N,/X24*%
X13170000Y-68690000D03*
%TO.P,E1,25,Pin_25*%
%TO.N,/X25*%
X17130000Y-68690000D03*
%TO.P,E1,26,Pin_26*%
%TO.N,/X26*%
X21090000Y-68690000D03*
%TO.P,E1,27,Pin_27*%
%TO.N,unconnected-(E1-Pin_27-Pad27)*%
X25050000Y-68690000D03*
%TO.P,E1,28,Pin_28*%
%TO.N,/X28*%
X29010000Y-68690000D03*
%TO.P,E1,29,Pin_29*%
%TO.N,/X29*%
X32970000Y-68690000D03*
%TO.P,E1,30,Pin_30*%
%TO.N,/X30*%
X36930000Y-68690000D03*
%TO.P,E1,31,Pin_31*%
%TO.N,/X31*%
X40890000Y-68690000D03*
%TO.P,E1,32,Pin_32*%
%TO.N,unconnected-(E1-Pin_32-Pad32)*%
X44850000Y-68690000D03*
%TO.P,E1,33,Pin_33*%
%TO.N,/X33*%
X48810000Y-68690000D03*
%TO.P,E1,34,Pin_34*%
%TO.N,/X34*%
X52770000Y-68690000D03*
%TO.P,E1,35,Pin_35*%
%TO.N,unconnected-(E1-Pin_35-Pad35)*%
X56730000Y-68690000D03*
%TO.P,E1,36,Pin_36*%
%TO.N,/X36*%
X60690000Y-68690000D03*
%TO.P,E1,37,Pin_37*%
%TO.N,/X37*%
X64650000Y-68690000D03*
%TO.P,E1,38,Pin_38*%
%TO.N,/X38*%
X68610000Y-68690000D03*
%TO.P,E1,39,Pin_39*%
%TO.N,/X39*%
X72570000Y-68690000D03*
%TO.P,E1,40,Pin_40*%
%TO.N,/X40*%
X76530000Y-68690000D03*
%TO.P,E1,41,Pin_41*%
%TO.N,/X41*%
X80490000Y-68690000D03*
%TO.P,E1,42,Pin_42*%
%TO.N,/X42*%
X84450000Y-68690000D03*
%TO.P,E1,43,Pin_43*%
%TO.N,/X43*%
X88410000Y-68690000D03*
%TO.P,E1,44,Pin_44*%
%TO.N,/X44*%
X92370000Y-68690000D03*
%TD*%
%TO.P,B1,1,Pin_1*%
%TO.N,/X1*%
X9213000Y-6677000D03*
%TO.P,B1,2,Pin_2*%
%TO.N,/X2*%
X13173000Y-6677000D03*
%TO.P,B1,3,Pin_3*%
%TO.N,/X3*%
X17133000Y-6677000D03*
%TO.P,B1,4,Pin_4*%
%TO.N,/X4*%
X21093000Y-6677000D03*
%TO.P,B1,5,Pin_5*%
%TO.N,unconnected-(B1-Pin_5-Pad5)*%
X25053000Y-6677000D03*
%TO.P,B1,6,Pin_6*%
%TO.N,/X6*%
X29013000Y-6677000D03*
%TO.P,B1,7,Pin_7*%
%TO.N,/X7*%
X32973000Y-6677000D03*
%TO.P,B1,8,Pin_8*%
%TO.N,/X8*%
X36933000Y-6677000D03*
%TO.P,B1,9,Pin_9*%
%TO.N,/X9*%
X40893000Y-6677000D03*
%TO.P,B1,10,Pin_10*%
%TO.N,/X10*%
X44853000Y-6677000D03*
%TO.P,B1,11,Pin_11*%
%TO.N,unconnected-(B1-Pin_11-Pad11)*%
X48813000Y-6677000D03*
%TO.P,B1,12,Pin_12*%
%TO.N,/X12*%
X52773000Y-6677000D03*
%TO.P,B1,13,Pin_13*%
%TO.N,unconnected-(B1-Pin_13-Pad13)*%
X56733000Y-6677000D03*
%TO.P,B1,14,Pin_14*%
%TO.N,/X14*%
X60693000Y-6677000D03*
%TO.P,B1,15,Pin_15*%
%TO.N,/X15*%
X64653000Y-6677000D03*
%TO.P,B1,16,Pin_16*%
%TO.N,/X16*%
X68613000Y-6677000D03*
%TO.P,B1,17,Pin_17*%
%TO.N,/X22*%
X72573000Y-6677000D03*
%TO.P,B1,18,Pin_18*%
%TO.N,/X44*%
X76533000Y-6677000D03*
%TO.P,B1,19,Pin_19*%
%TO.N,/X17*%
X80493000Y-6677000D03*
%TO.P,B1,20,Pin_20*%
%TO.N,/X18*%
X84453000Y-6677000D03*
%TO.P,B1,21,Pin_21*%
%TO.N,/X19*%
X88413000Y-6677000D03*
%TO.P,B1,22,Pin_22*%
%TO.N,/X20*%
X92373000Y-6677000D03*
%TD*%
D11*
%TO.N,/X43*%
X89400000Y-49860000D03*
%TO.N,/X15*%
X64650000Y-53860000D03*
%TO.N,/X44*%
X91380000Y-49860000D03*
D12*
%TO.N,*%
X96500000Y-46860000D03*
X5000000Y-46607000D03*
D11*
%TO.N,/X22*%
X72573000Y-32860000D03*
%TO.N,/X37*%
X66630000Y-53880000D03*
%TO.N,/X12*%
X52770000Y-53860000D03*
%TO.N,/X23*%
X11190000Y-53860000D03*
%TO.N,/X18*%
X78510000Y-53860000D03*
%TO.N,/X36*%
X62670000Y-53880000D03*
%TO.N,/X31*%
X42870000Y-53860000D03*
%TO.N,/X42*%
X91385000Y-43865000D03*
%TO.N,/X1*%
X9210000Y-53860000D03*
%TO.N,/X41*%
X88410000Y-16860000D03*
%TO.N,/X39*%
X80490000Y-32860000D03*
%TO.N,/X9*%
X40890000Y-53860000D03*
%TO.N,/X19*%
X82470000Y-53860000D03*
%TO.N,/X44*%
X76530000Y-32860000D03*
%TO.N,/X3*%
X17130000Y-53860000D03*
%TO.N,/X28*%
X30990000Y-53860000D03*
%TO.N,/X24*%
X15150000Y-53860000D03*
%TO.N,/X34*%
X54750000Y-53860000D03*
%TO.N,/X14*%
X60690000Y-53860000D03*
%TO.N,/X38*%
X78510000Y-16860000D03*
%TO.N,/X20*%
X84450000Y-53860000D03*
%TO.N,/X40*%
X84450000Y-16860000D03*
%TO.N,/X30*%
X38910000Y-53860000D03*
%TO.N,/X10*%
X44850000Y-53860000D03*
%TO.N,/X4*%
X21090000Y-53860000D03*
%TO.N,/X6*%
X29010000Y-53860000D03*
%TO.N,/X33*%
X48810000Y-53860000D03*
%TO.N,/X17*%
X74550000Y-53860000D03*
%TO.N,/X25*%
X19110000Y-53860000D03*
%TO.N,/X29*%
X34950000Y-53860000D03*
%TO.N,/X2*%
X13170000Y-53860000D03*
%TO.N,/X8*%
X36930000Y-53860000D03*
%TO.N,/X16*%
X68610000Y-53860000D03*
%TO.N,/X7*%
X32970000Y-53860000D03*
%TO.N,/X26*%
X23070000Y-53880000D03*
%TD*%
D13*
%TO.N,/X44*%
X91380000Y-59860000D02*
X92370000Y-60850000D01*
X91380000Y-49860000D02*
X91380000Y-59860000D01*
X92370000Y-60850000D02*
X92370000Y-68690000D01*
%TO.N,/X1*%
X11190000Y-44860000D02*
X9213000Y-42883000D01*
X11190000Y-48883000D02*
X11190000Y-44860000D01*
X9213000Y-50860000D02*
X11190000Y-48883000D01*
X9213000Y-53857000D02*
X9213000Y-50860000D01*
X9210000Y-53860000D02*
X9213000Y-53857000D01*
X9213000Y-42883000D02*
X9213000Y-6677000D01*
%TO.N,/X23*%
X9210000Y-56350000D02*
X9210000Y-68690000D01*
X11190000Y-53860000D02*
X11190000Y-54370000D01*
X11190000Y-54370000D02*
X9210000Y-56350000D01*
%TO.N,/X2*%
X13173000Y-52857000D02*
X13173000Y-6677000D01*
X13170000Y-52860000D02*
X13173000Y-52857000D01*
X13170000Y-53860000D02*
X13170000Y-52860000D01*
%TO.N,/X24*%
X13170000Y-56855000D02*
X13170000Y-68690000D01*
X15150000Y-53860000D02*
X15150000Y-54875000D01*
X15150000Y-54875000D02*
X13170000Y-56855000D01*
%TO.N,/X3*%
X17130000Y-52860000D02*
X17133000Y-52857000D01*
X17130000Y-53860000D02*
X17130000Y-52860000D01*
X17133000Y-52857000D02*
X17133000Y-6677000D01*
%TO.N,/X25*%
X17130000Y-56850000D02*
X17130000Y-68690000D01*
X19110000Y-53860000D02*
X19110000Y-54870000D01*
X19110000Y-54870000D02*
X17130000Y-56850000D01*
%TO.N,/X4*%
X21093000Y-52857000D02*
X21093000Y-6677000D01*
X21090000Y-53860000D02*
X21090000Y-52860000D01*
X21090000Y-52860000D02*
X21093000Y-52857000D01*
%TO.N,/X26*%
X23070000Y-54875000D02*
X21090000Y-56855000D01*
X23070000Y-53880000D02*
X23070000Y-54875000D01*
X21090000Y-56855000D02*
X21090000Y-68690000D01*
%TO.N,/X6*%
X29013000Y-52857000D02*
X29013000Y-6677000D01*
X29010000Y-53860000D02*
X29010000Y-52860000D01*
X29010000Y-52860000D02*
X29013000Y-52857000D01*
%TO.N,/X28*%
X29010000Y-56855000D02*
X29010000Y-68690000D01*
X30990000Y-54875000D02*
X29010000Y-56855000D01*
X30990000Y-53860000D02*
X30990000Y-54875000D01*
%TO.N,/X7*%
X32970000Y-53860000D02*
X32970000Y-52860000D01*
X32973000Y-52857000D02*
X32973000Y-6677000D01*
X32970000Y-52860000D02*
X32973000Y-52857000D01*
%TO.N,/X29*%
X34950000Y-54870000D02*
X32970000Y-56850000D01*
X34950000Y-53860000D02*
X34950000Y-54870000D01*
X32970000Y-56850000D02*
X32970000Y-68690000D01*
%TO.N,/X8*%
X36933000Y-52857000D02*
X36933000Y-6677000D01*
X36930000Y-53860000D02*
X36930000Y-52860000D01*
X36930000Y-52860000D02*
X36933000Y-52857000D01*
%TO.N,/X30*%
X36930000Y-56855000D02*
X36930000Y-68690000D01*
X38910000Y-53860000D02*
X38910000Y-54875000D01*
X38910000Y-54875000D02*
X36930000Y-56855000D01*
%TO.N,/X9*%
X40890000Y-53860000D02*
X40890000Y-52860000D01*
X40890000Y-52860000D02*
X40893000Y-52857000D01*
X40893000Y-52857000D02*
X40893000Y-6677000D01*
%TO.N,/X31*%
X42870000Y-54875000D02*
X40890000Y-56855000D01*
X40890000Y-56855000D02*
X40890000Y-68690000D01*
X42870000Y-53860000D02*
X42870000Y-54875000D01*
%TO.N,/X10*%
X44853000Y-52857000D02*
X44853000Y-6677000D01*
X44850000Y-53860000D02*
X44850000Y-52860000D01*
X44850000Y-52860000D02*
X44853000Y-52857000D01*
%TO.N,/X33*%
X48810000Y-53860000D02*
X48810000Y-68690000D01*
%TO.N,/X12*%
X52770000Y-52860000D02*
X52773000Y-52857000D01*
X52773000Y-52857000D02*
X52773000Y-6677000D01*
X52770000Y-53860000D02*
X52770000Y-52860000D01*
%TO.N,/X34*%
X52770000Y-56850000D02*
X52770000Y-68690000D01*
X54750000Y-54870000D02*
X52770000Y-56850000D01*
X54750000Y-53860000D02*
X54750000Y-54870000D01*
%TO.N,/X14*%
X60693000Y-52857000D02*
X60693000Y-6677000D01*
X60690000Y-52860000D02*
X60693000Y-52857000D01*
X60690000Y-53860000D02*
X60690000Y-52860000D01*
%TO.N,/X15*%
X64653000Y-52857000D02*
X64653000Y-6677000D01*
X64650000Y-52860000D02*
X64653000Y-52857000D01*
X64650000Y-53860000D02*
X64650000Y-52860000D01*
%TO.N,/X36*%
X62670000Y-54875000D02*
X60690000Y-56855000D01*
X60690000Y-56855000D02*
X60690000Y-68690000D01*
X62670000Y-53880000D02*
X62670000Y-54875000D01*
%TO.N,/X37*%
X64650000Y-56855000D02*
X64650000Y-68690000D01*
X66630000Y-54875000D02*
X64650000Y-56855000D01*
X66630000Y-53880000D02*
X66630000Y-54875000D01*
%TO.N,/X16*%
X68613000Y-53857000D02*
X68613000Y-6677000D01*
X68610000Y-53860000D02*
X68613000Y-53857000D01*
%TO.N,/X43*%
X89400000Y-59860000D02*
X89400000Y-49860000D01*
X88410000Y-60850000D02*
X89400000Y-59860000D01*
X88410000Y-68690000D02*
X88410000Y-60850000D01*
%TO.N,/X42*%
X86430000Y-58870000D02*
X84450000Y-60850000D01*
X86430000Y-48820000D02*
X86430000Y-58870000D01*
X84450000Y-60850000D02*
X84450000Y-68690000D01*
X91385000Y-43865000D02*
X86430000Y-48820000D01*
%TO.N,/X38*%
X70214000Y-41440156D02*
X70214000Y-58968000D01*
X78510000Y-33144156D02*
X70214000Y-41440156D01*
X70214000Y-58968000D02*
X68610000Y-60572000D01*
X78510000Y-16860000D02*
X78510000Y-33144156D01*
X68610000Y-60572000D02*
X68610000Y-68690000D01*
%TO.N,/X19*%
X90390000Y-15355000D02*
X88410000Y-13375000D01*
X88410000Y-6680000D02*
X88413000Y-6677000D01*
X90390000Y-38910000D02*
X90390000Y-15355000D01*
X82470000Y-46830000D02*
X90390000Y-38910000D01*
X82470000Y-53860000D02*
X82470000Y-46830000D01*
X88410000Y-13375000D02*
X88410000Y-6680000D01*
%TO.N,/X18*%
X84453000Y-13787000D02*
X84453000Y-6677000D01*
X86430000Y-15764000D02*
X84453000Y-13787000D01*
X86430000Y-36910000D02*
X86430000Y-15764000D01*
X78510000Y-53860000D02*
X78510000Y-44830000D01*
X78510000Y-44830000D02*
X86430000Y-36910000D01*
%TO.N,/X17*%
X82470000Y-15764000D02*
X80493000Y-13787000D01*
X80493000Y-13787000D02*
X80493000Y-6677000D01*
X74550000Y-42830000D02*
X82470000Y-34910000D01*
X74550000Y-53860000D02*
X74550000Y-42830000D01*
X82470000Y-34910000D02*
X82470000Y-15764000D01*
%TO.N,/X41*%
X88410000Y-37910000D02*
X80490000Y-45830000D01*
X88410000Y-16860000D02*
X88410000Y-37910000D01*
X80490000Y-45830000D02*
X80490000Y-68690000D01*
%TO.N,/X40*%
X76530000Y-43830000D02*
X76530000Y-68690000D01*
X84450000Y-35910000D02*
X76530000Y-43830000D01*
X84450000Y-16860000D02*
X84450000Y-35910000D01*
%TO.N,/X20*%
X84450000Y-47840000D02*
X92373000Y-39917000D01*
X84450000Y-53860000D02*
X84450000Y-47840000D01*
X92373000Y-39917000D02*
X92373000Y-6677000D01*
%TO.N,/X22*%
X72573000Y-32860000D02*
X72573000Y-6677000D01*
%TO.N,/X39*%
X80490000Y-33860000D02*
X72570000Y-41780000D01*
X80490000Y-32860000D02*
X80490000Y-33860000D01*
X72570000Y-41780000D02*
X72570000Y-68690000D01*
%TO.N,/X44*%
X76533000Y-32857000D02*
X76530000Y-32860000D01*
X76533000Y-6677000D02*
X76533000Y-32857000D01*
%TD*%
M02*
