%TF.GenerationSoftware,KiCad,Pcbnew,9.0.1*%
%TF.CreationDate,2025-08-01T20:54:46+02:00*%
%TF.ProjectId,monaco-gp-28,6d6f6e61-636f-42d6-9770-2d32382e6b69,rev?*%
%TF.SameCoordinates,Original*%
%TF.FileFunction,Drillmap*%
%TF.FilePolarity,Positive*%
%FSLAX45Y45*%
G04 Gerber Fmt 4.5, Leading zero omitted, Abs format (unit mm)*
G04 Created by KiCad (PCBNEW 9.0.1) date 2025-08-01 20:54:46*
%MOMM*%
%LPD*%
G01*
G04 APERTURE LIST*
%ADD10C,0.500000*%
%ADD11C,0.200000*%
G04 APERTURE END LIST*
D10*
X597300Y-6183000D02*
X30300Y-6183000D01*
X11940000Y-1366000D02*
X12524300Y-1366000D01*
X597000Y-1369000D02*
X30000Y-1369000D01*
X11940300Y-6186000D02*
X12507300Y-6186000D01*
X30300Y-1369000D02*
X30300Y-6183000D01*
X12524300Y-1366000D02*
X12507300Y-6186000D01*
X597000Y-336000D02*
X597000Y-1369000D01*
X847000Y-86000D02*
X11690000Y-86000D01*
X11940000Y-336000D02*
X11940000Y-1366000D01*
X597000Y-336000D02*
G75*
G02*
X847000Y-86000I250000J0D01*
G01*
X11690000Y-86000D02*
G75*
G02*
X11940000Y-336000I0J-250000D01*
G01*
X597300Y-7216000D02*
X597300Y-6183000D01*
X847300Y-7466000D02*
X11690300Y-7466000D01*
X11940300Y-7216000D02*
X11940300Y-6186000D01*
X847300Y-7466000D02*
G75*
G02*
X597300Y-7216000I0J250000D01*
G01*
X11940300Y-7216000D02*
G75*
G02*
X11690300Y-7466000I-250000J0D01*
G01*
D11*
X265777Y-7802484D02*
X265777Y-7602484D01*
X265777Y-7602484D02*
X313396Y-7602484D01*
X313396Y-7602484D02*
X341967Y-7612008D01*
X341967Y-7612008D02*
X361015Y-7631055D01*
X361015Y-7631055D02*
X370539Y-7650103D01*
X370539Y-7650103D02*
X380062Y-7688198D01*
X380062Y-7688198D02*
X380062Y-7716769D01*
X380062Y-7716769D02*
X370539Y-7754865D01*
X370539Y-7754865D02*
X361015Y-7773912D01*
X361015Y-7773912D02*
X341967Y-7792960D01*
X341967Y-7792960D02*
X313396Y-7802484D01*
X313396Y-7802484D02*
X265777Y-7802484D01*
X465777Y-7802484D02*
X465777Y-7669150D01*
X465777Y-7707246D02*
X475301Y-7688198D01*
X475301Y-7688198D02*
X484824Y-7678674D01*
X484824Y-7678674D02*
X503872Y-7669150D01*
X503872Y-7669150D02*
X522920Y-7669150D01*
X589586Y-7802484D02*
X589586Y-7669150D01*
X589586Y-7602484D02*
X580063Y-7612008D01*
X580063Y-7612008D02*
X589586Y-7621531D01*
X589586Y-7621531D02*
X599110Y-7612008D01*
X599110Y-7612008D02*
X589586Y-7602484D01*
X589586Y-7602484D02*
X589586Y-7621531D01*
X713396Y-7802484D02*
X694348Y-7792960D01*
X694348Y-7792960D02*
X684824Y-7773912D01*
X684824Y-7773912D02*
X684824Y-7602484D01*
X818158Y-7802484D02*
X799110Y-7792960D01*
X799110Y-7792960D02*
X789586Y-7773912D01*
X789586Y-7773912D02*
X789586Y-7602484D01*
X1046729Y-7802484D02*
X1046729Y-7602484D01*
X1046729Y-7602484D02*
X1113396Y-7745341D01*
X1113396Y-7745341D02*
X1180063Y-7602484D01*
X1180063Y-7602484D02*
X1180063Y-7802484D01*
X1361015Y-7802484D02*
X1361015Y-7697722D01*
X1361015Y-7697722D02*
X1351491Y-7678674D01*
X1351491Y-7678674D02*
X1332444Y-7669150D01*
X1332444Y-7669150D02*
X1294348Y-7669150D01*
X1294348Y-7669150D02*
X1275301Y-7678674D01*
X1361015Y-7792960D02*
X1341967Y-7802484D01*
X1341967Y-7802484D02*
X1294348Y-7802484D01*
X1294348Y-7802484D02*
X1275301Y-7792960D01*
X1275301Y-7792960D02*
X1265777Y-7773912D01*
X1265777Y-7773912D02*
X1265777Y-7754865D01*
X1265777Y-7754865D02*
X1275301Y-7735817D01*
X1275301Y-7735817D02*
X1294348Y-7726293D01*
X1294348Y-7726293D02*
X1341967Y-7726293D01*
X1341967Y-7726293D02*
X1361015Y-7716769D01*
X1456253Y-7669150D02*
X1456253Y-7869150D01*
X1456253Y-7678674D02*
X1475301Y-7669150D01*
X1475301Y-7669150D02*
X1513396Y-7669150D01*
X1513396Y-7669150D02*
X1532443Y-7678674D01*
X1532443Y-7678674D02*
X1541967Y-7688198D01*
X1541967Y-7688198D02*
X1551491Y-7707246D01*
X1551491Y-7707246D02*
X1551491Y-7764388D01*
X1551491Y-7764388D02*
X1541967Y-7783436D01*
X1541967Y-7783436D02*
X1532443Y-7792960D01*
X1532443Y-7792960D02*
X1513396Y-7802484D01*
X1513396Y-7802484D02*
X1475301Y-7802484D01*
X1475301Y-7802484D02*
X1456253Y-7792960D01*
X1637205Y-7783436D02*
X1646729Y-7792960D01*
X1646729Y-7792960D02*
X1637205Y-7802484D01*
X1637205Y-7802484D02*
X1627682Y-7792960D01*
X1627682Y-7792960D02*
X1637205Y-7783436D01*
X1637205Y-7783436D02*
X1637205Y-7802484D01*
X1637205Y-7678674D02*
X1646729Y-7688198D01*
X1646729Y-7688198D02*
X1637205Y-7697722D01*
X1637205Y-7697722D02*
X1627682Y-7688198D01*
X1627682Y-7688198D02*
X1637205Y-7678674D01*
X1637205Y-7678674D02*
X1637205Y-7697722D01*
M02*
