%TF.GenerationSoftware,KiCad,Pcbnew,9.0.1*%
%TF.CreationDate,2025-07-28T23:24:02+02:00*%
%TF.ProjectId,monaco-gp-22,6d6f6e61-636f-42d6-9770-2d32322e6b69,rev?*%
%TF.SameCoordinates,Original*%
%TF.FileFunction,Legend,Bot*%
%TF.FilePolarity,Positive*%
%FSLAX46Y46*%
G04 Gerber Fmt 4.6, Leading zero omitted, Abs format (unit mm)*
G04 Created by KiCad (PCBNEW 9.0.1) date 2025-07-28 23:24:02*
%MOMM*%
%LPD*%
G01*
G04 APERTURE LIST*
%ADD10C,1.000000*%
%ADD11R,2.540000X12.000000*%
G04 APERTURE END LIST*
D10*
G36*
X7444787Y-19180000D02*
G01*
X7444787Y-18457041D01*
X6176922Y-18457041D01*
X6009998Y-18441641D01*
X5880268Y-18399445D01*
X5779539Y-18333698D01*
X5702847Y-18242742D01*
X5655666Y-18129616D01*
X5638855Y-17987606D01*
X5638855Y-17979546D01*
X5655741Y-17835735D01*
X5702990Y-17721883D01*
X5779539Y-17631011D01*
X5880288Y-17565125D01*
X6010018Y-17522851D01*
X6176922Y-17507424D01*
X7444787Y-17507424D01*
X7444787Y-16784466D01*
X6176922Y-16784466D01*
X6026508Y-16769923D01*
X5909291Y-16729941D01*
X5817885Y-16667229D01*
X5748878Y-16581237D01*
X5706003Y-16473268D01*
X5690635Y-16336769D01*
X5705804Y-16213450D01*
X5748386Y-16115826D01*
X5817885Y-16037815D01*
X5908346Y-15981930D01*
X6025536Y-15945790D01*
X6176922Y-15932547D01*
X7444787Y-15932547D01*
X7444787Y-15209588D01*
X6152498Y-15209588D01*
X5861509Y-15229715D01*
X5620360Y-15285875D01*
X5420454Y-15373657D01*
X5254905Y-15491444D01*
X5118656Y-15642415D01*
X5020074Y-15821258D01*
X4958306Y-16033574D01*
X4936413Y-16287187D01*
X4960320Y-16510882D01*
X5028554Y-16699349D01*
X5140111Y-16860181D01*
X5288806Y-16988671D01*
X5477547Y-17085330D01*
X5715303Y-17148632D01*
X5462528Y-17209386D01*
X5261374Y-17310309D01*
X5102009Y-17450027D01*
X4983840Y-17625752D01*
X4910582Y-17836655D01*
X4884633Y-18092142D01*
X4884633Y-18100202D01*
X4906604Y-18354385D01*
X4968596Y-18567207D01*
X5067552Y-18746510D01*
X5204347Y-18897899D01*
X5370589Y-19015749D01*
X5571391Y-19103614D01*
X5813680Y-19159844D01*
X6106092Y-19180000D01*
X7444787Y-19180000D01*
G37*
G36*
X7772805Y-19180000D02*
G01*
X7772805Y-15209588D01*
X7024200Y-15209588D01*
X7024200Y-19180000D01*
X7772805Y-19180000D01*
G37*
G36*
X4622561Y-19180000D02*
G01*
X3103370Y-15209588D01*
X2627829Y-15209588D01*
X1108639Y-19180000D01*
X1914640Y-19180000D01*
X2865722Y-16468415D01*
X3816559Y-19180000D01*
X4622561Y-19180000D01*
G37*
G36*
X3893007Y-18539106D02*
G01*
X3893007Y-17816147D01*
X1802777Y-17816147D01*
X1802777Y-18539106D01*
X3893007Y-18539106D01*
G37*
G36*
X91647194Y-56370000D02*
G01*
X91647194Y-60340411D01*
X92395799Y-60340411D01*
X92395799Y-56370000D01*
X91647194Y-56370000D01*
G37*
G36*
X91917815Y-56370000D02*
G01*
X91917815Y-57092958D01*
X94308709Y-57092958D01*
X94308709Y-56370000D01*
X91917815Y-56370000D01*
G37*
G36*
X91917815Y-57980048D02*
G01*
X91917815Y-58703007D01*
X94008046Y-58703007D01*
X94008046Y-57980048D01*
X91917815Y-57980048D01*
G37*
G36*
X91917815Y-59617452D02*
G01*
X91917815Y-60340411D01*
X94308709Y-60340411D01*
X94308709Y-59617452D01*
X91917815Y-59617452D01*
G37*
G36*
X94850195Y-56370000D02*
G01*
X94850195Y-57046308D01*
X96213803Y-58839050D01*
X96296976Y-58962525D01*
X96357173Y-59086224D01*
X96395811Y-59212366D01*
X96407732Y-59322651D01*
X96407732Y-59328269D01*
X96380586Y-59473848D01*
X96303928Y-59576908D01*
X96184853Y-59640478D01*
X96008883Y-59664347D01*
X95891972Y-59650265D01*
X95793594Y-59609825D01*
X95709441Y-59542714D01*
X95644939Y-59455200D01*
X95597492Y-59342249D01*
X95569002Y-59197599D01*
X95569002Y-59194912D01*
X94801102Y-59194912D01*
X94801102Y-59197599D01*
X94841110Y-59478255D01*
X94916317Y-59713369D01*
X95023715Y-59910499D01*
X95163070Y-60075408D01*
X95333808Y-60209828D01*
X95527561Y-60306520D01*
X95748740Y-60366387D01*
X96003265Y-60387306D01*
X96284837Y-60367953D01*
X96517999Y-60313982D01*
X96711093Y-60229686D01*
X96870816Y-60116685D01*
X97002394Y-59971518D01*
X97097564Y-59799510D01*
X97157185Y-59595265D01*
X97178318Y-59351228D01*
X97178318Y-59348541D01*
X97154990Y-59080158D01*
X97084040Y-58811207D01*
X96970501Y-58556485D01*
X96820258Y-58328583D01*
X95842065Y-57092958D01*
X97200300Y-57092958D01*
X97200300Y-56370000D01*
X94850195Y-56370000D01*
G37*
G36*
X97742030Y-56370000D02*
G01*
X97742030Y-57046308D01*
X99105638Y-58839050D01*
X99188812Y-58962525D01*
X99249009Y-59086224D01*
X99287647Y-59212366D01*
X99299567Y-59322651D01*
X99299567Y-59328269D01*
X99272422Y-59473848D01*
X99195764Y-59576908D01*
X99076688Y-59640478D01*
X98900718Y-59664347D01*
X98783807Y-59650265D01*
X98685430Y-59609825D01*
X98601277Y-59542714D01*
X98536774Y-59455200D01*
X98489328Y-59342249D01*
X98460837Y-59197599D01*
X98460837Y-59194912D01*
X97692937Y-59194912D01*
X97692937Y-59197599D01*
X97732945Y-59478255D01*
X97808152Y-59713369D01*
X97915550Y-59910499D01*
X98054905Y-60075408D01*
X98225644Y-60209828D01*
X98419396Y-60306520D01*
X98640576Y-60366387D01*
X98895101Y-60387306D01*
X99176672Y-60367953D01*
X99409834Y-60313982D01*
X99602928Y-60229686D01*
X99762651Y-60116685D01*
X99894230Y-59971518D01*
X99989400Y-59799510D01*
X100049020Y-59595265D01*
X100070153Y-59351228D01*
X100070153Y-59348541D01*
X100046826Y-59080158D01*
X99975875Y-58811207D01*
X99862336Y-58556485D01*
X99712093Y-58328583D01*
X98733900Y-57092958D01*
X100092135Y-57092958D01*
X100092135Y-56370000D01*
X97742030Y-56370000D01*
G37*
G36*
X99144787Y-19180000D02*
G01*
X99144787Y-18457041D01*
X97876922Y-18457041D01*
X97709998Y-18441641D01*
X97580268Y-18399445D01*
X97479539Y-18333698D01*
X97402847Y-18242742D01*
X97355666Y-18129616D01*
X97338855Y-17987606D01*
X97338855Y-17979546D01*
X97355741Y-17835735D01*
X97402990Y-17721883D01*
X97479539Y-17631011D01*
X97580288Y-17565125D01*
X97710018Y-17522851D01*
X97876922Y-17507424D01*
X99144787Y-17507424D01*
X99144787Y-16784466D01*
X97876922Y-16784466D01*
X97726508Y-16769923D01*
X97609291Y-16729941D01*
X97517885Y-16667229D01*
X97448878Y-16581237D01*
X97406003Y-16473268D01*
X97390635Y-16336769D01*
X97405804Y-16213450D01*
X97448386Y-16115826D01*
X97517885Y-16037815D01*
X97608346Y-15981930D01*
X97725536Y-15945790D01*
X97876922Y-15932547D01*
X99144787Y-15932547D01*
X99144787Y-15209588D01*
X97852498Y-15209588D01*
X97561509Y-15229715D01*
X97320360Y-15285875D01*
X97120454Y-15373657D01*
X96954905Y-15491444D01*
X96818656Y-15642415D01*
X96720074Y-15821258D01*
X96658306Y-16033574D01*
X96636413Y-16287187D01*
X96660320Y-16510882D01*
X96728554Y-16699349D01*
X96840111Y-16860181D01*
X96988806Y-16988671D01*
X97177547Y-17085330D01*
X97415303Y-17148632D01*
X97162528Y-17209386D01*
X96961374Y-17310309D01*
X96802009Y-17450027D01*
X96683840Y-17625752D01*
X96610582Y-17836655D01*
X96584633Y-18092142D01*
X96584633Y-18100202D01*
X96606604Y-18354385D01*
X96668596Y-18567207D01*
X96767552Y-18746510D01*
X96904347Y-18897899D01*
X97070589Y-19015749D01*
X97271391Y-19103614D01*
X97513680Y-19159844D01*
X97806092Y-19180000D01*
X99144787Y-19180000D01*
G37*
G36*
X99472805Y-19180000D02*
G01*
X99472805Y-15209588D01*
X98724200Y-15209588D01*
X98724200Y-19180000D01*
X99472805Y-19180000D01*
G37*
G36*
X93497159Y-15209588D02*
G01*
X93497159Y-15883210D01*
X95131144Y-18457041D01*
X93442449Y-18457041D01*
X93442449Y-19180000D01*
X96021898Y-19180000D01*
X96021898Y-18506378D01*
X94387913Y-15932547D01*
X95972805Y-15932547D01*
X95972805Y-15209588D01*
X93497159Y-15209588D01*
G37*
G36*
X1747194Y-56370000D02*
G01*
X1747194Y-60340411D01*
X2495799Y-60340411D01*
X2495799Y-56370000D01*
X1747194Y-56370000D01*
G37*
G36*
X2017815Y-56370000D02*
G01*
X2017815Y-57092958D01*
X4408709Y-57092958D01*
X4408709Y-56370000D01*
X2017815Y-56370000D01*
G37*
G36*
X2017815Y-57980048D02*
G01*
X2017815Y-58703007D01*
X4108046Y-58703007D01*
X4108046Y-57980048D01*
X2017815Y-57980048D01*
G37*
G36*
X2017815Y-59617452D02*
G01*
X2017815Y-60340411D01*
X4408709Y-60340411D01*
X4408709Y-59617452D01*
X2017815Y-59617452D01*
G37*
G36*
X6078841Y-60340411D02*
G01*
X6078841Y-56370000D01*
X5329993Y-56370000D01*
X5329993Y-59460648D01*
X4846392Y-59277466D01*
X4846392Y-60072721D01*
X5439413Y-60340411D01*
X6078841Y-60340411D01*
G37*
%LPC*%
D11*
%TO.C,E1*%
X9210000Y-68690000D03*
X13170000Y-68690000D03*
X17130000Y-68690000D03*
X21090000Y-68690000D03*
X25050000Y-68690000D03*
X29010000Y-68690000D03*
X32970000Y-68690000D03*
X36930000Y-68690000D03*
X40890000Y-68690000D03*
X44850000Y-68690000D03*
X48810000Y-68690000D03*
X52770000Y-68690000D03*
X56730000Y-68690000D03*
X60690000Y-68690000D03*
X64650000Y-68690000D03*
X68610000Y-68690000D03*
X72570000Y-68690000D03*
X76530000Y-68690000D03*
X80490000Y-68690000D03*
X84450000Y-68690000D03*
X88410000Y-68690000D03*
X92370000Y-68690000D03*
%TD*%
%TO.C,B1*%
X9213000Y-6677000D03*
X13173000Y-6677000D03*
X17133000Y-6677000D03*
X21093000Y-6677000D03*
X25053000Y-6677000D03*
X29013000Y-6677000D03*
X32973000Y-6677000D03*
X36933000Y-6677000D03*
X40893000Y-6677000D03*
X44853000Y-6677000D03*
X48813000Y-6677000D03*
X52773000Y-6677000D03*
X56733000Y-6677000D03*
X60693000Y-6677000D03*
X64653000Y-6677000D03*
X68613000Y-6677000D03*
X72573000Y-6677000D03*
X76533000Y-6677000D03*
X80493000Y-6677000D03*
X84453000Y-6677000D03*
X88413000Y-6677000D03*
X92373000Y-6677000D03*
%TD*%
%LPD*%
M02*
