%TF.GenerationSoftware,KiCad,Pcbnew,9.0.1*%
%TF.CreationDate,2025-07-28T23:24:05+02:00*%
%TF.ProjectId,monaco-gp-22,6d6f6e61-636f-42d6-9770-2d32322e6b69,rev?*%
%TF.SameCoordinates,Original*%
%TF.FileFunction,Drillmap*%
%TF.FilePolarity,Positive*%
%FSLAX45Y45*%
G04 Gerber Fmt 4.5, Leading zero omitted, Abs format (unit mm)*
G04 Created by KiCad (PCBNEW 9.0.1) date 2025-07-28 23:24:05*
%MOMM*%
%LPD*%
G01*
G04 APERTURE LIST*
%ADD10C,0.500000*%
%ADD11C,0.200000*%
%ADD12C,0.100000*%
G04 APERTURE END LIST*
D10*
X9607300Y-1350700D02*
X10128300Y-1350700D01*
X9607000Y-6186000D02*
X10128000Y-6186000D01*
X547300Y-1350700D02*
X30300Y-1350700D01*
X547000Y-6186000D02*
X30000Y-6186000D01*
X30300Y-1350700D02*
X30000Y-6186000D01*
X10128300Y-1350700D02*
X10128000Y-6186000D01*
X547000Y-7219000D02*
X547000Y-6186000D01*
X797000Y-7469000D02*
X9357000Y-7469000D01*
X9607000Y-7219000D02*
X9607000Y-6186000D01*
X797000Y-7469000D02*
G75*
G02*
X547000Y-7219000I0J250000D01*
G01*
X9607000Y-7219000D02*
G75*
G02*
X9357000Y-7469000I-250000J0D01*
G01*
X547300Y-317700D02*
X547300Y-1350700D01*
X797300Y-67700D02*
X9357300Y-67700D01*
X9607300Y-317700D02*
X9607300Y-1350700D01*
X547300Y-317700D02*
G75*
G02*
X797300Y-67700I250000J0D01*
G01*
X9357300Y-67700D02*
G75*
G02*
X9607300Y-317700I0J-250000D01*
G01*
D11*
D12*
X891300Y-5256000D02*
X951300Y-5316000D01*
X951300Y-5256000D02*
X891300Y-5316000D01*
X1089000Y-5256000D02*
X1149000Y-5316000D01*
X1149000Y-5256000D02*
X1089000Y-5316000D01*
X1287000Y-5256000D02*
X1347000Y-5316000D01*
X1347000Y-5256000D02*
X1287000Y-5316000D01*
X1485000Y-5256000D02*
X1545000Y-5316000D01*
X1545000Y-5256000D02*
X1485000Y-5316000D01*
X1683000Y-5256000D02*
X1743000Y-5316000D01*
X1743000Y-5256000D02*
X1683000Y-5316000D01*
X1881000Y-5256000D02*
X1941000Y-5316000D01*
X1941000Y-5256000D02*
X1881000Y-5316000D01*
X2079000Y-5256000D02*
X2139000Y-5316000D01*
X2139000Y-5256000D02*
X2079000Y-5316000D01*
X2277000Y-5256000D02*
X2337000Y-5316000D01*
X2337000Y-5256000D02*
X2277000Y-5316000D01*
X2871000Y-5256000D02*
X2931000Y-5316000D01*
X2931000Y-5256000D02*
X2871000Y-5316000D01*
X3069000Y-5256000D02*
X3129000Y-5316000D01*
X3129000Y-5256000D02*
X3069000Y-5316000D01*
X3267000Y-5256000D02*
X3327000Y-5316000D01*
X3327000Y-5256000D02*
X3267000Y-5316000D01*
X3465000Y-5256000D02*
X3525000Y-5316000D01*
X3525000Y-5256000D02*
X3465000Y-5316000D01*
X3663000Y-5256000D02*
X3723000Y-5316000D01*
X3723000Y-5256000D02*
X3663000Y-5316000D01*
X3861000Y-5256000D02*
X3921000Y-5316000D01*
X3921000Y-5256000D02*
X3861000Y-5316000D01*
X4059000Y-5256000D02*
X4119000Y-5316000D01*
X4119000Y-5256000D02*
X4059000Y-5316000D01*
X4257000Y-5256000D02*
X4317000Y-5316000D01*
X4317000Y-5256000D02*
X4257000Y-5316000D01*
X4455000Y-5256000D02*
X4515000Y-5316000D01*
X4515000Y-5256000D02*
X4455000Y-5316000D01*
X4851000Y-5256000D02*
X4911000Y-5316000D01*
X4911000Y-5256000D02*
X4851000Y-5316000D01*
X5247000Y-5256000D02*
X5307000Y-5316000D01*
X5307000Y-5256000D02*
X5247000Y-5316000D01*
X5445000Y-5256000D02*
X5505000Y-5316000D01*
X5505000Y-5256000D02*
X5445000Y-5316000D01*
X6039000Y-5256000D02*
X6099000Y-5316000D01*
X6099000Y-5256000D02*
X6039000Y-5316000D01*
X6237000Y-5256000D02*
X6297000Y-5316000D01*
X6297000Y-5256000D02*
X6237000Y-5316000D01*
X6435000Y-5256000D02*
X6495000Y-5316000D01*
X6495000Y-5256000D02*
X6435000Y-5316000D01*
X6633000Y-5256000D02*
X6693000Y-5316000D01*
X6693000Y-5256000D02*
X6633000Y-5316000D01*
X6831000Y-5256000D02*
X6891000Y-5316000D01*
X6891000Y-5256000D02*
X6831000Y-5316000D01*
X7227300Y-3256000D02*
X7287300Y-3316000D01*
X7287300Y-3256000D02*
X7227300Y-3316000D01*
X7425000Y-5256000D02*
X7485000Y-5316000D01*
X7485000Y-5256000D02*
X7425000Y-5316000D01*
X7623000Y-3256000D02*
X7683000Y-3316000D01*
X7683000Y-3256000D02*
X7623000Y-3316000D01*
X7821000Y-1456000D02*
X7881000Y-1516000D01*
X7881000Y-1456000D02*
X7821000Y-1516000D01*
X7821000Y-5256000D02*
X7881000Y-5316000D01*
X7881000Y-5256000D02*
X7821000Y-5316000D01*
X8019000Y-3256000D02*
X8079000Y-3316000D01*
X8079000Y-3256000D02*
X8019000Y-3316000D01*
X8217000Y-5256000D02*
X8277000Y-5316000D01*
X8277000Y-5256000D02*
X8217000Y-5316000D01*
X8415000Y-1456000D02*
X8475000Y-1516000D01*
X8475000Y-1456000D02*
X8415000Y-1516000D01*
X8415000Y-5256000D02*
X8475000Y-5316000D01*
X8475000Y-5256000D02*
X8415000Y-5316000D01*
X8811000Y-1456000D02*
X8871000Y-1516000D01*
X8871000Y-1456000D02*
X8811000Y-1516000D01*
X9009000Y-4456000D02*
X9069000Y-4516000D01*
X9069000Y-4456000D02*
X9009000Y-4516000D01*
X9009000Y-5056000D02*
X9069000Y-5116000D01*
X9069000Y-5056000D02*
X9009000Y-5116000D01*
X9206000Y-4957000D02*
X9266000Y-5017000D01*
X9266000Y-4957000D02*
X9206000Y-5017000D01*
D11*
X265777Y-7805484D02*
X265777Y-7605484D01*
X265777Y-7605484D02*
X313396Y-7605484D01*
X313396Y-7605484D02*
X341967Y-7615008D01*
X341967Y-7615008D02*
X361015Y-7634055D01*
X361015Y-7634055D02*
X370539Y-7653103D01*
X370539Y-7653103D02*
X380062Y-7691198D01*
X380062Y-7691198D02*
X380062Y-7719769D01*
X380062Y-7719769D02*
X370539Y-7757865D01*
X370539Y-7757865D02*
X361015Y-7776912D01*
X361015Y-7776912D02*
X341967Y-7795960D01*
X341967Y-7795960D02*
X313396Y-7805484D01*
X313396Y-7805484D02*
X265777Y-7805484D01*
X465777Y-7805484D02*
X465777Y-7672150D01*
X465777Y-7710246D02*
X475301Y-7691198D01*
X475301Y-7691198D02*
X484824Y-7681674D01*
X484824Y-7681674D02*
X503872Y-7672150D01*
X503872Y-7672150D02*
X522920Y-7672150D01*
X589586Y-7805484D02*
X589586Y-7672150D01*
X589586Y-7605484D02*
X580063Y-7615008D01*
X580063Y-7615008D02*
X589586Y-7624531D01*
X589586Y-7624531D02*
X599110Y-7615008D01*
X599110Y-7615008D02*
X589586Y-7605484D01*
X589586Y-7605484D02*
X589586Y-7624531D01*
X713396Y-7805484D02*
X694348Y-7795960D01*
X694348Y-7795960D02*
X684824Y-7776912D01*
X684824Y-7776912D02*
X684824Y-7605484D01*
X818158Y-7805484D02*
X799110Y-7795960D01*
X799110Y-7795960D02*
X789586Y-7776912D01*
X789586Y-7776912D02*
X789586Y-7605484D01*
X1046729Y-7805484D02*
X1046729Y-7605484D01*
X1046729Y-7605484D02*
X1113396Y-7748341D01*
X1113396Y-7748341D02*
X1180063Y-7605484D01*
X1180063Y-7605484D02*
X1180063Y-7805484D01*
X1361015Y-7805484D02*
X1361015Y-7700722D01*
X1361015Y-7700722D02*
X1351491Y-7681674D01*
X1351491Y-7681674D02*
X1332444Y-7672150D01*
X1332444Y-7672150D02*
X1294348Y-7672150D01*
X1294348Y-7672150D02*
X1275301Y-7681674D01*
X1361015Y-7795960D02*
X1341967Y-7805484D01*
X1341967Y-7805484D02*
X1294348Y-7805484D01*
X1294348Y-7805484D02*
X1275301Y-7795960D01*
X1275301Y-7795960D02*
X1265777Y-7776912D01*
X1265777Y-7776912D02*
X1265777Y-7757865D01*
X1265777Y-7757865D02*
X1275301Y-7738817D01*
X1275301Y-7738817D02*
X1294348Y-7729293D01*
X1294348Y-7729293D02*
X1341967Y-7729293D01*
X1341967Y-7729293D02*
X1361015Y-7719769D01*
X1456253Y-7672150D02*
X1456253Y-7872150D01*
X1456253Y-7681674D02*
X1475301Y-7672150D01*
X1475301Y-7672150D02*
X1513396Y-7672150D01*
X1513396Y-7672150D02*
X1532443Y-7681674D01*
X1532443Y-7681674D02*
X1541967Y-7691198D01*
X1541967Y-7691198D02*
X1551491Y-7710246D01*
X1551491Y-7710246D02*
X1551491Y-7767388D01*
X1551491Y-7767388D02*
X1541967Y-7786436D01*
X1541967Y-7786436D02*
X1532443Y-7795960D01*
X1532443Y-7795960D02*
X1513396Y-7805484D01*
X1513396Y-7805484D02*
X1475301Y-7805484D01*
X1475301Y-7805484D02*
X1456253Y-7795960D01*
X1637205Y-7786436D02*
X1646729Y-7795960D01*
X1646729Y-7795960D02*
X1637205Y-7805484D01*
X1637205Y-7805484D02*
X1627682Y-7795960D01*
X1627682Y-7795960D02*
X1637205Y-7786436D01*
X1637205Y-7786436D02*
X1637205Y-7805484D01*
X1637205Y-7681674D02*
X1646729Y-7691198D01*
X1646729Y-7691198D02*
X1637205Y-7700722D01*
X1637205Y-7700722D02*
X1627682Y-7691198D01*
X1627682Y-7691198D02*
X1637205Y-7681674D01*
X1637205Y-7681674D02*
X1637205Y-7700722D01*
D12*
X-55000Y-8104000D02*
X5000Y-8164000D01*
X5000Y-8104000D02*
X-55000Y-8164000D01*
D11*
X303872Y-8025484D02*
X322920Y-8025484D01*
X322920Y-8025484D02*
X341967Y-8035008D01*
X341967Y-8035008D02*
X351491Y-8044531D01*
X351491Y-8044531D02*
X361015Y-8063579D01*
X361015Y-8063579D02*
X370539Y-8101674D01*
X370539Y-8101674D02*
X370539Y-8149293D01*
X370539Y-8149293D02*
X361015Y-8187388D01*
X361015Y-8187388D02*
X351491Y-8206436D01*
X351491Y-8206436D02*
X341967Y-8215960D01*
X341967Y-8215960D02*
X322920Y-8225484D01*
X322920Y-8225484D02*
X303872Y-8225484D01*
X303872Y-8225484D02*
X284824Y-8215960D01*
X284824Y-8215960D02*
X275301Y-8206436D01*
X275301Y-8206436D02*
X265777Y-8187388D01*
X265777Y-8187388D02*
X256253Y-8149293D01*
X256253Y-8149293D02*
X256253Y-8101674D01*
X256253Y-8101674D02*
X265777Y-8063579D01*
X265777Y-8063579D02*
X275301Y-8044531D01*
X275301Y-8044531D02*
X284824Y-8035008D01*
X284824Y-8035008D02*
X303872Y-8025484D01*
X456253Y-8206436D02*
X465777Y-8215960D01*
X465777Y-8215960D02*
X456253Y-8225484D01*
X456253Y-8225484D02*
X446729Y-8215960D01*
X446729Y-8215960D02*
X456253Y-8206436D01*
X456253Y-8206436D02*
X456253Y-8225484D01*
X637205Y-8025484D02*
X599110Y-8025484D01*
X599110Y-8025484D02*
X580063Y-8035008D01*
X580063Y-8035008D02*
X570539Y-8044531D01*
X570539Y-8044531D02*
X551491Y-8073103D01*
X551491Y-8073103D02*
X541967Y-8111198D01*
X541967Y-8111198D02*
X541967Y-8187388D01*
X541967Y-8187388D02*
X551491Y-8206436D01*
X551491Y-8206436D02*
X561015Y-8215960D01*
X561015Y-8215960D02*
X580063Y-8225484D01*
X580063Y-8225484D02*
X618158Y-8225484D01*
X618158Y-8225484D02*
X637205Y-8215960D01*
X637205Y-8215960D02*
X646729Y-8206436D01*
X646729Y-8206436D02*
X656253Y-8187388D01*
X656253Y-8187388D02*
X656253Y-8139769D01*
X656253Y-8139769D02*
X646729Y-8120722D01*
X646729Y-8120722D02*
X637205Y-8111198D01*
X637205Y-8111198D02*
X618158Y-8101674D01*
X618158Y-8101674D02*
X580063Y-8101674D01*
X580063Y-8101674D02*
X561015Y-8111198D01*
X561015Y-8111198D02*
X551491Y-8120722D01*
X551491Y-8120722D02*
X541967Y-8139769D01*
X780062Y-8025484D02*
X799110Y-8025484D01*
X799110Y-8025484D02*
X818158Y-8035008D01*
X818158Y-8035008D02*
X827682Y-8044531D01*
X827682Y-8044531D02*
X837205Y-8063579D01*
X837205Y-8063579D02*
X846729Y-8101674D01*
X846729Y-8101674D02*
X846729Y-8149293D01*
X846729Y-8149293D02*
X837205Y-8187388D01*
X837205Y-8187388D02*
X827682Y-8206436D01*
X827682Y-8206436D02*
X818158Y-8215960D01*
X818158Y-8215960D02*
X799110Y-8225484D01*
X799110Y-8225484D02*
X780062Y-8225484D01*
X780062Y-8225484D02*
X761015Y-8215960D01*
X761015Y-8215960D02*
X751491Y-8206436D01*
X751491Y-8206436D02*
X741967Y-8187388D01*
X741967Y-8187388D02*
X732443Y-8149293D01*
X732443Y-8149293D02*
X732443Y-8101674D01*
X732443Y-8101674D02*
X741967Y-8063579D01*
X741967Y-8063579D02*
X751491Y-8044531D01*
X751491Y-8044531D02*
X761015Y-8035008D01*
X761015Y-8035008D02*
X780062Y-8025484D01*
X970539Y-8025484D02*
X989586Y-8025484D01*
X989586Y-8025484D02*
X1008634Y-8035008D01*
X1008634Y-8035008D02*
X1018158Y-8044531D01*
X1018158Y-8044531D02*
X1027682Y-8063579D01*
X1027682Y-8063579D02*
X1037205Y-8101674D01*
X1037205Y-8101674D02*
X1037205Y-8149293D01*
X1037205Y-8149293D02*
X1027682Y-8187388D01*
X1027682Y-8187388D02*
X1018158Y-8206436D01*
X1018158Y-8206436D02*
X1008634Y-8215960D01*
X1008634Y-8215960D02*
X989586Y-8225484D01*
X989586Y-8225484D02*
X970539Y-8225484D01*
X970539Y-8225484D02*
X951491Y-8215960D01*
X951491Y-8215960D02*
X941967Y-8206436D01*
X941967Y-8206436D02*
X932443Y-8187388D01*
X932443Y-8187388D02*
X922920Y-8149293D01*
X922920Y-8149293D02*
X922920Y-8101674D01*
X922920Y-8101674D02*
X932443Y-8063579D01*
X932443Y-8063579D02*
X941967Y-8044531D01*
X941967Y-8044531D02*
X951491Y-8035008D01*
X951491Y-8035008D02*
X970539Y-8025484D01*
X1122920Y-8225484D02*
X1122920Y-8092150D01*
X1122920Y-8111198D02*
X1132444Y-8101674D01*
X1132444Y-8101674D02*
X1151491Y-8092150D01*
X1151491Y-8092150D02*
X1180063Y-8092150D01*
X1180063Y-8092150D02*
X1199110Y-8101674D01*
X1199110Y-8101674D02*
X1208634Y-8120722D01*
X1208634Y-8120722D02*
X1208634Y-8225484D01*
X1208634Y-8120722D02*
X1218158Y-8101674D01*
X1218158Y-8101674D02*
X1237205Y-8092150D01*
X1237205Y-8092150D02*
X1265777Y-8092150D01*
X1265777Y-8092150D02*
X1284825Y-8101674D01*
X1284825Y-8101674D02*
X1294348Y-8120722D01*
X1294348Y-8120722D02*
X1294348Y-8225484D01*
X1389586Y-8225484D02*
X1389586Y-8092150D01*
X1389586Y-8111198D02*
X1399110Y-8101674D01*
X1399110Y-8101674D02*
X1418158Y-8092150D01*
X1418158Y-8092150D02*
X1446729Y-8092150D01*
X1446729Y-8092150D02*
X1465777Y-8101674D01*
X1465777Y-8101674D02*
X1475301Y-8120722D01*
X1475301Y-8120722D02*
X1475301Y-8225484D01*
X1475301Y-8120722D02*
X1484824Y-8101674D01*
X1484824Y-8101674D02*
X1503872Y-8092150D01*
X1503872Y-8092150D02*
X1532443Y-8092150D01*
X1532443Y-8092150D02*
X1551491Y-8101674D01*
X1551491Y-8101674D02*
X1561015Y-8120722D01*
X1561015Y-8120722D02*
X1561015Y-8225484D01*
X1951491Y-8015960D02*
X1780063Y-8273103D01*
X2208634Y-8025484D02*
X2227682Y-8025484D01*
X2227682Y-8025484D02*
X2246729Y-8035008D01*
X2246729Y-8035008D02*
X2256253Y-8044531D01*
X2256253Y-8044531D02*
X2265777Y-8063579D01*
X2265777Y-8063579D02*
X2275301Y-8101674D01*
X2275301Y-8101674D02*
X2275301Y-8149293D01*
X2275301Y-8149293D02*
X2265777Y-8187388D01*
X2265777Y-8187388D02*
X2256253Y-8206436D01*
X2256253Y-8206436D02*
X2246729Y-8215960D01*
X2246729Y-8215960D02*
X2227682Y-8225484D01*
X2227682Y-8225484D02*
X2208634Y-8225484D01*
X2208634Y-8225484D02*
X2189587Y-8215960D01*
X2189587Y-8215960D02*
X2180063Y-8206436D01*
X2180063Y-8206436D02*
X2170539Y-8187388D01*
X2170539Y-8187388D02*
X2161015Y-8149293D01*
X2161015Y-8149293D02*
X2161015Y-8101674D01*
X2161015Y-8101674D02*
X2170539Y-8063579D01*
X2170539Y-8063579D02*
X2180063Y-8044531D01*
X2180063Y-8044531D02*
X2189587Y-8035008D01*
X2189587Y-8035008D02*
X2208634Y-8025484D01*
X2361015Y-8206436D02*
X2370539Y-8215960D01*
X2370539Y-8215960D02*
X2361015Y-8225484D01*
X2361015Y-8225484D02*
X2351491Y-8215960D01*
X2351491Y-8215960D02*
X2361015Y-8206436D01*
X2361015Y-8206436D02*
X2361015Y-8225484D01*
X2494348Y-8025484D02*
X2513396Y-8025484D01*
X2513396Y-8025484D02*
X2532444Y-8035008D01*
X2532444Y-8035008D02*
X2541968Y-8044531D01*
X2541968Y-8044531D02*
X2551491Y-8063579D01*
X2551491Y-8063579D02*
X2561015Y-8101674D01*
X2561015Y-8101674D02*
X2561015Y-8149293D01*
X2561015Y-8149293D02*
X2551491Y-8187388D01*
X2551491Y-8187388D02*
X2541968Y-8206436D01*
X2541968Y-8206436D02*
X2532444Y-8215960D01*
X2532444Y-8215960D02*
X2513396Y-8225484D01*
X2513396Y-8225484D02*
X2494348Y-8225484D01*
X2494348Y-8225484D02*
X2475301Y-8215960D01*
X2475301Y-8215960D02*
X2465777Y-8206436D01*
X2465777Y-8206436D02*
X2456253Y-8187388D01*
X2456253Y-8187388D02*
X2446729Y-8149293D01*
X2446729Y-8149293D02*
X2446729Y-8101674D01*
X2446729Y-8101674D02*
X2456253Y-8063579D01*
X2456253Y-8063579D02*
X2465777Y-8044531D01*
X2465777Y-8044531D02*
X2475301Y-8035008D01*
X2475301Y-8035008D02*
X2494348Y-8025484D01*
X2637206Y-8044531D02*
X2646729Y-8035008D01*
X2646729Y-8035008D02*
X2665777Y-8025484D01*
X2665777Y-8025484D02*
X2713396Y-8025484D01*
X2713396Y-8025484D02*
X2732444Y-8035008D01*
X2732444Y-8035008D02*
X2741968Y-8044531D01*
X2741968Y-8044531D02*
X2751491Y-8063579D01*
X2751491Y-8063579D02*
X2751491Y-8082627D01*
X2751491Y-8082627D02*
X2741968Y-8111198D01*
X2741968Y-8111198D02*
X2627682Y-8225484D01*
X2627682Y-8225484D02*
X2751491Y-8225484D01*
X2818158Y-8025484D02*
X2941967Y-8025484D01*
X2941967Y-8025484D02*
X2875301Y-8101674D01*
X2875301Y-8101674D02*
X2903872Y-8101674D01*
X2903872Y-8101674D02*
X2922920Y-8111198D01*
X2922920Y-8111198D02*
X2932444Y-8120722D01*
X2932444Y-8120722D02*
X2941967Y-8139769D01*
X2941967Y-8139769D02*
X2941967Y-8187388D01*
X2941967Y-8187388D02*
X2932444Y-8206436D01*
X2932444Y-8206436D02*
X2922920Y-8215960D01*
X2922920Y-8215960D02*
X2903872Y-8225484D01*
X2903872Y-8225484D02*
X2846729Y-8225484D01*
X2846729Y-8225484D02*
X2827682Y-8215960D01*
X2827682Y-8215960D02*
X2818158Y-8206436D01*
X3113396Y-8025484D02*
X3075301Y-8025484D01*
X3075301Y-8025484D02*
X3056253Y-8035008D01*
X3056253Y-8035008D02*
X3046729Y-8044531D01*
X3046729Y-8044531D02*
X3027682Y-8073103D01*
X3027682Y-8073103D02*
X3018158Y-8111198D01*
X3018158Y-8111198D02*
X3018158Y-8187388D01*
X3018158Y-8187388D02*
X3027682Y-8206436D01*
X3027682Y-8206436D02*
X3037206Y-8215960D01*
X3037206Y-8215960D02*
X3056253Y-8225484D01*
X3056253Y-8225484D02*
X3094348Y-8225484D01*
X3094348Y-8225484D02*
X3113396Y-8215960D01*
X3113396Y-8215960D02*
X3122920Y-8206436D01*
X3122920Y-8206436D02*
X3132444Y-8187388D01*
X3132444Y-8187388D02*
X3132444Y-8139769D01*
X3132444Y-8139769D02*
X3122920Y-8120722D01*
X3122920Y-8120722D02*
X3113396Y-8111198D01*
X3113396Y-8111198D02*
X3094348Y-8101674D01*
X3094348Y-8101674D02*
X3056253Y-8101674D01*
X3056253Y-8101674D02*
X3037206Y-8111198D01*
X3037206Y-8111198D02*
X3027682Y-8120722D01*
X3027682Y-8120722D02*
X3018158Y-8139769D01*
X3208634Y-8025484D02*
X3208634Y-8063579D01*
X3284825Y-8025484D02*
X3284825Y-8063579D01*
X3580063Y-8301674D02*
X3570539Y-8292150D01*
X3570539Y-8292150D02*
X3551491Y-8263579D01*
X3551491Y-8263579D02*
X3541968Y-8244531D01*
X3541968Y-8244531D02*
X3532444Y-8215960D01*
X3532444Y-8215960D02*
X3522920Y-8168341D01*
X3522920Y-8168341D02*
X3522920Y-8130246D01*
X3522920Y-8130246D02*
X3532444Y-8082627D01*
X3532444Y-8082627D02*
X3541968Y-8054055D01*
X3541968Y-8054055D02*
X3551491Y-8035008D01*
X3551491Y-8035008D02*
X3570539Y-8006436D01*
X3570539Y-8006436D02*
X3580063Y-7996912D01*
X3637206Y-8025484D02*
X3761015Y-8025484D01*
X3761015Y-8025484D02*
X3694348Y-8101674D01*
X3694348Y-8101674D02*
X3722920Y-8101674D01*
X3722920Y-8101674D02*
X3741968Y-8111198D01*
X3741968Y-8111198D02*
X3751491Y-8120722D01*
X3751491Y-8120722D02*
X3761015Y-8139769D01*
X3761015Y-8139769D02*
X3761015Y-8187388D01*
X3761015Y-8187388D02*
X3751491Y-8206436D01*
X3751491Y-8206436D02*
X3741968Y-8215960D01*
X3741968Y-8215960D02*
X3722920Y-8225484D01*
X3722920Y-8225484D02*
X3665777Y-8225484D01*
X3665777Y-8225484D02*
X3646729Y-8215960D01*
X3646729Y-8215960D02*
X3637206Y-8206436D01*
X3875301Y-8111198D02*
X3856253Y-8101674D01*
X3856253Y-8101674D02*
X3846729Y-8092150D01*
X3846729Y-8092150D02*
X3837206Y-8073103D01*
X3837206Y-8073103D02*
X3837206Y-8063579D01*
X3837206Y-8063579D02*
X3846729Y-8044531D01*
X3846729Y-8044531D02*
X3856253Y-8035008D01*
X3856253Y-8035008D02*
X3875301Y-8025484D01*
X3875301Y-8025484D02*
X3913396Y-8025484D01*
X3913396Y-8025484D02*
X3932444Y-8035008D01*
X3932444Y-8035008D02*
X3941968Y-8044531D01*
X3941968Y-8044531D02*
X3951491Y-8063579D01*
X3951491Y-8063579D02*
X3951491Y-8073103D01*
X3951491Y-8073103D02*
X3941968Y-8092150D01*
X3941968Y-8092150D02*
X3932444Y-8101674D01*
X3932444Y-8101674D02*
X3913396Y-8111198D01*
X3913396Y-8111198D02*
X3875301Y-8111198D01*
X3875301Y-8111198D02*
X3856253Y-8120722D01*
X3856253Y-8120722D02*
X3846729Y-8130246D01*
X3846729Y-8130246D02*
X3837206Y-8149293D01*
X3837206Y-8149293D02*
X3837206Y-8187388D01*
X3837206Y-8187388D02*
X3846729Y-8206436D01*
X3846729Y-8206436D02*
X3856253Y-8215960D01*
X3856253Y-8215960D02*
X3875301Y-8225484D01*
X3875301Y-8225484D02*
X3913396Y-8225484D01*
X3913396Y-8225484D02*
X3932444Y-8215960D01*
X3932444Y-8215960D02*
X3941968Y-8206436D01*
X3941968Y-8206436D02*
X3951491Y-8187388D01*
X3951491Y-8187388D02*
X3951491Y-8149293D01*
X3951491Y-8149293D02*
X3941968Y-8130246D01*
X3941968Y-8130246D02*
X3932444Y-8120722D01*
X3932444Y-8120722D02*
X3913396Y-8111198D01*
X4189587Y-8225484D02*
X4189587Y-8025484D01*
X4275301Y-8225484D02*
X4275301Y-8120722D01*
X4275301Y-8120722D02*
X4265777Y-8101674D01*
X4265777Y-8101674D02*
X4246730Y-8092150D01*
X4246730Y-8092150D02*
X4218158Y-8092150D01*
X4218158Y-8092150D02*
X4199111Y-8101674D01*
X4199111Y-8101674D02*
X4189587Y-8111198D01*
X4399111Y-8225484D02*
X4380063Y-8215960D01*
X4380063Y-8215960D02*
X4370539Y-8206436D01*
X4370539Y-8206436D02*
X4361015Y-8187388D01*
X4361015Y-8187388D02*
X4361015Y-8130246D01*
X4361015Y-8130246D02*
X4370539Y-8111198D01*
X4370539Y-8111198D02*
X4380063Y-8101674D01*
X4380063Y-8101674D02*
X4399111Y-8092150D01*
X4399111Y-8092150D02*
X4427682Y-8092150D01*
X4427682Y-8092150D02*
X4446730Y-8101674D01*
X4446730Y-8101674D02*
X4456253Y-8111198D01*
X4456253Y-8111198D02*
X4465777Y-8130246D01*
X4465777Y-8130246D02*
X4465777Y-8187388D01*
X4465777Y-8187388D02*
X4456253Y-8206436D01*
X4456253Y-8206436D02*
X4446730Y-8215960D01*
X4446730Y-8215960D02*
X4427682Y-8225484D01*
X4427682Y-8225484D02*
X4399111Y-8225484D01*
X4580063Y-8225484D02*
X4561015Y-8215960D01*
X4561015Y-8215960D02*
X4551492Y-8196912D01*
X4551492Y-8196912D02*
X4551492Y-8025484D01*
X4732444Y-8215960D02*
X4713396Y-8225484D01*
X4713396Y-8225484D02*
X4675301Y-8225484D01*
X4675301Y-8225484D02*
X4656253Y-8215960D01*
X4656253Y-8215960D02*
X4646730Y-8196912D01*
X4646730Y-8196912D02*
X4646730Y-8120722D01*
X4646730Y-8120722D02*
X4656253Y-8101674D01*
X4656253Y-8101674D02*
X4675301Y-8092150D01*
X4675301Y-8092150D02*
X4713396Y-8092150D01*
X4713396Y-8092150D02*
X4732444Y-8101674D01*
X4732444Y-8101674D02*
X4741968Y-8120722D01*
X4741968Y-8120722D02*
X4741968Y-8139769D01*
X4741968Y-8139769D02*
X4646730Y-8158817D01*
X4818158Y-8215960D02*
X4837206Y-8225484D01*
X4837206Y-8225484D02*
X4875301Y-8225484D01*
X4875301Y-8225484D02*
X4894349Y-8215960D01*
X4894349Y-8215960D02*
X4903873Y-8196912D01*
X4903873Y-8196912D02*
X4903873Y-8187388D01*
X4903873Y-8187388D02*
X4894349Y-8168341D01*
X4894349Y-8168341D02*
X4875301Y-8158817D01*
X4875301Y-8158817D02*
X4846730Y-8158817D01*
X4846730Y-8158817D02*
X4827682Y-8149293D01*
X4827682Y-8149293D02*
X4818158Y-8130246D01*
X4818158Y-8130246D02*
X4818158Y-8120722D01*
X4818158Y-8120722D02*
X4827682Y-8101674D01*
X4827682Y-8101674D02*
X4846730Y-8092150D01*
X4846730Y-8092150D02*
X4875301Y-8092150D01*
X4875301Y-8092150D02*
X4894349Y-8101674D01*
X4970539Y-8301674D02*
X4980063Y-8292150D01*
X4980063Y-8292150D02*
X4999111Y-8263579D01*
X4999111Y-8263579D02*
X5008634Y-8244531D01*
X5008634Y-8244531D02*
X5018158Y-8215960D01*
X5018158Y-8215960D02*
X5027682Y-8168341D01*
X5027682Y-8168341D02*
X5027682Y-8130246D01*
X5027682Y-8130246D02*
X5018158Y-8082627D01*
X5018158Y-8082627D02*
X5008634Y-8054055D01*
X5008634Y-8054055D02*
X4999111Y-8035008D01*
X4999111Y-8035008D02*
X4980063Y-8006436D01*
X4980063Y-8006436D02*
X4970539Y-7996912D01*
M02*
