%TF.GenerationSoftware,KiCad,Pcbnew,9.0.1*%
%TF.CreationDate,2025-07-28T23:23:35+02:00*%
%TF.ProjectId,monaco-gp-28,6d6f6e61-636f-42d6-9770-2d32382e6b69,rev?*%
%TF.SameCoordinates,Original*%
%TF.FileFunction,Drillmap*%
%TF.FilePolarity,Positive*%
%FSLAX45Y45*%
G04 Gerber Fmt 4.5, Leading zero omitted, Abs format (unit mm)*
G04 Created by KiCad (PCBNEW 9.0.1) date 2025-07-28 23:23:35*
%MOMM*%
%LPD*%
G01*
G04 APERTURE LIST*
%ADD10C,0.500000*%
%ADD11C,0.200000*%
%ADD12C,0.100000*%
G04 APERTURE END LIST*
D10*
X547300Y-6183000D02*
X30300Y-6183000D01*
X11990000Y-1366000D02*
X12524300Y-1366000D01*
X547300Y-1369000D02*
X30300Y-1369000D01*
X11990300Y-6186000D02*
X12507300Y-6186000D01*
X30300Y-1369000D02*
X30300Y-6183000D01*
X12524300Y-1366000D02*
X12507300Y-6186000D01*
X547000Y-336000D02*
X547000Y-1369000D01*
X797000Y-86000D02*
X11740000Y-86000D01*
X11990000Y-336000D02*
X11990000Y-1366000D01*
X547000Y-336000D02*
G75*
G02*
X797000Y-86000I250000J0D01*
G01*
X11740000Y-86000D02*
G75*
G02*
X11990000Y-336000I0J-250000D01*
G01*
X547300Y-7216000D02*
X547300Y-6183000D01*
X797300Y-7466000D02*
X11740300Y-7466000D01*
X11990300Y-7216000D02*
X11990300Y-6186000D01*
X797300Y-7466000D02*
G75*
G02*
X547300Y-7216000I0J250000D01*
G01*
X11990300Y-7216000D02*
G75*
G02*
X11740300Y-7466000I-250000J0D01*
G01*
D11*
D12*
X891000Y-3456000D02*
X951000Y-3516000D01*
X951000Y-3456000D02*
X891000Y-3516000D01*
X1089000Y-3456000D02*
X1149000Y-3516000D01*
X1149000Y-3456000D02*
X1089000Y-3516000D01*
X1287000Y-3456000D02*
X1347000Y-3516000D01*
X1347000Y-3456000D02*
X1287000Y-3516000D01*
X1485000Y-3456000D02*
X1545000Y-3516000D01*
X1545000Y-3456000D02*
X1485000Y-3516000D01*
X1683000Y-3456000D02*
X1743000Y-3516000D01*
X1743000Y-3456000D02*
X1683000Y-3516000D01*
X1881000Y-3456000D02*
X1941000Y-3516000D01*
X1941000Y-3456000D02*
X1881000Y-3516000D01*
X2079000Y-3456000D02*
X2139000Y-3516000D01*
X2139000Y-3456000D02*
X2079000Y-3516000D01*
X2277000Y-3456000D02*
X2337000Y-3516000D01*
X2337000Y-3456000D02*
X2277000Y-3516000D01*
X2475000Y-3456000D02*
X2535000Y-3516000D01*
X2535000Y-3456000D02*
X2475000Y-3516000D01*
X2673000Y-3456000D02*
X2733000Y-3516000D01*
X2733000Y-3456000D02*
X2673000Y-3516000D01*
X2871000Y-3456000D02*
X2931000Y-3516000D01*
X2931000Y-3456000D02*
X2871000Y-3516000D01*
X3069000Y-3456000D02*
X3129000Y-3516000D01*
X3129000Y-3456000D02*
X3069000Y-3516000D01*
X3267000Y-3456000D02*
X3327000Y-3516000D01*
X3327000Y-3456000D02*
X3267000Y-3516000D01*
X3465000Y-3456000D02*
X3525000Y-3516000D01*
X3525000Y-3456000D02*
X3465000Y-3516000D01*
X3663000Y-3456000D02*
X3723000Y-3516000D01*
X3723000Y-3456000D02*
X3663000Y-3516000D01*
X3861000Y-3456000D02*
X3921000Y-3516000D01*
X3921000Y-3456000D02*
X3861000Y-3516000D01*
X4059000Y-3456000D02*
X4119000Y-3516000D01*
X4119000Y-3456000D02*
X4059000Y-3516000D01*
X4257000Y-3456000D02*
X4317000Y-3516000D01*
X4317000Y-3456000D02*
X4257000Y-3516000D01*
X4455000Y-3456000D02*
X4515000Y-3516000D01*
X4515000Y-3456000D02*
X4455000Y-3516000D01*
X4653000Y-3456000D02*
X4713000Y-3516000D01*
X4713000Y-3456000D02*
X4653000Y-3516000D01*
X4851000Y-3456000D02*
X4911000Y-3516000D01*
X4911000Y-3456000D02*
X4851000Y-3516000D01*
X5049000Y-3456000D02*
X5109000Y-3516000D01*
X5109000Y-3456000D02*
X5049000Y-3516000D01*
X5247000Y-3456000D02*
X5307000Y-3516000D01*
X5307000Y-3456000D02*
X5247000Y-3516000D01*
X5445000Y-3456000D02*
X5505000Y-3516000D01*
X5505000Y-3456000D02*
X5445000Y-3516000D01*
X5643000Y-3456000D02*
X5703000Y-3516000D01*
X5703000Y-3456000D02*
X5643000Y-3516000D01*
X6039000Y-3456000D02*
X6099000Y-3516000D01*
X6099000Y-3456000D02*
X6039000Y-3516000D01*
X6237000Y-3456000D02*
X6297000Y-3516000D01*
X6297000Y-3456000D02*
X6237000Y-3516000D01*
X6435000Y-3456000D02*
X6495000Y-3516000D01*
X6495000Y-3456000D02*
X6435000Y-3516000D01*
X6633000Y-3456000D02*
X6693000Y-3516000D01*
X6693000Y-3456000D02*
X6633000Y-3516000D01*
X6831000Y-3456000D02*
X6891000Y-3516000D01*
X6891000Y-3456000D02*
X6831000Y-3516000D01*
X7029000Y-3456000D02*
X7089000Y-3516000D01*
X7089000Y-3456000D02*
X7029000Y-3516000D01*
X7227000Y-3456000D02*
X7287000Y-3516000D01*
X7287000Y-3456000D02*
X7227000Y-3516000D01*
X7425000Y-3456000D02*
X7485000Y-3516000D01*
X7485000Y-3456000D02*
X7425000Y-3516000D01*
X7623000Y-3456000D02*
X7683000Y-3516000D01*
X7683000Y-3456000D02*
X7623000Y-3516000D01*
X7821000Y-3456000D02*
X7881000Y-3516000D01*
X7881000Y-3456000D02*
X7821000Y-3516000D01*
X8415000Y-1656000D02*
X8475000Y-1716000D01*
X8475000Y-1656000D02*
X8415000Y-1716000D01*
X8415000Y-1856000D02*
X8475000Y-1916000D01*
X8475000Y-1856000D02*
X8415000Y-1916000D01*
X8415000Y-5756000D02*
X8475000Y-5816000D01*
X8475000Y-5756000D02*
X8415000Y-5816000D01*
X8415000Y-5956000D02*
X8475000Y-6016000D01*
X8475000Y-5956000D02*
X8415000Y-6016000D01*
X8613000Y-1656000D02*
X8673000Y-1716000D01*
X8673000Y-1656000D02*
X8613000Y-1716000D01*
X8613000Y-1856000D02*
X8673000Y-1916000D01*
X8673000Y-1856000D02*
X8613000Y-1916000D01*
X8613000Y-5756000D02*
X8673000Y-5816000D01*
X8673000Y-5756000D02*
X8613000Y-5816000D01*
X8613000Y-5956000D02*
X8673000Y-6016000D01*
X8673000Y-5956000D02*
X8613000Y-6016000D01*
X8811000Y-1656000D02*
X8871000Y-1716000D01*
X8871000Y-1656000D02*
X8811000Y-1716000D01*
X8811000Y-1856000D02*
X8871000Y-1916000D01*
X8871000Y-1856000D02*
X8811000Y-1916000D01*
X8811000Y-5756000D02*
X8871000Y-5816000D01*
X8871000Y-5756000D02*
X8811000Y-5816000D01*
X8811000Y-5956000D02*
X8871000Y-6016000D01*
X8871000Y-5956000D02*
X8811000Y-6016000D01*
X9009000Y-1656000D02*
X9069000Y-1716000D01*
X9069000Y-1656000D02*
X9009000Y-1716000D01*
X9009000Y-1856000D02*
X9069000Y-1916000D01*
X9069000Y-1856000D02*
X9009000Y-1916000D01*
X9009000Y-5756000D02*
X9069000Y-5816000D01*
X9069000Y-5756000D02*
X9009000Y-5816000D01*
X9009000Y-5956000D02*
X9069000Y-6016000D01*
X9069000Y-5956000D02*
X9009000Y-6016000D01*
X9207000Y-1656000D02*
X9267000Y-1716000D01*
X9267000Y-1656000D02*
X9207000Y-1716000D01*
X9207000Y-1856000D02*
X9267000Y-1916000D01*
X9267000Y-1856000D02*
X9207000Y-1916000D01*
X9207000Y-5756000D02*
X9267000Y-5816000D01*
X9267000Y-5756000D02*
X9207000Y-5816000D01*
X9207000Y-5956000D02*
X9267000Y-6016000D01*
X9267000Y-5956000D02*
X9207000Y-6016000D01*
X9405000Y-1656000D02*
X9465000Y-1716000D01*
X9465000Y-1656000D02*
X9405000Y-1716000D01*
X9405000Y-1856000D02*
X9465000Y-1916000D01*
X9465000Y-1856000D02*
X9405000Y-1916000D01*
X9405000Y-5756000D02*
X9465000Y-5816000D01*
X9465000Y-5756000D02*
X9405000Y-5816000D01*
X9405000Y-5956000D02*
X9465000Y-6016000D01*
X9465000Y-5956000D02*
X9405000Y-6016000D01*
X9603000Y-1656000D02*
X9663000Y-1716000D01*
X9663000Y-1656000D02*
X9603000Y-1716000D01*
X9603000Y-1856000D02*
X9663000Y-1916000D01*
X9663000Y-1856000D02*
X9603000Y-1916000D01*
X9603000Y-5756000D02*
X9663000Y-5816000D01*
X9663000Y-5756000D02*
X9603000Y-5816000D01*
X9603000Y-5956000D02*
X9663000Y-6016000D01*
X9663000Y-5956000D02*
X9603000Y-6016000D01*
X10395000Y-1656000D02*
X10455000Y-1716000D01*
X10455000Y-1656000D02*
X10395000Y-1716000D01*
X10395000Y-1856000D02*
X10455000Y-1916000D01*
X10455000Y-1856000D02*
X10395000Y-1916000D01*
X10395000Y-5756000D02*
X10455000Y-5816000D01*
X10455000Y-5756000D02*
X10395000Y-5816000D01*
X10395000Y-5956000D02*
X10455000Y-6016000D01*
X10455000Y-5956000D02*
X10395000Y-6016000D01*
X10593000Y-1656000D02*
X10653000Y-1716000D01*
X10653000Y-1656000D02*
X10593000Y-1716000D01*
X10593000Y-1856000D02*
X10653000Y-1916000D01*
X10653000Y-1856000D02*
X10593000Y-1916000D01*
X10593000Y-5756000D02*
X10653000Y-5816000D01*
X10653000Y-5756000D02*
X10593000Y-5816000D01*
X10593000Y-5956000D02*
X10653000Y-6016000D01*
X10653000Y-5956000D02*
X10593000Y-6016000D01*
X10791000Y-1656000D02*
X10851000Y-1716000D01*
X10851000Y-1656000D02*
X10791000Y-1716000D01*
X10791000Y-1856000D02*
X10851000Y-1916000D01*
X10851000Y-1856000D02*
X10791000Y-1916000D01*
X10791000Y-5756000D02*
X10851000Y-5816000D01*
X10851000Y-5756000D02*
X10791000Y-5816000D01*
X10791000Y-5956000D02*
X10851000Y-6016000D01*
X10851000Y-5956000D02*
X10791000Y-6016000D01*
X10989000Y-1656000D02*
X11049000Y-1716000D01*
X11049000Y-1656000D02*
X10989000Y-1716000D01*
X10989000Y-1856000D02*
X11049000Y-1916000D01*
X11049000Y-1856000D02*
X10989000Y-1916000D01*
X10989000Y-5756000D02*
X11049000Y-5816000D01*
X11049000Y-5756000D02*
X10989000Y-5816000D01*
X10989000Y-5956000D02*
X11049000Y-6016000D01*
X11049000Y-5956000D02*
X10989000Y-6016000D01*
X11187000Y-1656000D02*
X11247000Y-1716000D01*
X11247000Y-1656000D02*
X11187000Y-1716000D01*
X11187000Y-1856000D02*
X11247000Y-1916000D01*
X11247000Y-1856000D02*
X11187000Y-1916000D01*
X11187000Y-5756000D02*
X11247000Y-5816000D01*
X11247000Y-5756000D02*
X11187000Y-5816000D01*
X11187000Y-5956000D02*
X11247000Y-6016000D01*
X11247000Y-5956000D02*
X11187000Y-6016000D01*
X11385000Y-1656000D02*
X11445000Y-1716000D01*
X11445000Y-1656000D02*
X11385000Y-1716000D01*
X11385000Y-1856000D02*
X11445000Y-1916000D01*
X11445000Y-1856000D02*
X11385000Y-1916000D01*
X11385000Y-5756000D02*
X11445000Y-5816000D01*
X11445000Y-5756000D02*
X11385000Y-5816000D01*
X11385000Y-5956000D02*
X11445000Y-6016000D01*
X11445000Y-5956000D02*
X11385000Y-6016000D01*
X11583000Y-1656000D02*
X11643000Y-1716000D01*
X11643000Y-1656000D02*
X11583000Y-1716000D01*
X11583000Y-1856000D02*
X11643000Y-1916000D01*
X11643000Y-1856000D02*
X11583000Y-1916000D01*
X11583000Y-5756000D02*
X11643000Y-5816000D01*
X11643000Y-5756000D02*
X11583000Y-5816000D01*
X11583000Y-5956000D02*
X11643000Y-6016000D01*
X11643000Y-5956000D02*
X11583000Y-6016000D01*
D11*
X266077Y-7802484D02*
X266077Y-7602484D01*
X266077Y-7602484D02*
X313696Y-7602484D01*
X313696Y-7602484D02*
X342267Y-7612008D01*
X342267Y-7612008D02*
X361315Y-7631055D01*
X361315Y-7631055D02*
X370839Y-7650103D01*
X370839Y-7650103D02*
X380362Y-7688198D01*
X380362Y-7688198D02*
X380362Y-7716769D01*
X380362Y-7716769D02*
X370839Y-7754865D01*
X370839Y-7754865D02*
X361315Y-7773912D01*
X361315Y-7773912D02*
X342267Y-7792960D01*
X342267Y-7792960D02*
X313696Y-7802484D01*
X313696Y-7802484D02*
X266077Y-7802484D01*
X466077Y-7802484D02*
X466077Y-7669150D01*
X466077Y-7707246D02*
X475601Y-7688198D01*
X475601Y-7688198D02*
X485124Y-7678674D01*
X485124Y-7678674D02*
X504172Y-7669150D01*
X504172Y-7669150D02*
X523220Y-7669150D01*
X589886Y-7802484D02*
X589886Y-7669150D01*
X589886Y-7602484D02*
X580363Y-7612008D01*
X580363Y-7612008D02*
X589886Y-7621531D01*
X589886Y-7621531D02*
X599410Y-7612008D01*
X599410Y-7612008D02*
X589886Y-7602484D01*
X589886Y-7602484D02*
X589886Y-7621531D01*
X713696Y-7802484D02*
X694648Y-7792960D01*
X694648Y-7792960D02*
X685124Y-7773912D01*
X685124Y-7773912D02*
X685124Y-7602484D01*
X818458Y-7802484D02*
X799410Y-7792960D01*
X799410Y-7792960D02*
X789886Y-7773912D01*
X789886Y-7773912D02*
X789886Y-7602484D01*
X1047029Y-7802484D02*
X1047029Y-7602484D01*
X1047029Y-7602484D02*
X1113696Y-7745341D01*
X1113696Y-7745341D02*
X1180363Y-7602484D01*
X1180363Y-7602484D02*
X1180363Y-7802484D01*
X1361315Y-7802484D02*
X1361315Y-7697722D01*
X1361315Y-7697722D02*
X1351791Y-7678674D01*
X1351791Y-7678674D02*
X1332744Y-7669150D01*
X1332744Y-7669150D02*
X1294648Y-7669150D01*
X1294648Y-7669150D02*
X1275601Y-7678674D01*
X1361315Y-7792960D02*
X1342267Y-7802484D01*
X1342267Y-7802484D02*
X1294648Y-7802484D01*
X1294648Y-7802484D02*
X1275601Y-7792960D01*
X1275601Y-7792960D02*
X1266077Y-7773912D01*
X1266077Y-7773912D02*
X1266077Y-7754865D01*
X1266077Y-7754865D02*
X1275601Y-7735817D01*
X1275601Y-7735817D02*
X1294648Y-7726293D01*
X1294648Y-7726293D02*
X1342267Y-7726293D01*
X1342267Y-7726293D02*
X1361315Y-7716769D01*
X1456553Y-7669150D02*
X1456553Y-7869150D01*
X1456553Y-7678674D02*
X1475601Y-7669150D01*
X1475601Y-7669150D02*
X1513696Y-7669150D01*
X1513696Y-7669150D02*
X1532743Y-7678674D01*
X1532743Y-7678674D02*
X1542267Y-7688198D01*
X1542267Y-7688198D02*
X1551791Y-7707246D01*
X1551791Y-7707246D02*
X1551791Y-7764388D01*
X1551791Y-7764388D02*
X1542267Y-7783436D01*
X1542267Y-7783436D02*
X1532743Y-7792960D01*
X1532743Y-7792960D02*
X1513696Y-7802484D01*
X1513696Y-7802484D02*
X1475601Y-7802484D01*
X1475601Y-7802484D02*
X1456553Y-7792960D01*
X1637505Y-7783436D02*
X1647029Y-7792960D01*
X1647029Y-7792960D02*
X1637505Y-7802484D01*
X1637505Y-7802484D02*
X1627982Y-7792960D01*
X1627982Y-7792960D02*
X1637505Y-7783436D01*
X1637505Y-7783436D02*
X1637505Y-7802484D01*
X1637505Y-7678674D02*
X1647029Y-7688198D01*
X1647029Y-7688198D02*
X1637505Y-7697722D01*
X1637505Y-7697722D02*
X1627982Y-7688198D01*
X1627982Y-7688198D02*
X1637505Y-7678674D01*
X1637505Y-7678674D02*
X1637505Y-7697722D01*
D12*
X-54700Y-8101000D02*
X5300Y-8161000D01*
X5300Y-8101000D02*
X-54700Y-8161000D01*
D11*
X304172Y-8022484D02*
X323220Y-8022484D01*
X323220Y-8022484D02*
X342267Y-8032008D01*
X342267Y-8032008D02*
X351791Y-8041531D01*
X351791Y-8041531D02*
X361315Y-8060579D01*
X361315Y-8060579D02*
X370839Y-8098674D01*
X370839Y-8098674D02*
X370839Y-8146293D01*
X370839Y-8146293D02*
X361315Y-8184388D01*
X361315Y-8184388D02*
X351791Y-8203436D01*
X351791Y-8203436D02*
X342267Y-8212960D01*
X342267Y-8212960D02*
X323220Y-8222484D01*
X323220Y-8222484D02*
X304172Y-8222484D01*
X304172Y-8222484D02*
X285124Y-8212960D01*
X285124Y-8212960D02*
X275601Y-8203436D01*
X275601Y-8203436D02*
X266077Y-8184388D01*
X266077Y-8184388D02*
X256553Y-8146293D01*
X256553Y-8146293D02*
X256553Y-8098674D01*
X256553Y-8098674D02*
X266077Y-8060579D01*
X266077Y-8060579D02*
X275601Y-8041531D01*
X275601Y-8041531D02*
X285124Y-8032008D01*
X285124Y-8032008D02*
X304172Y-8022484D01*
X456553Y-8203436D02*
X466077Y-8212960D01*
X466077Y-8212960D02*
X456553Y-8222484D01*
X456553Y-8222484D02*
X447029Y-8212960D01*
X447029Y-8212960D02*
X456553Y-8203436D01*
X456553Y-8203436D02*
X456553Y-8222484D01*
X637505Y-8022484D02*
X599410Y-8022484D01*
X599410Y-8022484D02*
X580363Y-8032008D01*
X580363Y-8032008D02*
X570839Y-8041531D01*
X570839Y-8041531D02*
X551791Y-8070103D01*
X551791Y-8070103D02*
X542267Y-8108198D01*
X542267Y-8108198D02*
X542267Y-8184388D01*
X542267Y-8184388D02*
X551791Y-8203436D01*
X551791Y-8203436D02*
X561315Y-8212960D01*
X561315Y-8212960D02*
X580363Y-8222484D01*
X580363Y-8222484D02*
X618458Y-8222484D01*
X618458Y-8222484D02*
X637505Y-8212960D01*
X637505Y-8212960D02*
X647029Y-8203436D01*
X647029Y-8203436D02*
X656553Y-8184388D01*
X656553Y-8184388D02*
X656553Y-8136769D01*
X656553Y-8136769D02*
X647029Y-8117722D01*
X647029Y-8117722D02*
X637505Y-8108198D01*
X637505Y-8108198D02*
X618458Y-8098674D01*
X618458Y-8098674D02*
X580363Y-8098674D01*
X580363Y-8098674D02*
X561315Y-8108198D01*
X561315Y-8108198D02*
X551791Y-8117722D01*
X551791Y-8117722D02*
X542267Y-8136769D01*
X780362Y-8022484D02*
X799410Y-8022484D01*
X799410Y-8022484D02*
X818458Y-8032008D01*
X818458Y-8032008D02*
X827982Y-8041531D01*
X827982Y-8041531D02*
X837505Y-8060579D01*
X837505Y-8060579D02*
X847029Y-8098674D01*
X847029Y-8098674D02*
X847029Y-8146293D01*
X847029Y-8146293D02*
X837505Y-8184388D01*
X837505Y-8184388D02*
X827982Y-8203436D01*
X827982Y-8203436D02*
X818458Y-8212960D01*
X818458Y-8212960D02*
X799410Y-8222484D01*
X799410Y-8222484D02*
X780362Y-8222484D01*
X780362Y-8222484D02*
X761315Y-8212960D01*
X761315Y-8212960D02*
X751791Y-8203436D01*
X751791Y-8203436D02*
X742267Y-8184388D01*
X742267Y-8184388D02*
X732743Y-8146293D01*
X732743Y-8146293D02*
X732743Y-8098674D01*
X732743Y-8098674D02*
X742267Y-8060579D01*
X742267Y-8060579D02*
X751791Y-8041531D01*
X751791Y-8041531D02*
X761315Y-8032008D01*
X761315Y-8032008D02*
X780362Y-8022484D01*
X970839Y-8022484D02*
X989886Y-8022484D01*
X989886Y-8022484D02*
X1008934Y-8032008D01*
X1008934Y-8032008D02*
X1018458Y-8041531D01*
X1018458Y-8041531D02*
X1027982Y-8060579D01*
X1027982Y-8060579D02*
X1037505Y-8098674D01*
X1037505Y-8098674D02*
X1037505Y-8146293D01*
X1037505Y-8146293D02*
X1027982Y-8184388D01*
X1027982Y-8184388D02*
X1018458Y-8203436D01*
X1018458Y-8203436D02*
X1008934Y-8212960D01*
X1008934Y-8212960D02*
X989886Y-8222484D01*
X989886Y-8222484D02*
X970839Y-8222484D01*
X970839Y-8222484D02*
X951791Y-8212960D01*
X951791Y-8212960D02*
X942267Y-8203436D01*
X942267Y-8203436D02*
X932743Y-8184388D01*
X932743Y-8184388D02*
X923220Y-8146293D01*
X923220Y-8146293D02*
X923220Y-8098674D01*
X923220Y-8098674D02*
X932743Y-8060579D01*
X932743Y-8060579D02*
X942267Y-8041531D01*
X942267Y-8041531D02*
X951791Y-8032008D01*
X951791Y-8032008D02*
X970839Y-8022484D01*
X1123220Y-8222484D02*
X1123220Y-8089150D01*
X1123220Y-8108198D02*
X1132744Y-8098674D01*
X1132744Y-8098674D02*
X1151791Y-8089150D01*
X1151791Y-8089150D02*
X1180363Y-8089150D01*
X1180363Y-8089150D02*
X1199410Y-8098674D01*
X1199410Y-8098674D02*
X1208934Y-8117722D01*
X1208934Y-8117722D02*
X1208934Y-8222484D01*
X1208934Y-8117722D02*
X1218458Y-8098674D01*
X1218458Y-8098674D02*
X1237505Y-8089150D01*
X1237505Y-8089150D02*
X1266077Y-8089150D01*
X1266077Y-8089150D02*
X1285125Y-8098674D01*
X1285125Y-8098674D02*
X1294648Y-8117722D01*
X1294648Y-8117722D02*
X1294648Y-8222484D01*
X1389886Y-8222484D02*
X1389886Y-8089150D01*
X1389886Y-8108198D02*
X1399410Y-8098674D01*
X1399410Y-8098674D02*
X1418458Y-8089150D01*
X1418458Y-8089150D02*
X1447029Y-8089150D01*
X1447029Y-8089150D02*
X1466077Y-8098674D01*
X1466077Y-8098674D02*
X1475601Y-8117722D01*
X1475601Y-8117722D02*
X1475601Y-8222484D01*
X1475601Y-8117722D02*
X1485124Y-8098674D01*
X1485124Y-8098674D02*
X1504172Y-8089150D01*
X1504172Y-8089150D02*
X1532743Y-8089150D01*
X1532743Y-8089150D02*
X1551791Y-8098674D01*
X1551791Y-8098674D02*
X1561315Y-8117722D01*
X1561315Y-8117722D02*
X1561315Y-8222484D01*
X1951791Y-8012960D02*
X1780363Y-8270103D01*
X2208934Y-8022484D02*
X2227982Y-8022484D01*
X2227982Y-8022484D02*
X2247029Y-8032008D01*
X2247029Y-8032008D02*
X2256553Y-8041531D01*
X2256553Y-8041531D02*
X2266077Y-8060579D01*
X2266077Y-8060579D02*
X2275601Y-8098674D01*
X2275601Y-8098674D02*
X2275601Y-8146293D01*
X2275601Y-8146293D02*
X2266077Y-8184388D01*
X2266077Y-8184388D02*
X2256553Y-8203436D01*
X2256553Y-8203436D02*
X2247029Y-8212960D01*
X2247029Y-8212960D02*
X2227982Y-8222484D01*
X2227982Y-8222484D02*
X2208934Y-8222484D01*
X2208934Y-8222484D02*
X2189887Y-8212960D01*
X2189887Y-8212960D02*
X2180363Y-8203436D01*
X2180363Y-8203436D02*
X2170839Y-8184388D01*
X2170839Y-8184388D02*
X2161315Y-8146293D01*
X2161315Y-8146293D02*
X2161315Y-8098674D01*
X2161315Y-8098674D02*
X2170839Y-8060579D01*
X2170839Y-8060579D02*
X2180363Y-8041531D01*
X2180363Y-8041531D02*
X2189887Y-8032008D01*
X2189887Y-8032008D02*
X2208934Y-8022484D01*
X2361315Y-8203436D02*
X2370839Y-8212960D01*
X2370839Y-8212960D02*
X2361315Y-8222484D01*
X2361315Y-8222484D02*
X2351791Y-8212960D01*
X2351791Y-8212960D02*
X2361315Y-8203436D01*
X2361315Y-8203436D02*
X2361315Y-8222484D01*
X2494648Y-8022484D02*
X2513696Y-8022484D01*
X2513696Y-8022484D02*
X2532744Y-8032008D01*
X2532744Y-8032008D02*
X2542268Y-8041531D01*
X2542268Y-8041531D02*
X2551791Y-8060579D01*
X2551791Y-8060579D02*
X2561315Y-8098674D01*
X2561315Y-8098674D02*
X2561315Y-8146293D01*
X2561315Y-8146293D02*
X2551791Y-8184388D01*
X2551791Y-8184388D02*
X2542268Y-8203436D01*
X2542268Y-8203436D02*
X2532744Y-8212960D01*
X2532744Y-8212960D02*
X2513696Y-8222484D01*
X2513696Y-8222484D02*
X2494648Y-8222484D01*
X2494648Y-8222484D02*
X2475601Y-8212960D01*
X2475601Y-8212960D02*
X2466077Y-8203436D01*
X2466077Y-8203436D02*
X2456553Y-8184388D01*
X2456553Y-8184388D02*
X2447029Y-8146293D01*
X2447029Y-8146293D02*
X2447029Y-8098674D01*
X2447029Y-8098674D02*
X2456553Y-8060579D01*
X2456553Y-8060579D02*
X2466077Y-8041531D01*
X2466077Y-8041531D02*
X2475601Y-8032008D01*
X2475601Y-8032008D02*
X2494648Y-8022484D01*
X2637506Y-8041531D02*
X2647029Y-8032008D01*
X2647029Y-8032008D02*
X2666077Y-8022484D01*
X2666077Y-8022484D02*
X2713696Y-8022484D01*
X2713696Y-8022484D02*
X2732744Y-8032008D01*
X2732744Y-8032008D02*
X2742268Y-8041531D01*
X2742268Y-8041531D02*
X2751791Y-8060579D01*
X2751791Y-8060579D02*
X2751791Y-8079627D01*
X2751791Y-8079627D02*
X2742268Y-8108198D01*
X2742268Y-8108198D02*
X2627982Y-8222484D01*
X2627982Y-8222484D02*
X2751791Y-8222484D01*
X2818458Y-8022484D02*
X2942267Y-8022484D01*
X2942267Y-8022484D02*
X2875601Y-8098674D01*
X2875601Y-8098674D02*
X2904172Y-8098674D01*
X2904172Y-8098674D02*
X2923220Y-8108198D01*
X2923220Y-8108198D02*
X2932744Y-8117722D01*
X2932744Y-8117722D02*
X2942267Y-8136769D01*
X2942267Y-8136769D02*
X2942267Y-8184388D01*
X2942267Y-8184388D02*
X2932744Y-8203436D01*
X2932744Y-8203436D02*
X2923220Y-8212960D01*
X2923220Y-8212960D02*
X2904172Y-8222484D01*
X2904172Y-8222484D02*
X2847029Y-8222484D01*
X2847029Y-8222484D02*
X2827982Y-8212960D01*
X2827982Y-8212960D02*
X2818458Y-8203436D01*
X3113696Y-8022484D02*
X3075601Y-8022484D01*
X3075601Y-8022484D02*
X3056553Y-8032008D01*
X3056553Y-8032008D02*
X3047029Y-8041531D01*
X3047029Y-8041531D02*
X3027982Y-8070103D01*
X3027982Y-8070103D02*
X3018458Y-8108198D01*
X3018458Y-8108198D02*
X3018458Y-8184388D01*
X3018458Y-8184388D02*
X3027982Y-8203436D01*
X3027982Y-8203436D02*
X3037506Y-8212960D01*
X3037506Y-8212960D02*
X3056553Y-8222484D01*
X3056553Y-8222484D02*
X3094648Y-8222484D01*
X3094648Y-8222484D02*
X3113696Y-8212960D01*
X3113696Y-8212960D02*
X3123220Y-8203436D01*
X3123220Y-8203436D02*
X3132744Y-8184388D01*
X3132744Y-8184388D02*
X3132744Y-8136769D01*
X3132744Y-8136769D02*
X3123220Y-8117722D01*
X3123220Y-8117722D02*
X3113696Y-8108198D01*
X3113696Y-8108198D02*
X3094648Y-8098674D01*
X3094648Y-8098674D02*
X3056553Y-8098674D01*
X3056553Y-8098674D02*
X3037506Y-8108198D01*
X3037506Y-8108198D02*
X3027982Y-8117722D01*
X3027982Y-8117722D02*
X3018458Y-8136769D01*
X3208934Y-8022484D02*
X3208934Y-8060579D01*
X3285125Y-8022484D02*
X3285125Y-8060579D01*
X3580363Y-8298674D02*
X3570839Y-8289150D01*
X3570839Y-8289150D02*
X3551791Y-8260579D01*
X3551791Y-8260579D02*
X3542268Y-8241531D01*
X3542268Y-8241531D02*
X3532744Y-8212960D01*
X3532744Y-8212960D02*
X3523220Y-8165341D01*
X3523220Y-8165341D02*
X3523220Y-8127246D01*
X3523220Y-8127246D02*
X3532744Y-8079627D01*
X3532744Y-8079627D02*
X3542268Y-8051055D01*
X3542268Y-8051055D02*
X3551791Y-8032008D01*
X3551791Y-8032008D02*
X3570839Y-8003436D01*
X3570839Y-8003436D02*
X3580363Y-7993912D01*
X3666077Y-8222484D02*
X3704172Y-8222484D01*
X3704172Y-8222484D02*
X3723220Y-8212960D01*
X3723220Y-8212960D02*
X3732744Y-8203436D01*
X3732744Y-8203436D02*
X3751791Y-8174865D01*
X3751791Y-8174865D02*
X3761315Y-8136769D01*
X3761315Y-8136769D02*
X3761315Y-8060579D01*
X3761315Y-8060579D02*
X3751791Y-8041531D01*
X3751791Y-8041531D02*
X3742268Y-8032008D01*
X3742268Y-8032008D02*
X3723220Y-8022484D01*
X3723220Y-8022484D02*
X3685125Y-8022484D01*
X3685125Y-8022484D02*
X3666077Y-8032008D01*
X3666077Y-8032008D02*
X3656553Y-8041531D01*
X3656553Y-8041531D02*
X3647029Y-8060579D01*
X3647029Y-8060579D02*
X3647029Y-8108198D01*
X3647029Y-8108198D02*
X3656553Y-8127246D01*
X3656553Y-8127246D02*
X3666077Y-8136769D01*
X3666077Y-8136769D02*
X3685125Y-8146293D01*
X3685125Y-8146293D02*
X3723220Y-8146293D01*
X3723220Y-8146293D02*
X3742268Y-8136769D01*
X3742268Y-8136769D02*
X3751791Y-8127246D01*
X3751791Y-8127246D02*
X3761315Y-8108198D01*
X3951791Y-8222484D02*
X3837506Y-8222484D01*
X3894648Y-8222484D02*
X3894648Y-8022484D01*
X3894648Y-8022484D02*
X3875601Y-8051055D01*
X3875601Y-8051055D02*
X3856553Y-8070103D01*
X3856553Y-8070103D02*
X3837506Y-8079627D01*
X4189887Y-8222484D02*
X4189887Y-8022484D01*
X4275601Y-8222484D02*
X4275601Y-8117722D01*
X4275601Y-8117722D02*
X4266077Y-8098674D01*
X4266077Y-8098674D02*
X4247030Y-8089150D01*
X4247030Y-8089150D02*
X4218458Y-8089150D01*
X4218458Y-8089150D02*
X4199411Y-8098674D01*
X4199411Y-8098674D02*
X4189887Y-8108198D01*
X4399411Y-8222484D02*
X4380363Y-8212960D01*
X4380363Y-8212960D02*
X4370839Y-8203436D01*
X4370839Y-8203436D02*
X4361315Y-8184388D01*
X4361315Y-8184388D02*
X4361315Y-8127246D01*
X4361315Y-8127246D02*
X4370839Y-8108198D01*
X4370839Y-8108198D02*
X4380363Y-8098674D01*
X4380363Y-8098674D02*
X4399411Y-8089150D01*
X4399411Y-8089150D02*
X4427982Y-8089150D01*
X4427982Y-8089150D02*
X4447030Y-8098674D01*
X4447030Y-8098674D02*
X4456553Y-8108198D01*
X4456553Y-8108198D02*
X4466077Y-8127246D01*
X4466077Y-8127246D02*
X4466077Y-8184388D01*
X4466077Y-8184388D02*
X4456553Y-8203436D01*
X4456553Y-8203436D02*
X4447030Y-8212960D01*
X4447030Y-8212960D02*
X4427982Y-8222484D01*
X4427982Y-8222484D02*
X4399411Y-8222484D01*
X4580363Y-8222484D02*
X4561315Y-8212960D01*
X4561315Y-8212960D02*
X4551792Y-8193912D01*
X4551792Y-8193912D02*
X4551792Y-8022484D01*
X4732744Y-8212960D02*
X4713696Y-8222484D01*
X4713696Y-8222484D02*
X4675601Y-8222484D01*
X4675601Y-8222484D02*
X4656553Y-8212960D01*
X4656553Y-8212960D02*
X4647030Y-8193912D01*
X4647030Y-8193912D02*
X4647030Y-8117722D01*
X4647030Y-8117722D02*
X4656553Y-8098674D01*
X4656553Y-8098674D02*
X4675601Y-8089150D01*
X4675601Y-8089150D02*
X4713696Y-8089150D01*
X4713696Y-8089150D02*
X4732744Y-8098674D01*
X4732744Y-8098674D02*
X4742268Y-8117722D01*
X4742268Y-8117722D02*
X4742268Y-8136769D01*
X4742268Y-8136769D02*
X4647030Y-8155817D01*
X4818458Y-8212960D02*
X4837506Y-8222484D01*
X4837506Y-8222484D02*
X4875601Y-8222484D01*
X4875601Y-8222484D02*
X4894649Y-8212960D01*
X4894649Y-8212960D02*
X4904173Y-8193912D01*
X4904173Y-8193912D02*
X4904173Y-8184388D01*
X4904173Y-8184388D02*
X4894649Y-8165341D01*
X4894649Y-8165341D02*
X4875601Y-8155817D01*
X4875601Y-8155817D02*
X4847030Y-8155817D01*
X4847030Y-8155817D02*
X4827982Y-8146293D01*
X4827982Y-8146293D02*
X4818458Y-8127246D01*
X4818458Y-8127246D02*
X4818458Y-8117722D01*
X4818458Y-8117722D02*
X4827982Y-8098674D01*
X4827982Y-8098674D02*
X4847030Y-8089150D01*
X4847030Y-8089150D02*
X4875601Y-8089150D01*
X4875601Y-8089150D02*
X4894649Y-8098674D01*
X4970839Y-8298674D02*
X4980363Y-8289150D01*
X4980363Y-8289150D02*
X4999411Y-8260579D01*
X4999411Y-8260579D02*
X5008934Y-8241531D01*
X5008934Y-8241531D02*
X5018458Y-8212960D01*
X5018458Y-8212960D02*
X5027982Y-8165341D01*
X5027982Y-8165341D02*
X5027982Y-8127246D01*
X5027982Y-8127246D02*
X5018458Y-8079627D01*
X5018458Y-8079627D02*
X5008934Y-8051055D01*
X5008934Y-8051055D02*
X4999411Y-8032008D01*
X4999411Y-8032008D02*
X4980363Y-8003436D01*
X4980363Y-8003436D02*
X4970839Y-7993912D01*
M02*
