%TF.GenerationSoftware,KiCad,Pcbnew,9.0.1*%
%TF.CreationDate,2025-07-28T23:23:35+02:00*%
%TF.ProjectId,monaco-gp-28,6d6f6e61-636f-42d6-9770-2d32382e6b69,rev?*%
%TF.SameCoordinates,Original*%
%TF.FileFunction,Drillmap*%
%TF.FilePolarity,Positive*%
%FSLAX45Y45*%
G04 Gerber Fmt 4.5, Leading zero omitted, Abs format (unit mm)*
G04 Created by KiCad (PCBNEW 9.0.1) date 2025-07-28 23:23:35*
%MOMM*%
%LPD*%
G01*
G04 APERTURE LIST*
%ADD10C,0.500000*%
%ADD11C,0.200000*%
G04 APERTURE END LIST*
D10*
X547300Y-6183000D02*
X30300Y-6183000D01*
X11990000Y-1366000D02*
X12524300Y-1366000D01*
X547300Y-1369000D02*
X30300Y-1369000D01*
X11990300Y-6186000D02*
X12507300Y-6186000D01*
X30300Y-1369000D02*
X30300Y-6183000D01*
X12524300Y-1366000D02*
X12507300Y-6186000D01*
X547000Y-336000D02*
X547000Y-1369000D01*
X797000Y-86000D02*
X11740000Y-86000D01*
X11990000Y-336000D02*
X11990000Y-1366000D01*
X547000Y-336000D02*
G75*
G02*
X797000Y-86000I250000J0D01*
G01*
X11740000Y-86000D02*
G75*
G02*
X11990000Y-336000I0J-250000D01*
G01*
X547300Y-7216000D02*
X547300Y-6183000D01*
X797300Y-7466000D02*
X11740300Y-7466000D01*
X11990300Y-7216000D02*
X11990300Y-6186000D01*
X797300Y-7466000D02*
G75*
G02*
X547300Y-7216000I0J250000D01*
G01*
X11990300Y-7216000D02*
G75*
G02*
X11740300Y-7466000I-250000J0D01*
G01*
D11*
X266077Y-7802484D02*
X266077Y-7602484D01*
X266077Y-7602484D02*
X313696Y-7602484D01*
X313696Y-7602484D02*
X342267Y-7612008D01*
X342267Y-7612008D02*
X361315Y-7631055D01*
X361315Y-7631055D02*
X370839Y-7650103D01*
X370839Y-7650103D02*
X380362Y-7688198D01*
X380362Y-7688198D02*
X380362Y-7716769D01*
X380362Y-7716769D02*
X370839Y-7754865D01*
X370839Y-7754865D02*
X361315Y-7773912D01*
X361315Y-7773912D02*
X342267Y-7792960D01*
X342267Y-7792960D02*
X313696Y-7802484D01*
X313696Y-7802484D02*
X266077Y-7802484D01*
X466077Y-7802484D02*
X466077Y-7669150D01*
X466077Y-7707246D02*
X475601Y-7688198D01*
X475601Y-7688198D02*
X485124Y-7678674D01*
X485124Y-7678674D02*
X504172Y-7669150D01*
X504172Y-7669150D02*
X523220Y-7669150D01*
X589886Y-7802484D02*
X589886Y-7669150D01*
X589886Y-7602484D02*
X580363Y-7612008D01*
X580363Y-7612008D02*
X589886Y-7621531D01*
X589886Y-7621531D02*
X599410Y-7612008D01*
X599410Y-7612008D02*
X589886Y-7602484D01*
X589886Y-7602484D02*
X589886Y-7621531D01*
X713696Y-7802484D02*
X694648Y-7792960D01*
X694648Y-7792960D02*
X685124Y-7773912D01*
X685124Y-7773912D02*
X685124Y-7602484D01*
X818458Y-7802484D02*
X799410Y-7792960D01*
X799410Y-7792960D02*
X789886Y-7773912D01*
X789886Y-7773912D02*
X789886Y-7602484D01*
X1047029Y-7802484D02*
X1047029Y-7602484D01*
X1047029Y-7602484D02*
X1113696Y-7745341D01*
X1113696Y-7745341D02*
X1180363Y-7602484D01*
X1180363Y-7602484D02*
X1180363Y-7802484D01*
X1361315Y-7802484D02*
X1361315Y-7697722D01*
X1361315Y-7697722D02*
X1351791Y-7678674D01*
X1351791Y-7678674D02*
X1332744Y-7669150D01*
X1332744Y-7669150D02*
X1294648Y-7669150D01*
X1294648Y-7669150D02*
X1275601Y-7678674D01*
X1361315Y-7792960D02*
X1342267Y-7802484D01*
X1342267Y-7802484D02*
X1294648Y-7802484D01*
X1294648Y-7802484D02*
X1275601Y-7792960D01*
X1275601Y-7792960D02*
X1266077Y-7773912D01*
X1266077Y-7773912D02*
X1266077Y-7754865D01*
X1266077Y-7754865D02*
X1275601Y-7735817D01*
X1275601Y-7735817D02*
X1294648Y-7726293D01*
X1294648Y-7726293D02*
X1342267Y-7726293D01*
X1342267Y-7726293D02*
X1361315Y-7716769D01*
X1456553Y-7669150D02*
X1456553Y-7869150D01*
X1456553Y-7678674D02*
X1475601Y-7669150D01*
X1475601Y-7669150D02*
X1513696Y-7669150D01*
X1513696Y-7669150D02*
X1532743Y-7678674D01*
X1532743Y-7678674D02*
X1542267Y-7688198D01*
X1542267Y-7688198D02*
X1551791Y-7707246D01*
X1551791Y-7707246D02*
X1551791Y-7764388D01*
X1551791Y-7764388D02*
X1542267Y-7783436D01*
X1542267Y-7783436D02*
X1532743Y-7792960D01*
X1532743Y-7792960D02*
X1513696Y-7802484D01*
X1513696Y-7802484D02*
X1475601Y-7802484D01*
X1475601Y-7802484D02*
X1456553Y-7792960D01*
X1637505Y-7783436D02*
X1647029Y-7792960D01*
X1647029Y-7792960D02*
X1637505Y-7802484D01*
X1637505Y-7802484D02*
X1627982Y-7792960D01*
X1627982Y-7792960D02*
X1637505Y-7783436D01*
X1637505Y-7783436D02*
X1637505Y-7802484D01*
X1637505Y-7678674D02*
X1647029Y-7688198D01*
X1647029Y-7688198D02*
X1637505Y-7697722D01*
X1637505Y-7697722D02*
X1627982Y-7688198D01*
X1627982Y-7688198D02*
X1637505Y-7678674D01*
X1637505Y-7678674D02*
X1637505Y-7697722D01*
M02*
