%TF.GenerationSoftware,KiCad,Pcbnew,9.0.1*%
%TF.CreationDate,2025-08-01T20:54:44+02:00*%
%TF.ProjectId,monaco-gp-28,6d6f6e61-636f-42d6-9770-2d32382e6b69,rev?*%
%TF.SameCoordinates,Original*%
%TF.FileFunction,Copper,L2,Bot*%
%TF.FilePolarity,Positive*%
%FSLAX46Y46*%
G04 Gerber Fmt 4.6, Leading zero omitted, Abs format (unit mm)*
G04 Created by KiCad (PCBNEW 9.0.1) date 2025-08-01 20:54:44*
%MOMM*%
%LPD*%
G01*
G04 APERTURE LIST*
%TA.AperFunction,ConnectorPad*%
%ADD10R,2.540000X12.000000*%
%TD*%
%TA.AperFunction,ViaPad*%
%ADD11C,6.000000*%
%TD*%
%TA.AperFunction,ViaPad*%
%ADD12C,1.200000*%
%TD*%
%TA.AperFunction,Conductor*%
%ADD13C,1.200000*%
%TD*%
G04 APERTURE END LIST*
D10*
%TO.P,C1,29,Pin_29*%
%TO.N,/Y29*%
X9210000Y-6860000D03*
%TO.P,C1,30,Pin_30*%
%TO.N,/Y30*%
X13170000Y-6860000D03*
%TO.P,C1,31,Pin_31*%
%TO.N,/Y31*%
X17130000Y-6860000D03*
%TO.P,C1,32,Pin_32*%
%TO.N,/Y32*%
X21090000Y-6860000D03*
%TO.P,C1,33,Pin_33*%
%TO.N,/Y33*%
X25050000Y-6860000D03*
%TO.P,C1,34,Pin_34*%
%TO.N,/Y34*%
X29010000Y-6860000D03*
%TO.P,C1,35,Pin_35*%
%TO.N,/Y35*%
X32970000Y-6860000D03*
%TO.P,C1,36,Pin_36*%
%TO.N,/Y36*%
X36930000Y-6860000D03*
%TO.P,C1,37,Pin_37*%
%TO.N,/Y37*%
X40890000Y-6860000D03*
%TO.P,C1,38,Pin_38*%
%TO.N,/Y38*%
X44850000Y-6860000D03*
%TO.P,C1,39,Pin_39*%
%TO.N,/Y39*%
X48810000Y-6860000D03*
%TO.P,C1,40,Pin_40*%
%TO.N,/Y40*%
X52770000Y-6860000D03*
%TO.P,C1,41,Pin_41*%
%TO.N,unconnected-(C1-Pin_41-Pad41)*%
X56730000Y-6860000D03*
%TO.P,C1,42,Pin_42*%
%TO.N,/Y42*%
X60690000Y-6860000D03*
%TO.P,C1,43,Pin_43*%
%TO.N,/Y43*%
X64650000Y-6860000D03*
%TO.P,C1,44,Pin_44*%
%TO.N,/Y44*%
X68610000Y-6860000D03*
%TO.P,C1,45,Pin_45*%
%TO.N,/Y45*%
X72570000Y-6860000D03*
%TO.P,C1,46,Pin_46*%
%TO.N,/Y46*%
X76530000Y-6860000D03*
%TO.P,C1,47,Pin_47*%
%TO.N,unconnected-(C1-Pin_47-Pad47)*%
X80490000Y-6860000D03*
%TO.P,C1,48,Pin_48*%
%TO.N,/L2*%
X84450000Y-6860000D03*
%TO.P,C1,49,Pin_49*%
X88410000Y-6860000D03*
%TO.P,C1,50,Pin_50*%
X92370000Y-6860000D03*
%TO.P,C1,51,Pin_51*%
X96330000Y-6860000D03*
%TO.P,C1,52,Pin_52*%
%TO.N,unconnected-(C1-Pin_52-Pad52)*%
X100290000Y-6860000D03*
%TO.P,C1,53,Pin_53*%
%TO.N,/L1*%
X104250000Y-6860000D03*
%TO.P,C1,54,Pin_54*%
X108210000Y-6860000D03*
%TO.P,C1,55,Pin_55*%
X112170000Y-6860000D03*
%TO.P,C1,56,Pin_56*%
X116130000Y-6860000D03*
%TD*%
%TO.P,F1,1,Pin_1*%
%TO.N,/Y1*%
X9213000Y-68660000D03*
%TO.P,F1,2,Pin_2*%
%TO.N,/Y2*%
X13173000Y-68660000D03*
%TO.P,F1,3,Pin_3*%
%TO.N,/Y3*%
X17133000Y-68660000D03*
%TO.P,F1,4,Pin_4*%
%TO.N,/Y4*%
X21093000Y-68660000D03*
%TO.P,F1,5,Pin_5*%
%TO.N,/Y5*%
X25053000Y-68660000D03*
%TO.P,F1,6,Pin_6*%
%TO.N,/Y6*%
X29013000Y-68660000D03*
%TO.P,F1,7,Pin_7*%
%TO.N,/Y7*%
X32973000Y-68660000D03*
%TO.P,F1,8,Pin_8*%
%TO.N,/Y8*%
X36933000Y-68660000D03*
%TO.P,F1,9,Pin_9*%
%TO.N,/Y9*%
X40893000Y-68660000D03*
%TO.P,F1,10,Pin_10*%
%TO.N,/Y10*%
X44853000Y-68660000D03*
%TO.P,F1,11,Pin_11*%
%TO.N,/Y11*%
X48813000Y-68660000D03*
%TO.P,F1,12,Pin_12*%
%TO.N,/Y12*%
X52773000Y-68660000D03*
%TO.P,F1,13,Pin_13*%
%TO.N,/Y13*%
X56733000Y-68660000D03*
%TO.P,F1,14,Pin_14*%
%TO.N,/Y14*%
X60693000Y-68660000D03*
%TO.P,F1,15,Pin_15*%
%TO.N,/Y15*%
X64653000Y-68660000D03*
%TO.P,F1,16,Pin_16*%
%TO.N,/Y16*%
X68613000Y-68660000D03*
%TO.P,F1,17,Pin_17*%
%TO.N,/Y17*%
X72573000Y-68660000D03*
%TO.P,F1,18,Pin_18*%
%TO.N,/Y18*%
X76533000Y-68660000D03*
%TO.P,F1,19,Pin_19*%
%TO.N,unconnected-(F1-Pin_19-Pad19)*%
X80493000Y-68660000D03*
%TO.P,F1,20,Pin_20*%
%TO.N,/L2*%
X84453000Y-68660000D03*
%TO.P,F1,21,Pin_21*%
X88413000Y-68660000D03*
%TO.P,F1,22,Pin_22*%
X92373000Y-68660000D03*
%TO.P,F1,23,Pin_23*%
X96333000Y-68660000D03*
%TO.P,F1,24,Pin_24*%
%TO.N,unconnected-(F1-Pin_24-Pad24)*%
X100293000Y-68660000D03*
%TO.P,F1,25,Pin_25*%
%TO.N,/L1*%
X104253000Y-68660000D03*
%TO.P,F1,26,Pin_26*%
X108213000Y-68660000D03*
%TO.P,F1,27,Pin_27*%
X112173000Y-68660000D03*
%TO.P,F1,28,Pin_28*%
X116133000Y-68660000D03*
%TD*%
D11*
%TO.N,*%
X120040000Y-46607000D03*
X5000000Y-46607000D03*
D12*
%TO.N,/Y43*%
X66630000Y-34860000D03*
%TO.N,/L2*%
X86430000Y-57860000D03*
X84450000Y-16860000D03*
X86430000Y-18860000D03*
X94350000Y-18860000D03*
X96330000Y-59860000D03*
X92370000Y-57860000D03*
X88410000Y-16860000D03*
X88410000Y-59860000D03*
X90390000Y-18860000D03*
X96330000Y-16860000D03*
X96330000Y-18860000D03*
X94350000Y-59860000D03*
X84450000Y-59860000D03*
X96330000Y-57860000D03*
X90390000Y-59860000D03*
X92370000Y-16860000D03*
X84450000Y-57860000D03*
X94350000Y-16860000D03*
X86430000Y-16860000D03*
X88410000Y-18860000D03*
X86430000Y-59860000D03*
X92370000Y-59860000D03*
X90390000Y-57860000D03*
X90390000Y-16860000D03*
X88410000Y-57860000D03*
X84450000Y-18860000D03*
X94350000Y-57860000D03*
X92370000Y-18860000D03*
%TO.N,/Y1*%
X9210000Y-34860000D03*
%TO.N,/Y17*%
X72570000Y-34860000D03*
%TO.N,/Y4*%
X21090000Y-34860000D03*
%TO.N,/Y31*%
X19110000Y-34860000D03*
%TO.N,/Y40*%
X54750000Y-34860000D03*
%TO.N,/Y34*%
X30990000Y-34860000D03*
%TO.N,/Y10*%
X44850000Y-34860000D03*
%TO.N,/L1*%
X104250000Y-18860000D03*
X104250000Y-16860000D03*
X106230000Y-16860000D03*
X104250000Y-59860000D03*
X112170000Y-59860000D03*
X110190000Y-57860000D03*
X116130000Y-18860000D03*
X116130000Y-16860000D03*
X112170000Y-57860000D03*
X112170000Y-16860000D03*
X106230000Y-59860000D03*
X114150000Y-16860000D03*
X108210000Y-57860000D03*
X112170000Y-18860000D03*
X110190000Y-59860000D03*
X110190000Y-18860000D03*
X116130000Y-57860000D03*
X116130000Y-59860000D03*
X114150000Y-18860000D03*
X104250000Y-57860000D03*
X108210000Y-59860000D03*
X106230000Y-18860000D03*
X108210000Y-18860000D03*
X110190000Y-16860000D03*
X114150000Y-59860000D03*
X114150000Y-57860000D03*
X108210000Y-16860000D03*
X106230000Y-57860000D03*
%TO.N,/Y6*%
X29010000Y-34860000D03*
%TO.N,/Y33*%
X27030000Y-34860000D03*
%TO.N,/Y30*%
X15150000Y-34860000D03*
%TO.N,/Y15*%
X64650000Y-34860000D03*
%TO.N,/Y7*%
X32970000Y-34860000D03*
%TO.N,/Y9*%
X40890000Y-34860000D03*
%TO.N,/Y38*%
X46830000Y-34860000D03*
%TO.N,/Y39*%
X50790000Y-34860000D03*
%TO.N,/Y11*%
X48810000Y-34860000D03*
%TO.N,/Y44*%
X70590000Y-34860000D03*
%TO.N,/Y42*%
X62670000Y-34860000D03*
%TO.N,/Y12*%
X52770000Y-34860000D03*
%TO.N,/Y5*%
X25050000Y-34860000D03*
%TO.N,/Y29*%
X11190000Y-34860000D03*
%TO.N,/Y3*%
X17130000Y-34860000D03*
%TO.N,/Y32*%
X23070000Y-34860000D03*
%TO.N,/Y46*%
X78510000Y-34860000D03*
%TO.N,/Y16*%
X68610000Y-34860000D03*
%TO.N,/Y35*%
X34950000Y-34860000D03*
%TO.N,/Y18*%
X76530000Y-34860000D03*
%TO.N,/Y36*%
X38910000Y-34860000D03*
%TO.N,/Y13*%
X56730000Y-34860000D03*
%TO.N,/Y8*%
X36930000Y-34860000D03*
%TO.N,/Y45*%
X74550000Y-34860000D03*
%TO.N,/Y2*%
X13170000Y-34860000D03*
%TO.N,/Y14*%
X60690000Y-34860000D03*
%TO.N,/Y37*%
X42870000Y-34860000D03*
%TD*%
D13*
%TO.N,/Y46*%
X76530000Y-14880000D02*
X78510000Y-16860000D01*
X78510000Y-16860000D02*
X78510000Y-34870000D01*
X76530000Y-6870000D02*
X76530000Y-14880000D01*
%TO.N,/Y45*%
X72570000Y-14880000D02*
X74550000Y-16860000D01*
X74550000Y-16860000D02*
X74550000Y-34870000D01*
X72570000Y-6870000D02*
X72570000Y-14880000D01*
%TO.N,/Y44*%
X68610000Y-14880000D02*
X70590000Y-16860000D01*
X70590000Y-16860000D02*
X70590000Y-34870000D01*
X68610000Y-6870000D02*
X68610000Y-14880000D01*
%TO.N,/Y43*%
X64650000Y-14880000D02*
X66630000Y-16860000D01*
X66630000Y-16860000D02*
X66630000Y-34870000D01*
X64650000Y-6870000D02*
X64650000Y-14880000D01*
%TO.N,/Y42*%
X60690000Y-14880000D02*
X62670000Y-16860000D01*
X62670000Y-16860000D02*
X62670000Y-34870000D01*
X60690000Y-6870000D02*
X60690000Y-14880000D01*
%TO.N,/Y40*%
X52770000Y-14880000D02*
X54750000Y-16860000D01*
X54750000Y-16860000D02*
X54750000Y-34870000D01*
X52770000Y-6870000D02*
X52770000Y-14880000D01*
%TO.N,/Y39*%
X48810000Y-14880000D02*
X50790000Y-16860000D01*
X50790000Y-16860000D02*
X50790000Y-34870000D01*
X48810000Y-6870000D02*
X48810000Y-14880000D01*
%TO.N,/Y38*%
X44850000Y-14880000D02*
X46830000Y-16860000D01*
X46830000Y-16860000D02*
X46830000Y-34870000D01*
X44850000Y-6870000D02*
X44850000Y-14880000D01*
%TO.N,/Y37*%
X40890000Y-14880000D02*
X42870000Y-16860000D01*
X42870000Y-16860000D02*
X42870000Y-34870000D01*
X40890000Y-6870000D02*
X40890000Y-14880000D01*
%TO.N,/Y36*%
X36930000Y-14880000D02*
X38910000Y-16860000D01*
X38910000Y-16860000D02*
X38910000Y-34870000D01*
X36930000Y-6870000D02*
X36930000Y-14880000D01*
%TO.N,/Y35*%
X32970000Y-14880000D02*
X34950000Y-16860000D01*
X34950000Y-16860000D02*
X34950000Y-34870000D01*
X32970000Y-6870000D02*
X32970000Y-14880000D01*
%TO.N,/Y34*%
X29010000Y-14880000D02*
X30990000Y-16860000D01*
X30990000Y-16860000D02*
X30990000Y-34870000D01*
X29010000Y-6870000D02*
X29010000Y-14880000D01*
%TO.N,/Y33*%
X25050000Y-14880000D02*
X27030000Y-16860000D01*
X27030000Y-16860000D02*
X27030000Y-34870000D01*
X25050000Y-6870000D02*
X25050000Y-14880000D01*
%TO.N,/Y32*%
X21090000Y-14880000D02*
X23070000Y-16860000D01*
X23070000Y-16860000D02*
X23070000Y-34870000D01*
X21090000Y-6870000D02*
X21090000Y-14880000D01*
%TO.N,/Y31*%
X17130000Y-14880000D02*
X19110000Y-16860000D01*
X19110000Y-16860000D02*
X19110000Y-34870000D01*
X17130000Y-6870000D02*
X17130000Y-14880000D01*
%TO.N,/Y30*%
X15150000Y-16840000D02*
X15150000Y-34860000D01*
X13170000Y-14860000D02*
X15150000Y-16840000D01*
X13170000Y-12870000D02*
X13170000Y-14860000D01*
%TO.N,/Y29*%
X11190000Y-16850000D02*
X11190000Y-34860000D01*
X9210000Y-6860000D02*
X9210000Y-14870000D01*
X9210000Y-14870000D02*
X11190000Y-16850000D01*
%TO.N,/Y1*%
X9213000Y-50863000D02*
X9213000Y-68660000D01*
X10200000Y-49870000D02*
X9210000Y-50860000D01*
X10200000Y-43870000D02*
X10200000Y-49870000D01*
X9210000Y-50860000D02*
X9213000Y-50863000D01*
X9210000Y-42880000D02*
X10200000Y-43870000D01*
X9210000Y-35860000D02*
X9210000Y-42880000D01*
%TO.N,/Y43*%
X64683000Y-6930000D02*
X64683000Y-12090000D01*
%TO.N,unconnected-(C1-Pin_41-Pad41)*%
X56763000Y-6930000D02*
X56763000Y-12090000D01*
%TO.N,/Y1*%
X9210000Y-35860000D02*
X9213000Y-35863000D01*
X9210000Y-34860000D02*
X9210000Y-35860000D01*
%TO.N,/Y17*%
X72573000Y-35863000D02*
X72573000Y-68660000D01*
X72570000Y-34860000D02*
X72570000Y-35860000D01*
X72570000Y-35860000D02*
X72573000Y-35863000D01*
X72603000Y-68630000D02*
X72573000Y-68660000D01*
%TO.N,/Y4*%
X21090000Y-34860000D02*
X21090000Y-35860000D01*
X21093000Y-35863000D02*
X21093000Y-68660000D01*
X21090000Y-35860000D02*
X21093000Y-35863000D01*
%TO.N,/Y31*%
X17163000Y-6930000D02*
X17163000Y-12090000D01*
%TO.N,/Y40*%
X52803000Y-6930000D02*
X52803000Y-12090000D01*
%TO.N,/Y34*%
X29043000Y-6930000D02*
X29043000Y-12090000D01*
%TO.N,/Y10*%
X44850000Y-34860000D02*
X44850000Y-35860000D01*
X44850000Y-35860000D02*
X44853000Y-35863000D01*
X44853000Y-35863000D02*
X44853000Y-68660000D01*
%TO.N,/Y6*%
X29010000Y-34860000D02*
X29010000Y-35860000D01*
X29013000Y-35863000D02*
X29013000Y-68660000D01*
X29010000Y-35860000D02*
X29013000Y-35863000D01*
%TO.N,/Y33*%
X25083000Y-6930000D02*
X25083000Y-12090000D01*
%TO.N,/Y30*%
X13203000Y-6930000D02*
X13203000Y-12090000D01*
%TO.N,/Y15*%
X64653000Y-35863000D02*
X64653000Y-68660000D01*
X64650000Y-35860000D02*
X64653000Y-35863000D01*
X64650000Y-34860000D02*
X64650000Y-35860000D01*
%TO.N,/Y7*%
X32970000Y-34860000D02*
X32970000Y-35860000D01*
X32970000Y-35860000D02*
X32973000Y-35863000D01*
X32973000Y-35863000D02*
X32973000Y-68660000D01*
%TO.N,/Y9*%
X40890000Y-35860000D02*
X40893000Y-35863000D01*
X40893000Y-35863000D02*
X40893000Y-68660000D01*
X40890000Y-34860000D02*
X40890000Y-35860000D01*
%TO.N,/Y38*%
X44883000Y-6930000D02*
X44883000Y-12090000D01*
%TO.N,/Y39*%
X48843000Y-6930000D02*
X48843000Y-12090000D01*
%TO.N,/Y11*%
X48813000Y-35863000D02*
X48813000Y-68660000D01*
X48810000Y-35860000D02*
X48813000Y-35863000D01*
X48810000Y-34860000D02*
X48810000Y-35860000D01*
%TO.N,/Y44*%
X68643000Y-6930000D02*
X68643000Y-12090000D01*
%TO.N,/Y42*%
X60723000Y-6930000D02*
X60723000Y-12090000D01*
%TO.N,/Y12*%
X52770000Y-35860000D02*
X52773000Y-35863000D01*
X52770000Y-34860000D02*
X52770000Y-35860000D01*
X52773000Y-35863000D02*
X52773000Y-68660000D01*
%TO.N,/Y5*%
X25050000Y-35860000D02*
X25053000Y-35863000D01*
X25050000Y-34860000D02*
X25050000Y-35860000D01*
X25053000Y-35863000D02*
X25053000Y-68660000D01*
%TO.N,/Y29*%
X9383000Y-6860000D02*
X9383000Y-12020000D01*
%TO.N,/Y3*%
X17130000Y-34860000D02*
X17130000Y-35860000D01*
X17133000Y-35863000D02*
X17133000Y-68660000D01*
X17130000Y-35860000D02*
X17133000Y-35863000D01*
%TO.N,/Y32*%
X21123000Y-6930000D02*
X21123000Y-12090000D01*
%TO.N,/Y46*%
X76563000Y-6930000D02*
X76563000Y-12090000D01*
%TO.N,/Y16*%
X68613000Y-35863000D02*
X68613000Y-68660000D01*
X68610000Y-34860000D02*
X68610000Y-35860000D01*
X68610000Y-35860000D02*
X68613000Y-35863000D01*
%TO.N,/Y35*%
X33003000Y-6930000D02*
X33003000Y-12090000D01*
%TO.N,/Y18*%
X76530000Y-34860000D02*
X76530000Y-35860000D01*
X76563000Y-68630000D02*
X76533000Y-68660000D01*
X76530000Y-35860000D02*
X76533000Y-35863000D01*
X76533000Y-35863000D02*
X76533000Y-68660000D01*
%TO.N,/Y36*%
X36963000Y-6930000D02*
X36963000Y-12090000D01*
%TO.N,/Y13*%
X56730000Y-35860000D02*
X56733000Y-35863000D01*
X56730000Y-34860000D02*
X56730000Y-35860000D01*
X56733000Y-35863000D02*
X56733000Y-68660000D01*
%TO.N,/Y8*%
X36930000Y-35860000D02*
X36933000Y-35863000D01*
X36933000Y-35863000D02*
X36933000Y-68660000D01*
X36930000Y-34860000D02*
X36930000Y-35860000D01*
%TO.N,/Y45*%
X72603000Y-6930000D02*
X72603000Y-12090000D01*
%TO.N,/Y2*%
X13170000Y-34860000D02*
X13170000Y-35860000D01*
X13173000Y-35863000D02*
X13173000Y-68660000D01*
X13170000Y-35860000D02*
X13173000Y-35863000D01*
%TO.N,/Y14*%
X60690000Y-34860000D02*
X60690000Y-35860000D01*
X60693000Y-35863000D02*
X60693000Y-68660000D01*
X60690000Y-35860000D02*
X60693000Y-35863000D01*
%TO.N,/Y37*%
X40923000Y-6930000D02*
X40923000Y-12090000D01*
%TD*%
%TA.AperFunction,Conductor*%
%TO.N,/L2*%
G36*
X98286039Y-11679685D02*
G01*
X98331794Y-11732489D01*
X98343000Y-11784000D01*
X98343000Y-63536000D01*
X98323315Y-63603039D01*
X98270511Y-63648794D01*
X98219000Y-63660000D01*
X82627000Y-63660000D01*
X82559961Y-63640315D01*
X82514206Y-63587511D01*
X82503000Y-63536000D01*
X82503000Y-11784000D01*
X82522685Y-11716961D01*
X82575489Y-11671206D01*
X82627000Y-11660000D01*
X98219000Y-11660000D01*
X98286039Y-11679685D01*
G37*
%TD.AperFunction*%
%TD*%
%TA.AperFunction,Conductor*%
%TO.N,/L1*%
G36*
X118086039Y-11679685D02*
G01*
X118131794Y-11732489D01*
X118143000Y-11784000D01*
X118143000Y-41775669D01*
X118123315Y-41842708D01*
X118107124Y-41862904D01*
X115140000Y-44860000D01*
X115140000Y-48860000D01*
X118107123Y-51857094D01*
X118140297Y-51918581D01*
X118143000Y-51944330D01*
X118143000Y-63536000D01*
X118123315Y-63603039D01*
X118070511Y-63648794D01*
X118019000Y-63660000D01*
X102427000Y-63660000D01*
X102359961Y-63640315D01*
X102314206Y-63587511D01*
X102303000Y-63536000D01*
X102303000Y-11784000D01*
X102322685Y-11716961D01*
X102375489Y-11671206D01*
X102427000Y-11660000D01*
X118019000Y-11660000D01*
X118086039Y-11679685D01*
G37*
%TD.AperFunction*%
%TD*%
M02*
