%TF.GenerationSoftware,KiCad,Pcbnew,9.0.1*%
%TF.CreationDate,2025-08-01T20:54:44+02:00*%
%TF.ProjectId,monaco-gp-28,6d6f6e61-636f-42d6-9770-2d32382e6b69,rev?*%
%TF.SameCoordinates,Original*%
%TF.FileFunction,Legend,Bot*%
%TF.FilePolarity,Positive*%
%FSLAX46Y46*%
G04 Gerber Fmt 4.6, Leading zero omitted, Abs format (unit mm)*
G04 Created by KiCad (PCBNEW 9.0.1) date 2025-08-01 20:54:44*
%MOMM*%
%LPD*%
G01*
G04 APERTURE LIST*
%ADD10C,1.000000*%
%ADD11R,2.540000X12.000000*%
G04 APERTURE END LIST*
D10*
G36*
X2717194Y-56340000D02*
G01*
X2717194Y-60310411D01*
X3465799Y-60310411D01*
X3465799Y-56340000D01*
X2717194Y-56340000D01*
G37*
G36*
X2990502Y-57918785D02*
G01*
X2990502Y-58641744D01*
X5026022Y-58641744D01*
X5026022Y-57918785D01*
X2990502Y-57918785D01*
G37*
G36*
X2990502Y-59587452D02*
G01*
X2990502Y-60310411D01*
X5326685Y-60310411D01*
X5326685Y-59587452D01*
X2990502Y-59587452D01*
G37*
G36*
X6833907Y-60310411D02*
G01*
X6833907Y-56340000D01*
X6085059Y-56340000D01*
X6085059Y-59430648D01*
X5601458Y-59247466D01*
X5601458Y-60042721D01*
X6194480Y-60310411D01*
X6833907Y-60310411D01*
G37*
G36*
X6427501Y-20022986D02*
G01*
X6727604Y-20002145D01*
X6984406Y-19943167D01*
X7204926Y-19849574D01*
X7402004Y-19716235D01*
X7564523Y-19548867D01*
X7695366Y-19343747D01*
X7786717Y-19116291D01*
X7844447Y-18851189D01*
X7864870Y-18541409D01*
X7864870Y-17450865D01*
X7844381Y-17139248D01*
X7786592Y-16873842D01*
X7695366Y-16647306D01*
X7564641Y-16442879D01*
X7402130Y-16275466D01*
X7204926Y-16141479D01*
X6984316Y-16047066D01*
X6727521Y-15987606D01*
X6427501Y-15966601D01*
X6180289Y-15985332D01*
X5958125Y-16039595D01*
X5756811Y-16128046D01*
X5573930Y-16250186D01*
X5412230Y-16404804D01*
X5270280Y-16595282D01*
X5158396Y-16806248D01*
X5068934Y-17052325D01*
X5003811Y-17338757D01*
X5780014Y-17338757D01*
X5837501Y-17150578D01*
X5915325Y-17001946D01*
X6017709Y-16878929D01*
X6136608Y-16790676D01*
X6272789Y-16735710D01*
X6427501Y-16716915D01*
X6628591Y-16740066D01*
X6787962Y-16804791D01*
X6915254Y-16909378D01*
X7007937Y-17047521D01*
X7067129Y-17224510D01*
X7088667Y-17451353D01*
X7088667Y-18540921D01*
X7067100Y-18767750D01*
X7007890Y-18944282D01*
X6915254Y-19081674D01*
X6788076Y-19185398D01*
X6628709Y-19249668D01*
X6427501Y-19272672D01*
X6270053Y-19254158D01*
X6133288Y-19200393D01*
X6012288Y-19110495D01*
X5914788Y-18992818D01*
X5836858Y-18841958D01*
X5780014Y-18650830D01*
X5003811Y-18650830D01*
X5070482Y-18935338D01*
X5160869Y-19181042D01*
X5273211Y-19392840D01*
X5415020Y-19584357D01*
X5576173Y-19739503D01*
X5758033Y-19861786D01*
X5958551Y-19950060D01*
X6180288Y-20004261D01*
X6427501Y-20022986D01*
G37*
G36*
X4867035Y-19980000D02*
G01*
X3347844Y-16009588D01*
X2872303Y-16009588D01*
X1353113Y-19980000D01*
X2159114Y-19980000D01*
X3110196Y-17268415D01*
X4061033Y-19980000D01*
X4867035Y-19980000D01*
G37*
G36*
X4137481Y-19339106D02*
G01*
X4137481Y-18616147D01*
X2047251Y-18616147D01*
X2047251Y-19339106D01*
X4137481Y-19339106D01*
G37*
G36*
X122257501Y-20022986D02*
G01*
X122557604Y-20002145D01*
X122814406Y-19943167D01*
X123034926Y-19849574D01*
X123232004Y-19716235D01*
X123394523Y-19548867D01*
X123525366Y-19343747D01*
X123616717Y-19116291D01*
X123674447Y-18851189D01*
X123694870Y-18541409D01*
X123694870Y-17450865D01*
X123674381Y-17139248D01*
X123616592Y-16873842D01*
X123525366Y-16647306D01*
X123394641Y-16442879D01*
X123232130Y-16275466D01*
X123034926Y-16141479D01*
X122814316Y-16047066D01*
X122557521Y-15987606D01*
X122257501Y-15966601D01*
X122010289Y-15985332D01*
X121788124Y-16039595D01*
X121586810Y-16128046D01*
X121403929Y-16250186D01*
X121242229Y-16404804D01*
X121100279Y-16595282D01*
X120988395Y-16806248D01*
X120898933Y-17052325D01*
X120833810Y-17338757D01*
X121610013Y-17338757D01*
X121667500Y-17150578D01*
X121745324Y-17001946D01*
X121847709Y-16878929D01*
X121966608Y-16790676D01*
X122102789Y-16735710D01*
X122257501Y-16716915D01*
X122458591Y-16740066D01*
X122617962Y-16804791D01*
X122745254Y-16909378D01*
X122837937Y-17047521D01*
X122897129Y-17224510D01*
X122918667Y-17451353D01*
X122918667Y-18540921D01*
X122897100Y-18767750D01*
X122837890Y-18944282D01*
X122745254Y-19081674D01*
X122618076Y-19185398D01*
X122458709Y-19249668D01*
X122257501Y-19272672D01*
X122100053Y-19254158D01*
X121963288Y-19200393D01*
X121842288Y-19110495D01*
X121744787Y-18992818D01*
X121666857Y-18841958D01*
X121610013Y-18650830D01*
X120833810Y-18650830D01*
X120900481Y-18935338D01*
X120990868Y-19181042D01*
X121103210Y-19392840D01*
X121245019Y-19584357D01*
X121406172Y-19739503D01*
X121588032Y-19861786D01*
X121788550Y-19950060D01*
X122010288Y-20004261D01*
X122257501Y-20022986D01*
G37*
G36*
X118063119Y-16009588D02*
G01*
X118063119Y-16683210D01*
X119697103Y-19257041D01*
X118008408Y-19257041D01*
X118008408Y-19980000D01*
X120587857Y-19980000D01*
X120587857Y-19306378D01*
X118953872Y-16732547D01*
X120538764Y-16732547D01*
X120538764Y-16009588D01*
X118063119Y-16009588D01*
G37*
G36*
X115577194Y-56540000D02*
G01*
X115577194Y-60510411D01*
X116325799Y-60510411D01*
X116325799Y-56540000D01*
X115577194Y-56540000D01*
G37*
G36*
X115850502Y-58118785D02*
G01*
X115850502Y-58841744D01*
X117886022Y-58841744D01*
X117886022Y-58118785D01*
X115850502Y-58118785D01*
G37*
G36*
X115850502Y-59787452D02*
G01*
X115850502Y-60510411D01*
X118186685Y-60510411D01*
X118186685Y-59787452D01*
X115850502Y-59787452D01*
G37*
G36*
X118565261Y-56540000D02*
G01*
X118565261Y-57216308D01*
X119928869Y-59009050D01*
X120012043Y-59132525D01*
X120072240Y-59256224D01*
X120110878Y-59382366D01*
X120122798Y-59492651D01*
X120122798Y-59498269D01*
X120095653Y-59643848D01*
X120018995Y-59746908D01*
X119899919Y-59810478D01*
X119723949Y-59834347D01*
X119607038Y-59820265D01*
X119508661Y-59779825D01*
X119424508Y-59712714D01*
X119360005Y-59625200D01*
X119312559Y-59512249D01*
X119284068Y-59367599D01*
X119284068Y-59364912D01*
X118516168Y-59364912D01*
X118516168Y-59367599D01*
X118556176Y-59648255D01*
X118631383Y-59883369D01*
X118738781Y-60080499D01*
X118878136Y-60245408D01*
X119048875Y-60379828D01*
X119242627Y-60476520D01*
X119463806Y-60536387D01*
X119718332Y-60557306D01*
X119999903Y-60537953D01*
X120233065Y-60483982D01*
X120426159Y-60399686D01*
X120585882Y-60286685D01*
X120717461Y-60141518D01*
X120812631Y-59969510D01*
X120872251Y-59765265D01*
X120893384Y-59521228D01*
X120893384Y-59518541D01*
X120870057Y-59250158D01*
X120799106Y-58981207D01*
X120685567Y-58726485D01*
X120535324Y-58498583D01*
X119557131Y-57262958D01*
X120915366Y-57262958D01*
X120915366Y-56540000D01*
X118565261Y-56540000D01*
G37*
G36*
X122986168Y-56509343D02*
G01*
X123205513Y-56555722D01*
X123398583Y-56629881D01*
X123575337Y-56735262D01*
X123720838Y-56863518D01*
X123838464Y-57016029D01*
X123924444Y-57188214D01*
X123977218Y-57381104D01*
X123995512Y-57599281D01*
X123995512Y-57664982D01*
X123977151Y-57859237D01*
X123922201Y-58045298D01*
X123828939Y-58226252D01*
X123705046Y-58387896D01*
X123558285Y-58519396D01*
X123386371Y-58623147D01*
X123535354Y-58709757D01*
X123662125Y-58817490D01*
X123768855Y-58947745D01*
X123849964Y-59094566D01*
X123897711Y-59246597D01*
X123913691Y-59406678D01*
X123913691Y-59510725D01*
X123892321Y-59742382D01*
X123831075Y-59942563D01*
X123731472Y-60117383D01*
X123591290Y-60271053D01*
X123423002Y-60392787D01*
X123227931Y-60481768D01*
X123001056Y-60537610D01*
X122735952Y-60557306D01*
X122470848Y-60537610D01*
X122243973Y-60481768D01*
X122048903Y-60392787D01*
X121880614Y-60271053D01*
X121740432Y-60117383D01*
X121640829Y-59942563D01*
X121579583Y-59742382D01*
X121558213Y-59510725D01*
X121558213Y-59406678D01*
X121561812Y-59370774D01*
X122307062Y-59370774D01*
X122307062Y-59412051D01*
X122321106Y-59535017D01*
X122360870Y-59635680D01*
X122425764Y-59719064D01*
X122511292Y-59782079D01*
X122613447Y-59820727D01*
X122736929Y-59834347D01*
X122860381Y-59820700D01*
X122962095Y-59782034D01*
X123046873Y-59719064D01*
X123111465Y-59635794D01*
X123150938Y-59535958D01*
X123164842Y-59414738D01*
X123164842Y-59376392D01*
X123150785Y-59243936D01*
X123111218Y-59135969D01*
X123047362Y-59047152D01*
X122962118Y-58979476D01*
X122860274Y-58938285D01*
X122736929Y-58923810D01*
X122613393Y-58938269D01*
X122511121Y-58979453D01*
X122425275Y-59047152D01*
X122360735Y-59135908D01*
X122321062Y-59242149D01*
X122307062Y-59370774D01*
X121561812Y-59370774D01*
X121573900Y-59250190D01*
X121621043Y-59099497D01*
X121701584Y-58951898D01*
X121807333Y-58820225D01*
X121931999Y-58711150D01*
X122077473Y-58623147D01*
X121907276Y-58519441D01*
X121762217Y-58387964D01*
X121640034Y-58226252D01*
X121548480Y-58045467D01*
X121494457Y-57859381D01*
X121480001Y-57703817D01*
X122224996Y-57703817D01*
X122224996Y-57744849D01*
X122241358Y-57875407D01*
X122288113Y-57983200D01*
X122365680Y-58073600D01*
X122465930Y-58140445D01*
X122587535Y-58182115D01*
X122736196Y-58196943D01*
X122884689Y-58182115D01*
X123006130Y-58140446D01*
X123106224Y-58073600D01*
X123183935Y-57983264D01*
X123230620Y-57876303D01*
X123246908Y-57747536D01*
X123246908Y-57709190D01*
X123230395Y-57567320D01*
X123183397Y-57449985D01*
X123106224Y-57351618D01*
X123005073Y-57277669D01*
X122883481Y-57232151D01*
X122735708Y-57216064D01*
X122587991Y-57231996D01*
X122466473Y-57277050D01*
X122365436Y-57350153D01*
X122288340Y-57447552D01*
X122241456Y-57563604D01*
X122224996Y-57703817D01*
X121480001Y-57703817D01*
X121476392Y-57664982D01*
X121476392Y-57599281D01*
X121494686Y-57381104D01*
X121547460Y-57188214D01*
X121633440Y-57016029D01*
X121751066Y-56863518D01*
X121896567Y-56735262D01*
X122073321Y-56629881D01*
X122266391Y-56555722D01*
X122485736Y-56509343D01*
X122735952Y-56493105D01*
X122986168Y-56509343D01*
G37*
%LPC*%
D11*
%TO.C,C1*%
X9210000Y-6860000D03*
X13170000Y-6860000D03*
X17130000Y-6860000D03*
X21090000Y-6860000D03*
X25050000Y-6860000D03*
X29010000Y-6860000D03*
X32970000Y-6860000D03*
X36930000Y-6860000D03*
X40890000Y-6860000D03*
X44850000Y-6860000D03*
X48810000Y-6860000D03*
X52770000Y-6860000D03*
X56730000Y-6860000D03*
X60690000Y-6860000D03*
X64650000Y-6860000D03*
X68610000Y-6860000D03*
X72570000Y-6860000D03*
X76530000Y-6860000D03*
X80490000Y-6860000D03*
X84450000Y-6860000D03*
X88410000Y-6860000D03*
X92370000Y-6860000D03*
X96330000Y-6860000D03*
X100290000Y-6860000D03*
X104250000Y-6860000D03*
X108210000Y-6860000D03*
X112170000Y-6860000D03*
X116130000Y-6860000D03*
%TD*%
%TO.C,F1*%
X9213000Y-68660000D03*
X13173000Y-68660000D03*
X17133000Y-68660000D03*
X21093000Y-68660000D03*
X25053000Y-68660000D03*
X29013000Y-68660000D03*
X32973000Y-68660000D03*
X36933000Y-68660000D03*
X40893000Y-68660000D03*
X44853000Y-68660000D03*
X48813000Y-68660000D03*
X52773000Y-68660000D03*
X56733000Y-68660000D03*
X60693000Y-68660000D03*
X64653000Y-68660000D03*
X68613000Y-68660000D03*
X72573000Y-68660000D03*
X76533000Y-68660000D03*
X80493000Y-68660000D03*
X84453000Y-68660000D03*
X88413000Y-68660000D03*
X92373000Y-68660000D03*
X96333000Y-68660000D03*
X100293000Y-68660000D03*
X104253000Y-68660000D03*
X108213000Y-68660000D03*
X112173000Y-68660000D03*
X116133000Y-68660000D03*
%TD*%
%LPD*%
M02*
