%TF.GenerationSoftware,KiCad,Pcbnew,9.0.1*%
%TF.CreationDate,2025-07-28T23:24:02+02:00*%
%TF.ProjectId,monaco-gp-22,6d6f6e61-636f-42d6-9770-2d32322e6b69,rev?*%
%TF.SameCoordinates,Original*%
%TF.FileFunction,Legend,Top*%
%TF.FilePolarity,Positive*%
%FSLAX46Y46*%
G04 Gerber Fmt 4.6, Leading zero omitted, Abs format (unit mm)*
G04 Created by KiCad (PCBNEW 9.0.1) date 2025-07-28 23:24:02*
%MOMM*%
%LPD*%
G01*
G04 APERTURE LIST*
%ADD10C,1.000000*%
%ADD11R,2.540000X12.000000*%
G04 APERTURE END LIST*
D10*
G36*
X41947051Y-32857466D02*
G01*
X41242178Y-32821396D01*
X40556699Y-32713974D01*
X39893896Y-32535745D01*
X39282362Y-32293876D01*
X38713303Y-31986579D01*
X38210136Y-31627704D01*
X39077809Y-30082868D01*
X39690779Y-30498685D01*
X40402826Y-30812543D01*
X41164926Y-31005378D01*
X41947051Y-31069609D01*
X42552479Y-31029321D01*
X43016329Y-30920928D01*
X43367934Y-30758199D01*
X43652829Y-30517269D01*
X43817097Y-30229434D01*
X43873517Y-29878314D01*
X43873517Y-29870987D01*
X43806378Y-29480805D01*
X43620726Y-29211531D01*
X43337306Y-29017349D01*
X42954553Y-28873255D01*
X42056350Y-28688852D01*
X40880931Y-28467201D01*
X40307067Y-28293018D01*
X39787945Y-28043440D01*
X39341779Y-27694171D01*
X38985607Y-27213014D01*
X38825291Y-26840419D01*
X38720067Y-26367643D01*
X38681525Y-25771371D01*
X38681525Y-25764043D01*
X38746568Y-25049624D01*
X38930625Y-24450031D01*
X39226086Y-23942876D01*
X39637735Y-23512735D01*
X40132034Y-23182022D01*
X40732712Y-22933680D01*
X41461114Y-22773936D01*
X42343335Y-22716503D01*
X43147793Y-22782622D01*
X43982205Y-22986392D01*
X44786917Y-23313642D01*
X45533147Y-23755146D01*
X44740579Y-25340282D01*
X44149970Y-24981023D01*
X43541957Y-24720516D01*
X42919005Y-24556493D01*
X42343335Y-24504361D01*
X41773162Y-24541348D01*
X41338455Y-24640574D01*
X41010991Y-24788904D01*
X40744350Y-25009204D01*
X40591741Y-25270182D01*
X40539602Y-25586357D01*
X40539602Y-25593684D01*
X40573915Y-25900157D01*
X40668537Y-26135977D01*
X40819260Y-26317864D01*
X41131808Y-26527138D01*
X41550157Y-26683618D01*
X42520412Y-26905268D01*
X43661026Y-27175157D01*
X44207615Y-27372325D01*
X44699668Y-27636775D01*
X45120277Y-27990383D01*
X45451326Y-28463538D01*
X45599785Y-28825035D01*
X45696463Y-29274200D01*
X45731594Y-29830076D01*
X45731594Y-29844120D01*
X45664928Y-30545046D01*
X45475592Y-31136014D01*
X45169823Y-31638983D01*
X44740579Y-32068562D01*
X44231165Y-32395290D01*
X43611229Y-32641554D01*
X42858731Y-32800326D01*
X41947051Y-32857466D01*
G37*
G36*
X47305129Y-32750000D02*
G01*
X47305129Y-22823970D01*
X49176640Y-22823970D01*
X49176640Y-32750000D01*
X47305129Y-32750000D01*
G37*
G36*
X47981682Y-32750000D02*
G01*
X47981682Y-30942602D01*
X53958915Y-30942602D01*
X53958915Y-32750000D01*
X47981682Y-32750000D01*
G37*
G36*
X47981682Y-28724877D02*
G01*
X47981682Y-26917480D01*
X53207257Y-26917480D01*
X53207257Y-28724877D01*
X47981682Y-28724877D01*
G37*
G36*
X47981682Y-24631367D02*
G01*
X47981682Y-22823970D01*
X53958915Y-22823970D01*
X53958915Y-24631367D01*
X47981682Y-24631367D01*
G37*
G36*
X59288294Y-27191032D02*
G01*
X62731507Y-27191032D01*
X62731507Y-29134595D01*
X62678416Y-29871581D01*
X62526153Y-30520441D01*
X62280879Y-31095254D01*
X61938196Y-31615332D01*
X61520202Y-32046130D01*
X61020586Y-32395847D01*
X60464200Y-32647317D01*
X59835033Y-32803141D01*
X59118545Y-32857466D01*
X58395555Y-32806356D01*
X57758735Y-32659806D01*
X57194522Y-32423935D01*
X56683783Y-32092663D01*
X56260720Y-31686844D01*
X55917132Y-31200279D01*
X55669098Y-30657280D01*
X55516026Y-30047905D01*
X55462840Y-29358688D01*
X55462840Y-26427163D01*
X55515985Y-25691434D01*
X55668292Y-25044885D01*
X55913468Y-24473220D01*
X56256297Y-23955908D01*
X56674467Y-23526875D01*
X57174372Y-23178122D01*
X57731154Y-22926652D01*
X58360731Y-22770828D01*
X59077634Y-22716503D01*
X59670050Y-22758789D01*
X60215359Y-22882383D01*
X60721388Y-23085310D01*
X61190063Y-23364149D01*
X61603956Y-23706572D01*
X61967638Y-24116625D01*
X62264429Y-24577130D01*
X62491928Y-25091084D01*
X62649686Y-25666346D01*
X60627355Y-25666346D01*
X60494093Y-25369075D01*
X60297323Y-25123476D01*
X60030181Y-24922627D01*
X59567483Y-24725826D01*
X59077024Y-24660676D01*
X58591954Y-24717688D01*
X58193067Y-24879671D01*
X57860694Y-25145498D01*
X57611903Y-25493117D01*
X57457959Y-25913968D01*
X57403349Y-26428384D01*
X57403349Y-29356856D01*
X57458102Y-29805002D01*
X57614417Y-30175737D01*
X57872906Y-30487090D01*
X58209045Y-30718430D01*
X58616570Y-30862197D01*
X59114881Y-30913293D01*
X59603313Y-30858533D01*
X60002963Y-30703694D01*
X60333653Y-30451674D01*
X60580667Y-30117264D01*
X60735754Y-29695968D01*
X60791608Y-29162683D01*
X60791608Y-28998429D01*
X59288294Y-28998429D01*
X59288294Y-27191032D01*
G37*
G36*
X63348220Y-32750000D02*
G01*
X67146197Y-22823970D01*
X68335049Y-22823970D01*
X72133025Y-32750000D01*
X70118021Y-32750000D01*
X67740317Y-25971039D01*
X65363224Y-32750000D01*
X63348220Y-32750000D01*
G37*
G36*
X65172104Y-31147766D02*
G01*
X65172104Y-29340369D01*
X70397679Y-29340369D01*
X70397679Y-31147766D01*
X65172104Y-31147766D01*
G37*
G36*
X22066295Y-46314392D02*
G01*
X23958566Y-39623970D01*
X26424198Y-39623970D01*
X26424198Y-49550000D01*
X24723657Y-49550000D01*
X24723657Y-41842916D01*
X24791434Y-42279501D01*
X22892446Y-48444190D01*
X21239533Y-48444190D01*
X19340545Y-42416277D01*
X19408933Y-41842916D01*
X19408933Y-49550000D01*
X17707781Y-49550000D01*
X17707781Y-39623970D01*
X20174023Y-39623970D01*
X22066295Y-46314392D01*
G37*
G36*
X32750162Y-39569900D02*
G01*
X33381967Y-39723229D01*
X33942603Y-39970795D01*
X34447165Y-40315490D01*
X34867150Y-40738985D01*
X35209613Y-41248796D01*
X35455245Y-41814098D01*
X35607687Y-42452944D01*
X35660852Y-43179535D01*
X35660852Y-45994434D01*
X35607859Y-46716522D01*
X35455572Y-47354550D01*
X35209613Y-47922121D01*
X34866964Y-48433861D01*
X34446955Y-48858314D01*
X33942603Y-49203175D01*
X33381967Y-49450741D01*
X32750162Y-49604069D01*
X32033235Y-49657466D01*
X31316308Y-49604069D01*
X30684502Y-49450741D01*
X30123866Y-49203175D01*
X29619473Y-48858336D01*
X29199252Y-48433882D01*
X28856246Y-47922121D01*
X28610632Y-47354585D01*
X28458544Y-46716553D01*
X28405618Y-45994434D01*
X28405618Y-43179535D01*
X28409009Y-43133129D01*
X30346127Y-43133129D01*
X30346127Y-46040840D01*
X30400933Y-46545816D01*
X30555821Y-46960320D01*
X30807136Y-47304187D01*
X31141266Y-47565664D01*
X31542421Y-47725400D01*
X32030182Y-47781681D01*
X32522034Y-47725247D01*
X32925069Y-47565366D01*
X33259334Y-47304187D01*
X33510649Y-46960320D01*
X33665537Y-46545816D01*
X33720342Y-46040840D01*
X33720342Y-43133129D01*
X33665296Y-42623721D01*
X33510206Y-42208488D01*
X33259334Y-41866730D01*
X32925365Y-41607203D01*
X32523267Y-41448342D01*
X32033235Y-41392288D01*
X31543202Y-41448342D01*
X31141105Y-41607203D01*
X30807136Y-41866730D01*
X30556264Y-42208488D01*
X30401174Y-42623721D01*
X30346127Y-43133129D01*
X28409009Y-43133129D01*
X28458716Y-42452912D01*
X28610959Y-41814062D01*
X28856246Y-41248796D01*
X29199067Y-40738964D01*
X29619263Y-40315468D01*
X30123866Y-39970795D01*
X30684502Y-39723229D01*
X31316308Y-39569900D01*
X32033235Y-39516503D01*
X32750162Y-39569900D01*
G37*
G36*
X37510991Y-49550000D02*
G01*
X37510991Y-39623970D01*
X39799547Y-39623970D01*
X43494941Y-47233967D01*
X43331298Y-47411653D01*
X43331298Y-39623970D01*
X45120988Y-39623970D01*
X45120988Y-49550000D01*
X42818999Y-49550000D01*
X39137038Y-42056018D01*
X39300681Y-41878332D01*
X39300681Y-49550000D01*
X37510991Y-49550000D01*
G37*
G36*
X46217028Y-49550000D02*
G01*
X50015004Y-39623970D01*
X51203856Y-39623970D01*
X55001832Y-49550000D01*
X52986829Y-49550000D01*
X50609125Y-42771039D01*
X48232031Y-49550000D01*
X46217028Y-49550000D01*
G37*
G36*
X48040911Y-47947766D02*
G01*
X48040911Y-46140369D01*
X53266487Y-46140369D01*
X53266487Y-47947766D01*
X48040911Y-47947766D01*
G37*
G36*
X59070918Y-49657466D02*
G01*
X58320660Y-49605364D01*
X57678656Y-49457918D01*
X57127356Y-49223935D01*
X56634662Y-48890589D01*
X56228363Y-48472168D01*
X55901256Y-47959368D01*
X55672879Y-47390727D01*
X55528555Y-46727974D01*
X55477495Y-45953524D01*
X55477495Y-43227163D01*
X55528719Y-42448120D01*
X55673191Y-41784605D01*
X55901256Y-41218265D01*
X56228069Y-40707199D01*
X56634346Y-40288666D01*
X57127356Y-39953698D01*
X57678880Y-39717665D01*
X58320870Y-39569015D01*
X59070918Y-39516503D01*
X59688949Y-39563331D01*
X60244362Y-39698989D01*
X60747645Y-39920115D01*
X61204849Y-40225465D01*
X61609100Y-40612010D01*
X61963975Y-41088206D01*
X62243684Y-41615622D01*
X62467339Y-42230812D01*
X62630147Y-42946894D01*
X60689637Y-42946894D01*
X60545920Y-42476446D01*
X60351361Y-42104867D01*
X60095399Y-41797323D01*
X59798151Y-41576692D01*
X59457700Y-41439275D01*
X59070918Y-41392288D01*
X58568193Y-41450166D01*
X58169766Y-41611978D01*
X57851536Y-41873447D01*
X57619828Y-42218803D01*
X57471849Y-42661275D01*
X57418005Y-43228384D01*
X57418005Y-45952302D01*
X57471920Y-46519375D01*
X57619947Y-46960705D01*
X57851536Y-47304187D01*
X58169481Y-47563496D01*
X58567900Y-47724172D01*
X59070918Y-47781681D01*
X59464538Y-47735396D01*
X59806450Y-47600982D01*
X60108950Y-47376238D01*
X60352703Y-47082047D01*
X60547529Y-46704895D01*
X60689637Y-46227076D01*
X62630147Y-46227076D01*
X62463470Y-46938345D01*
X62237500Y-47552606D01*
X61956647Y-48082100D01*
X61602124Y-48560894D01*
X61199242Y-48948759D01*
X60744592Y-49254466D01*
X60243295Y-49475151D01*
X59688951Y-49610653D01*
X59070918Y-49657466D01*
G37*
G36*
X68204454Y-39569900D02*
G01*
X68836259Y-39723229D01*
X69396895Y-39970795D01*
X69901456Y-40315490D01*
X70321442Y-40738985D01*
X70663905Y-41248796D01*
X70909536Y-41814098D01*
X71061979Y-42452944D01*
X71115143Y-43179535D01*
X71115143Y-45994434D01*
X71062150Y-46716522D01*
X70909863Y-47354550D01*
X70663905Y-47922121D01*
X70321256Y-48433861D01*
X69901246Y-48858314D01*
X69396895Y-49203175D01*
X68836259Y-49450741D01*
X68204454Y-49604069D01*
X67487527Y-49657466D01*
X66770599Y-49604069D01*
X66138794Y-49450741D01*
X65578158Y-49203175D01*
X65073765Y-48858336D01*
X64653544Y-48433882D01*
X64310538Y-47922121D01*
X64064923Y-47354585D01*
X63912836Y-46716553D01*
X63859910Y-45994434D01*
X63859910Y-43179535D01*
X63863301Y-43133129D01*
X65800419Y-43133129D01*
X65800419Y-46040840D01*
X65855224Y-46545816D01*
X66010112Y-46960320D01*
X66261427Y-47304187D01*
X66595557Y-47565664D01*
X66996713Y-47725400D01*
X67484473Y-47781681D01*
X67976325Y-47725247D01*
X68379361Y-47565366D01*
X68713626Y-47304187D01*
X68964941Y-46960320D01*
X69119829Y-46545816D01*
X69174634Y-46040840D01*
X69174634Y-43133129D01*
X69119588Y-42623721D01*
X68964497Y-42208488D01*
X68713626Y-41866730D01*
X68379657Y-41607203D01*
X67977559Y-41448342D01*
X67487527Y-41392288D01*
X66997494Y-41448342D01*
X66595396Y-41607203D01*
X66261427Y-41866730D01*
X66010556Y-42208488D01*
X65855465Y-42623721D01*
X65800419Y-43133129D01*
X63863301Y-43133129D01*
X63913007Y-42452912D01*
X64065250Y-41814062D01*
X64310538Y-41248796D01*
X64653358Y-40738964D01*
X65073555Y-40315468D01*
X65578158Y-39970795D01*
X66138794Y-39723229D01*
X66770599Y-39569900D01*
X67487527Y-39516503D01*
X68204454Y-39569900D01*
G37*
G36*
X80473919Y-43991032D02*
G01*
X83917132Y-43991032D01*
X83917132Y-45934595D01*
X83864042Y-46671581D01*
X83711778Y-47320441D01*
X83466504Y-47895254D01*
X83123821Y-48415332D01*
X82705827Y-48846130D01*
X82206211Y-49195847D01*
X81649825Y-49447317D01*
X81020658Y-49603141D01*
X80304170Y-49657466D01*
X79581180Y-49606356D01*
X78944360Y-49459806D01*
X78380147Y-49223935D01*
X77869408Y-48892663D01*
X77446345Y-48486844D01*
X77102757Y-48000279D01*
X76854723Y-47457280D01*
X76701651Y-46847905D01*
X76648465Y-46158688D01*
X76648465Y-43227163D01*
X76701610Y-42491434D01*
X76853917Y-41844885D01*
X77099093Y-41273220D01*
X77441922Y-40755908D01*
X77860092Y-40326875D01*
X78359997Y-39978122D01*
X78916779Y-39726652D01*
X79546356Y-39570828D01*
X80263259Y-39516503D01*
X80855675Y-39558789D01*
X81400984Y-39682383D01*
X81907014Y-39885310D01*
X82375688Y-40164149D01*
X82789581Y-40506572D01*
X83153263Y-40916625D01*
X83450054Y-41377130D01*
X83677553Y-41891084D01*
X83835311Y-42466346D01*
X81812980Y-42466346D01*
X81679718Y-42169075D01*
X81482948Y-41923476D01*
X81215806Y-41722627D01*
X80753108Y-41525826D01*
X80262649Y-41460676D01*
X79777579Y-41517688D01*
X79378692Y-41679671D01*
X79046319Y-41945498D01*
X78797528Y-42293117D01*
X78643584Y-42713968D01*
X78588975Y-43228384D01*
X78588975Y-46156856D01*
X78643727Y-46605002D01*
X78800042Y-46975737D01*
X79058531Y-47287090D01*
X79394670Y-47518430D01*
X79802195Y-47662197D01*
X80300506Y-47713293D01*
X80788938Y-47658533D01*
X81188588Y-47503694D01*
X81519278Y-47251674D01*
X81766292Y-46917264D01*
X81921379Y-46495968D01*
X81977233Y-45962683D01*
X81977233Y-45798429D01*
X80473919Y-45798429D01*
X80473919Y-43991032D01*
G37*
G36*
X86617237Y-45681193D02*
G01*
X86617237Y-43873796D01*
X89794226Y-43873796D01*
X90116808Y-43834940D01*
X90385818Y-43723756D01*
X90613661Y-43539794D01*
X90784885Y-43300175D01*
X90890660Y-43011234D01*
X90928123Y-42659298D01*
X90890729Y-42298041D01*
X90785818Y-42004983D01*
X90617324Y-41765369D01*
X90391551Y-41581911D01*
X90121588Y-41470496D01*
X89794226Y-41431367D01*
X86617237Y-41431367D01*
X86617237Y-39623970D01*
X89745988Y-39623970D01*
X90364281Y-39668542D01*
X90907803Y-39796288D01*
X91388521Y-40001936D01*
X91823285Y-40288922D01*
X92184378Y-40639831D01*
X92478455Y-41060118D01*
X92690703Y-41527989D01*
X92822188Y-42056966D01*
X92868022Y-42659298D01*
X92822179Y-43257050D01*
X92690412Y-43784121D01*
X92477233Y-44252372D01*
X92182272Y-44671983D01*
X91820189Y-45021661D01*
X91384247Y-45306891D01*
X90903015Y-45510684D01*
X90360772Y-45637132D01*
X89745988Y-45681193D01*
X86617237Y-45681193D01*
G37*
G36*
X85763608Y-49550000D02*
G01*
X85763608Y-39623970D01*
X87635119Y-39623970D01*
X87635119Y-49550000D01*
X85763608Y-49550000D01*
G37*
G36*
X1975212Y-19180000D02*
G01*
X1975212Y-18457041D01*
X3243077Y-18457041D01*
X3410001Y-18441641D01*
X3539731Y-18399445D01*
X3640460Y-18333698D01*
X3717152Y-18242742D01*
X3764333Y-18129616D01*
X3781144Y-17987606D01*
X3781144Y-17979546D01*
X3764258Y-17835735D01*
X3717009Y-17721883D01*
X3640460Y-17631011D01*
X3539711Y-17565125D01*
X3409981Y-17522851D01*
X3243077Y-17507424D01*
X1975212Y-17507424D01*
X1975212Y-16784466D01*
X3243077Y-16784466D01*
X3393491Y-16769923D01*
X3510708Y-16729941D01*
X3602114Y-16667229D01*
X3671121Y-16581237D01*
X3713996Y-16473268D01*
X3729364Y-16336769D01*
X3714195Y-16213450D01*
X3671613Y-16115826D01*
X3602114Y-16037815D01*
X3511653Y-15981930D01*
X3394463Y-15945790D01*
X3243077Y-15932547D01*
X1975212Y-15932547D01*
X1975212Y-15209588D01*
X3267501Y-15209588D01*
X3558490Y-15229715D01*
X3799639Y-15285875D01*
X3999545Y-15373657D01*
X4165094Y-15491444D01*
X4301343Y-15642415D01*
X4399925Y-15821258D01*
X4461693Y-16033574D01*
X4483586Y-16287187D01*
X4459679Y-16510882D01*
X4391445Y-16699349D01*
X4279888Y-16860181D01*
X4131193Y-16988671D01*
X3942452Y-17085330D01*
X3704696Y-17148632D01*
X3957471Y-17209386D01*
X4158625Y-17310309D01*
X4317990Y-17450027D01*
X4436159Y-17625752D01*
X4509417Y-17836655D01*
X4535366Y-18092142D01*
X4535366Y-18100202D01*
X4513395Y-18354385D01*
X4451403Y-18567207D01*
X4352447Y-18746510D01*
X4215652Y-18897899D01*
X4049410Y-19015749D01*
X3848608Y-19103614D01*
X3606319Y-19159844D01*
X3313907Y-19180000D01*
X1975212Y-19180000D01*
G37*
G36*
X1647194Y-19180000D02*
G01*
X1647194Y-15209588D01*
X2395799Y-15209588D01*
X2395799Y-19180000D01*
X1647194Y-19180000D01*
G37*
G36*
X6248485Y-15209588D02*
G01*
X6248485Y-19180000D01*
X5499637Y-19180000D01*
X5499637Y-16089351D01*
X5016036Y-16272533D01*
X5016036Y-15477278D01*
X5609057Y-15209588D01*
X6248485Y-15209588D01*
G37*
G36*
X7772805Y-56370000D02*
G01*
X7772805Y-60340411D01*
X7024200Y-60340411D01*
X7024200Y-56370000D01*
X7772805Y-56370000D01*
G37*
G36*
X7502184Y-56370000D02*
G01*
X7502184Y-57092958D01*
X5111290Y-57092958D01*
X5111290Y-56370000D01*
X7502184Y-56370000D01*
G37*
G36*
X7502184Y-57980048D02*
G01*
X7502184Y-58703007D01*
X5411953Y-58703007D01*
X5411953Y-57980048D01*
X7502184Y-57980048D01*
G37*
G36*
X7502184Y-59617452D02*
G01*
X7502184Y-60340411D01*
X5111290Y-60340411D01*
X5111290Y-59617452D01*
X7502184Y-59617452D01*
G37*
G36*
X4810139Y-56370000D02*
G01*
X3290949Y-60340411D01*
X2815408Y-60340411D01*
X1296217Y-56370000D01*
X2102219Y-56370000D01*
X3053300Y-59081584D01*
X4004138Y-56370000D01*
X4810139Y-56370000D01*
G37*
G36*
X4080586Y-57010893D02*
G01*
X4080586Y-57733852D01*
X1990355Y-57733852D01*
X1990355Y-57010893D01*
X4080586Y-57010893D01*
G37*
G36*
X99772805Y-56370000D02*
G01*
X99772805Y-60340411D01*
X99024200Y-60340411D01*
X99024200Y-56370000D01*
X99772805Y-56370000D01*
G37*
G36*
X99502184Y-56370000D02*
G01*
X99502184Y-57092958D01*
X97111290Y-57092958D01*
X97111290Y-56370000D01*
X99502184Y-56370000D01*
G37*
G36*
X99502184Y-57980048D02*
G01*
X99502184Y-58703007D01*
X97411953Y-58703007D01*
X97411953Y-57980048D01*
X99502184Y-57980048D01*
G37*
G36*
X99502184Y-59617452D02*
G01*
X99502184Y-60340411D01*
X97111290Y-60340411D01*
X97111290Y-59617452D01*
X99502184Y-59617452D01*
G37*
G36*
X94066803Y-60340411D02*
G01*
X94066803Y-59666789D01*
X95700788Y-57092958D01*
X94012093Y-57092958D01*
X94012093Y-56370000D01*
X96591542Y-56370000D01*
X96591542Y-57043621D01*
X94957557Y-59617452D01*
X96542449Y-59617452D01*
X96542449Y-60340411D01*
X94066803Y-60340411D01*
G37*
G36*
X90975212Y-19180000D02*
G01*
X90975212Y-18457041D01*
X92243077Y-18457041D01*
X92410001Y-18441641D01*
X92539731Y-18399445D01*
X92640460Y-18333698D01*
X92717152Y-18242742D01*
X92764333Y-18129616D01*
X92781144Y-17987606D01*
X92781144Y-17979546D01*
X92764258Y-17835735D01*
X92717009Y-17721883D01*
X92640460Y-17631011D01*
X92539711Y-17565125D01*
X92409981Y-17522851D01*
X92243077Y-17507424D01*
X90975212Y-17507424D01*
X90975212Y-16784466D01*
X92243077Y-16784466D01*
X92393491Y-16769923D01*
X92510708Y-16729941D01*
X92602114Y-16667229D01*
X92671121Y-16581237D01*
X92713996Y-16473268D01*
X92729364Y-16336769D01*
X92714195Y-16213450D01*
X92671613Y-16115826D01*
X92602114Y-16037815D01*
X92511653Y-15981930D01*
X92394463Y-15945790D01*
X92243077Y-15932547D01*
X90975212Y-15932547D01*
X90975212Y-15209588D01*
X92267501Y-15209588D01*
X92558490Y-15229715D01*
X92799639Y-15285875D01*
X92999545Y-15373657D01*
X93165094Y-15491444D01*
X93301343Y-15642415D01*
X93399925Y-15821258D01*
X93461693Y-16033574D01*
X93483586Y-16287187D01*
X93459679Y-16510882D01*
X93391445Y-16699349D01*
X93279888Y-16860181D01*
X93131193Y-16988671D01*
X92942452Y-17085330D01*
X92704696Y-17148632D01*
X92957471Y-17209386D01*
X93158625Y-17310309D01*
X93317990Y-17450027D01*
X93436159Y-17625752D01*
X93509417Y-17836655D01*
X93535366Y-18092142D01*
X93535366Y-18100202D01*
X93513395Y-18354385D01*
X93451403Y-18567207D01*
X93352447Y-18746510D01*
X93215652Y-18897899D01*
X93049410Y-19015749D01*
X92848608Y-19103614D01*
X92606319Y-19159844D01*
X92313907Y-19180000D01*
X90975212Y-19180000D01*
G37*
G36*
X90647194Y-19180000D02*
G01*
X90647194Y-15209588D01*
X91395799Y-15209588D01*
X91395799Y-19180000D01*
X90647194Y-19180000D01*
G37*
G36*
X94119839Y-19180000D02*
G01*
X94119839Y-18503691D01*
X95483447Y-16710949D01*
X95566620Y-16587474D01*
X95626817Y-16463775D01*
X95665456Y-16337633D01*
X95677376Y-16227348D01*
X95677376Y-16221730D01*
X95650230Y-16076151D01*
X95573572Y-15973091D01*
X95454497Y-15909521D01*
X95278527Y-15885652D01*
X95161616Y-15899734D01*
X95063239Y-15940174D01*
X94979085Y-16007285D01*
X94914583Y-16094799D01*
X94867137Y-16207750D01*
X94838646Y-16352400D01*
X94838646Y-16355087D01*
X94070746Y-16355087D01*
X94070746Y-16352400D01*
X94110754Y-16071744D01*
X94185961Y-15836630D01*
X94293359Y-15639500D01*
X94432714Y-15474591D01*
X94603453Y-15340171D01*
X94797205Y-15243479D01*
X95018384Y-15183612D01*
X95272909Y-15162693D01*
X95554481Y-15182046D01*
X95787643Y-15236017D01*
X95980737Y-15320313D01*
X96140460Y-15433314D01*
X96272038Y-15578481D01*
X96367208Y-15750489D01*
X96426829Y-15954734D01*
X96447962Y-16198771D01*
X96447962Y-16201458D01*
X96424634Y-16469841D01*
X96353684Y-16738792D01*
X96240145Y-16993514D01*
X96089902Y-17221416D01*
X95111709Y-18457041D01*
X96469944Y-18457041D01*
X96469944Y-19180000D01*
X94119839Y-19180000D01*
G37*
G36*
X97011674Y-19180000D02*
G01*
X97011674Y-18503691D01*
X98375282Y-16710949D01*
X98458456Y-16587474D01*
X98518653Y-16463775D01*
X98557291Y-16337633D01*
X98569211Y-16227348D01*
X98569211Y-16221730D01*
X98542066Y-16076151D01*
X98465408Y-15973091D01*
X98346332Y-15909521D01*
X98170362Y-15885652D01*
X98053451Y-15899734D01*
X97955074Y-15940174D01*
X97870921Y-16007285D01*
X97806418Y-16094799D01*
X97758972Y-16207750D01*
X97730481Y-16352400D01*
X97730481Y-16355087D01*
X96962581Y-16355087D01*
X96962581Y-16352400D01*
X97002589Y-16071744D01*
X97077796Y-15836630D01*
X97185194Y-15639500D01*
X97324549Y-15474591D01*
X97495288Y-15340171D01*
X97689040Y-15243479D01*
X97910220Y-15183612D01*
X98164745Y-15162693D01*
X98446316Y-15182046D01*
X98679478Y-15236017D01*
X98872572Y-15320313D01*
X99032295Y-15433314D01*
X99163874Y-15578481D01*
X99259044Y-15750489D01*
X99318664Y-15954734D01*
X99339797Y-16198771D01*
X99339797Y-16201458D01*
X99316470Y-16469841D01*
X99245519Y-16738792D01*
X99131980Y-16993514D01*
X98981737Y-17221416D01*
X98003545Y-18457041D01*
X99361779Y-18457041D01*
X99361779Y-19180000D01*
X97011674Y-19180000D01*
G37*
%LPC*%
D11*
%TO.C,E1*%
X9210000Y-68690000D03*
X13170000Y-68690000D03*
X17130000Y-68690000D03*
X21090000Y-68690000D03*
X25050000Y-68690000D03*
X29010000Y-68690000D03*
X32970000Y-68690000D03*
X36930000Y-68690000D03*
X40890000Y-68690000D03*
X44850000Y-68690000D03*
X48810000Y-68690000D03*
X52770000Y-68690000D03*
X56730000Y-68690000D03*
X60690000Y-68690000D03*
X64650000Y-68690000D03*
X68610000Y-68690000D03*
X72570000Y-68690000D03*
X76530000Y-68690000D03*
X80490000Y-68690000D03*
X84450000Y-68690000D03*
X88410000Y-68690000D03*
X92370000Y-68690000D03*
%TD*%
%TO.C,B1*%
X9213000Y-6677000D03*
X13173000Y-6677000D03*
X17133000Y-6677000D03*
X21093000Y-6677000D03*
X25053000Y-6677000D03*
X29013000Y-6677000D03*
X32973000Y-6677000D03*
X36933000Y-6677000D03*
X40893000Y-6677000D03*
X44853000Y-6677000D03*
X48813000Y-6677000D03*
X52773000Y-6677000D03*
X56733000Y-6677000D03*
X60693000Y-6677000D03*
X64653000Y-6677000D03*
X68613000Y-6677000D03*
X72573000Y-6677000D03*
X76533000Y-6677000D03*
X80493000Y-6677000D03*
X84453000Y-6677000D03*
X88413000Y-6677000D03*
X92373000Y-6677000D03*
%TD*%
%LPD*%
M02*
