%TF.GenerationSoftware,KiCad,Pcbnew,9.0.1*%
%TF.CreationDate,2025-08-01T20:40:57+02:00*%
%TF.ProjectId,monaco-gp-22,6d6f6e61-636f-42d6-9770-2d32322e6b69,rev?*%
%TF.SameCoordinates,Original*%
%TF.FileFunction,Drillmap*%
%TF.FilePolarity,Positive*%
%FSLAX45Y45*%
G04 Gerber Fmt 4.5, Leading zero omitted, Abs format (unit mm)*
G04 Created by KiCad (PCBNEW 9.0.1) date 2025-08-01 20:40:57*
%MOMM*%
%LPD*%
G01*
G04 APERTURE LIST*
%ADD10C,0.500000*%
%ADD11C,0.200000*%
G04 APERTURE END LIST*
D10*
X9557000Y-6186000D02*
X10128000Y-6186000D01*
X597300Y-1350700D02*
X30300Y-1350700D01*
X597000Y-6186000D02*
X30000Y-6186000D01*
X30300Y-1350700D02*
X30000Y-6186000D01*
X10128300Y-1350700D02*
X10128000Y-6186000D01*
X9557300Y-1350700D02*
X10128300Y-1350700D01*
X597000Y-7219000D02*
X597000Y-6186000D01*
X847000Y-7469000D02*
X9307000Y-7469000D01*
X9557000Y-7219000D02*
X9557000Y-6186000D01*
X847000Y-7469000D02*
G75*
G02*
X597000Y-7219000I0J250000D01*
G01*
X9557000Y-7219000D02*
G75*
G02*
X9307000Y-7469000I-250000J0D01*
G01*
X597300Y-317700D02*
X597300Y-1350700D01*
X847300Y-67700D02*
X9307300Y-67700D01*
X9557300Y-317700D02*
X9557300Y-1350700D01*
X597300Y-317700D02*
G75*
G02*
X847300Y-67700I250000J0D01*
G01*
X9307300Y-67700D02*
G75*
G02*
X9557300Y-317700I0J-250000D01*
G01*
D11*
X265777Y-7805484D02*
X265777Y-7605484D01*
X265777Y-7605484D02*
X313396Y-7605484D01*
X313396Y-7605484D02*
X341967Y-7615008D01*
X341967Y-7615008D02*
X361015Y-7634055D01*
X361015Y-7634055D02*
X370539Y-7653103D01*
X370539Y-7653103D02*
X380062Y-7691198D01*
X380062Y-7691198D02*
X380062Y-7719769D01*
X380062Y-7719769D02*
X370539Y-7757865D01*
X370539Y-7757865D02*
X361015Y-7776912D01*
X361015Y-7776912D02*
X341967Y-7795960D01*
X341967Y-7795960D02*
X313396Y-7805484D01*
X313396Y-7805484D02*
X265777Y-7805484D01*
X465777Y-7805484D02*
X465777Y-7672150D01*
X465777Y-7710246D02*
X475301Y-7691198D01*
X475301Y-7691198D02*
X484824Y-7681674D01*
X484824Y-7681674D02*
X503872Y-7672150D01*
X503872Y-7672150D02*
X522920Y-7672150D01*
X589586Y-7805484D02*
X589586Y-7672150D01*
X589586Y-7605484D02*
X580063Y-7615008D01*
X580063Y-7615008D02*
X589586Y-7624531D01*
X589586Y-7624531D02*
X599110Y-7615008D01*
X599110Y-7615008D02*
X589586Y-7605484D01*
X589586Y-7605484D02*
X589586Y-7624531D01*
X713396Y-7805484D02*
X694348Y-7795960D01*
X694348Y-7795960D02*
X684824Y-7776912D01*
X684824Y-7776912D02*
X684824Y-7605484D01*
X818158Y-7805484D02*
X799110Y-7795960D01*
X799110Y-7795960D02*
X789586Y-7776912D01*
X789586Y-7776912D02*
X789586Y-7605484D01*
X1046729Y-7805484D02*
X1046729Y-7605484D01*
X1046729Y-7605484D02*
X1113396Y-7748341D01*
X1113396Y-7748341D02*
X1180063Y-7605484D01*
X1180063Y-7605484D02*
X1180063Y-7805484D01*
X1361015Y-7805484D02*
X1361015Y-7700722D01*
X1361015Y-7700722D02*
X1351491Y-7681674D01*
X1351491Y-7681674D02*
X1332444Y-7672150D01*
X1332444Y-7672150D02*
X1294348Y-7672150D01*
X1294348Y-7672150D02*
X1275301Y-7681674D01*
X1361015Y-7795960D02*
X1341967Y-7805484D01*
X1341967Y-7805484D02*
X1294348Y-7805484D01*
X1294348Y-7805484D02*
X1275301Y-7795960D01*
X1275301Y-7795960D02*
X1265777Y-7776912D01*
X1265777Y-7776912D02*
X1265777Y-7757865D01*
X1265777Y-7757865D02*
X1275301Y-7738817D01*
X1275301Y-7738817D02*
X1294348Y-7729293D01*
X1294348Y-7729293D02*
X1341967Y-7729293D01*
X1341967Y-7729293D02*
X1361015Y-7719769D01*
X1456253Y-7672150D02*
X1456253Y-7872150D01*
X1456253Y-7681674D02*
X1475301Y-7672150D01*
X1475301Y-7672150D02*
X1513396Y-7672150D01*
X1513396Y-7672150D02*
X1532443Y-7681674D01*
X1532443Y-7681674D02*
X1541967Y-7691198D01*
X1541967Y-7691198D02*
X1551491Y-7710246D01*
X1551491Y-7710246D02*
X1551491Y-7767388D01*
X1551491Y-7767388D02*
X1541967Y-7786436D01*
X1541967Y-7786436D02*
X1532443Y-7795960D01*
X1532443Y-7795960D02*
X1513396Y-7805484D01*
X1513396Y-7805484D02*
X1475301Y-7805484D01*
X1475301Y-7805484D02*
X1456253Y-7795960D01*
X1637205Y-7786436D02*
X1646729Y-7795960D01*
X1646729Y-7795960D02*
X1637205Y-7805484D01*
X1637205Y-7805484D02*
X1627682Y-7795960D01*
X1627682Y-7795960D02*
X1637205Y-7786436D01*
X1637205Y-7786436D02*
X1637205Y-7805484D01*
X1637205Y-7681674D02*
X1646729Y-7691198D01*
X1646729Y-7691198D02*
X1637205Y-7700722D01*
X1637205Y-7700722D02*
X1627682Y-7691198D01*
X1627682Y-7691198D02*
X1637205Y-7681674D01*
X1637205Y-7681674D02*
X1637205Y-7700722D01*
M02*
