M48
; DRILL file {KiCad 9.0.1} date 2025-08-01T20:40:57+0200
; FORMAT={-:-/ absolute / metric / decimal}
; #@! TF.CreationDate,2025-08-01T20:40:57+02:00
; #@! TF.GenerationSoftware,Kicad,Pcbnew,9.0.1
; #@! TF.FileFunction,Plated,1,2,PTH
FMAT,2
METRIC
; #@! TA.AperFunction,Plated,PTH,ViaDrill
T1C0.600
; #@! TA.AperFunction,Plated,PTH,ViaDrill
T2C5.000
%
G90
G05
T1
X9.21Y-53.86
X11.19Y-53.86
X13.17Y-53.86
X15.15Y-53.86
X17.13Y-53.86
X19.11Y-53.86
X21.09Y-53.86
X23.07Y-53.88
X29.01Y-53.86
X30.99Y-53.86
X32.97Y-53.86
X34.95Y-53.86
X36.93Y-53.86
X38.91Y-53.86
X40.89Y-53.86
X42.87Y-53.86
X44.85Y-53.86
X48.81Y-53.86
X52.77Y-53.86
X54.75Y-53.86
X60.69Y-53.86
X62.67Y-53.88
X64.65Y-53.86
X66.63Y-53.88
X68.61Y-53.86
X72.573Y-32.86
X74.55Y-53.86
X76.53Y-32.86
X78.51Y-16.86
X78.51Y-53.86
X80.49Y-32.86
X82.47Y-53.86
X84.45Y-16.86
X84.45Y-53.86
X88.41Y-16.86
X89.4Y-49.86
X91.38Y-49.86
X91.385Y-43.865
T2
X5.0Y-46.607
X96.5Y-46.86
M30
