M48
; DRILL file {KiCad 9.0.1} date 2025-07-28T23:24:05+0200
; FORMAT={-:-/ absolute / metric / decimal}
; #@! TF.CreationDate,2025-07-28T23:24:05+02:00
; #@! TF.GenerationSoftware,Kicad,Pcbnew,9.0.1
; #@! TF.FileFunction,Plated,1,2,PTH
FMAT,2
METRIC
; #@! TA.AperFunction,Plated,PTH,ViaDrill
T1C0.600
%
G90
G05
T1
X9.213Y-52.86
X11.19Y-52.86
X13.17Y-52.86
X15.15Y-52.86
X17.13Y-52.86
X19.11Y-52.86
X21.09Y-52.86
X23.07Y-52.86
X29.01Y-52.86
X30.99Y-52.86
X32.97Y-52.86
X34.95Y-52.86
X36.93Y-52.86
X38.91Y-52.86
X40.89Y-52.86
X42.87Y-52.86
X44.85Y-52.86
X48.81Y-52.86
X52.77Y-52.86
X54.75Y-52.86
X60.69Y-52.86
X62.67Y-52.86
X64.65Y-52.86
X66.63Y-52.86
X68.61Y-52.86
X72.573Y-32.86
X74.55Y-52.86
X76.53Y-32.86
X78.51Y-14.86
X78.51Y-52.86
X80.49Y-32.86
X82.47Y-52.86
X84.45Y-14.86
X84.45Y-52.86
X88.41Y-14.86
X90.39Y-44.86
X90.39Y-50.86
X92.36Y-49.87
M30
