M48
; DRILL file {KiCad 9.0.1} date 2025-08-01T20:54:46+0200
; FORMAT={-:-/ absolute / metric / decimal}
; #@! TF.CreationDate,2025-08-01T20:54:46+02:00
; #@! TF.GenerationSoftware,Kicad,Pcbnew,9.0.1
; #@! TF.FileFunction,Plated,1,2,PTH
FMAT,2
METRIC
; #@! TA.AperFunction,Plated,PTH,ViaDrill
T1C0.600
; #@! TA.AperFunction,Plated,PTH,ViaDrill
T2C5.000
%
G90
G05
T1
X9.21Y-34.86
X11.19Y-34.86
X13.17Y-34.86
X15.15Y-34.86
X17.13Y-34.86
X19.11Y-34.86
X21.09Y-34.86
X23.07Y-34.86
X25.05Y-34.86
X27.03Y-34.86
X29.01Y-34.86
X30.99Y-34.86
X32.97Y-34.86
X34.95Y-34.86
X36.93Y-34.86
X38.91Y-34.86
X40.89Y-34.86
X42.87Y-34.86
X44.85Y-34.86
X46.83Y-34.86
X48.81Y-34.86
X50.79Y-34.86
X52.77Y-34.86
X54.75Y-34.86
X56.73Y-34.86
X60.69Y-34.86
X62.67Y-34.86
X64.65Y-34.86
X66.63Y-34.86
X68.61Y-34.86
X70.59Y-34.86
X72.57Y-34.86
X74.55Y-34.86
X76.53Y-34.86
X78.51Y-34.86
X84.45Y-16.86
X84.45Y-18.86
X84.45Y-57.86
X84.45Y-59.86
X86.43Y-16.86
X86.43Y-18.86
X86.43Y-57.86
X86.43Y-59.86
X88.41Y-16.86
X88.41Y-18.86
X88.41Y-57.86
X88.41Y-59.86
X90.39Y-16.86
X90.39Y-18.86
X90.39Y-57.86
X90.39Y-59.86
X92.37Y-16.86
X92.37Y-18.86
X92.37Y-57.86
X92.37Y-59.86
X94.35Y-16.86
X94.35Y-18.86
X94.35Y-57.86
X94.35Y-59.86
X96.33Y-16.86
X96.33Y-18.86
X96.33Y-57.86
X96.33Y-59.86
X104.25Y-16.86
X104.25Y-18.86
X104.25Y-57.86
X104.25Y-59.86
X106.23Y-16.86
X106.23Y-18.86
X106.23Y-57.86
X106.23Y-59.86
X108.21Y-16.86
X108.21Y-18.86
X108.21Y-57.86
X108.21Y-59.86
X110.19Y-16.86
X110.19Y-18.86
X110.19Y-57.86
X110.19Y-59.86
X112.17Y-16.86
X112.17Y-18.86
X112.17Y-57.86
X112.17Y-59.86
X114.15Y-16.86
X114.15Y-18.86
X114.15Y-57.86
X114.15Y-59.86
X116.13Y-16.86
X116.13Y-18.86
X116.13Y-57.86
X116.13Y-59.86
T2
X5.0Y-46.607
X120.04Y-46.607
M30
